STARTFONT 2.1
FONT -Adobe-Utopia-Bold-R-Normal--33-240-100-100-P-186-ISO10646-1
SIZE 24 100 100
FONTBOUNDINGBOX 47 53 -5 -14
COMMENT $XFree86$
COMMENT ISO10646-1 extension by Markus Kuhn <mkuhn@acm.org>, 2001-03-20
STARTPROPERTIES 28
FOUNDRY "Adobe"
FAMILY_NAME "Utopia"
WEIGHT_NAME "Bold"
SLANT "R"
SETWIDTH_NAME "Normal"
ADD_STYLE_NAME ""
PIXEL_SIZE 33
POINT_SIZE 240
RESOLUTION_X 100
RESOLUTION_Y 100
SPACING "P"
AVERAGE_WIDTH 186
CHARSET_REGISTRY "ISO10646"
CHARSET_ENCODING "1"
CAP_HEIGHT 23
X_HEIGHT 16
RELATIVE_SETWIDTH 50
RELATIVE_WEIGHT 70
WEIGHT 218
FACE_NAME "Utopia Bold"
COPYRIGHT "Copyright (c) 1989, 1991 Adobe Systems Incorporated.  All Rights Reserved."
NOTICE "Utopia is a registered trademark of Adobe Systems Incorporated."
DESTINATION 0
FONT_ASCENT 31
FONT_DESCENT 8
DEFAULT_CHAR 0
_ADOBE_PSFONT "Utopia-Bold"
_DEC_DEVICE_FONTNAMES "PS=Utopia-Bold"
ENDPROPERTIES
CHARS 756
STARTCHAR char0
ENCODING 0
SWIDTH 807 0
DWIDTH 27 0
BBX 25 23 1 0
BITMAP
AAAAAA80
00000000
80000080
00000000
80000080
00000000
80000080
00000000
80000080
00000000
80000080
00000000
80000080
00000000
80000080
00000000
80000080
00000000
80000080
00000000
80000080
00000000
AAAAAA80
ENDCHAR
STARTCHAR space
ENCODING 32
SWIDTH 210 0
DWIDTH 7 0
BBX 0 0 0 0
BITMAP
ENDCHAR
STARTCHAR exclam
ENCODING 33
SWIDTH 278 0
DWIDTH 9 0
BBX 6 24 2 0
BITMAP
78
FC
FC
FC
FC
78
78
78
78
78
78
78
78
30
30
30
00
00
78
78
FC
FC
78
30
ENDCHAR
STARTCHAR quotedbl
ENCODING 34
SWIDTH 473 0
DWIDTH 16 0
BBX 11 10 2 14
BITMAP
71C0
F1E0
FBE0
F1E0
71C0
71C0
71C0
71C0
60C0
6080
ENDCHAR
STARTCHAR numbersign
ENCODING 35
SWIDTH 560 0
DWIDTH 19 0
BBX 18 22 0 0
BITMAP
00C380
01C300
01C700
018700
018600
038600
038E00
3FFFC0
3FFFC0
061C00
061800
0E1800
FFFF00
FFFF00
1C7000
187000
186000
386000
38E000
30C000
70C000
010000
ENDCHAR
STARTCHAR dollar
ENCODING 36
SWIDTH 560 0
DWIDTH 19 0
BBX 16 29 1 -3
BITMAP
0180
0180
0180
07E0
1FF8
39BC
799E
F19E
F18C
F980
FD80
FF80
7FE0
3FF0
1FFC
07FE
01FE
01BF
019F
218F
718F
F18E
F98E
7D9C
3FF8
07E0
0180
0180
0180
ENDCHAR
STARTCHAR percent
ENCODING 37
SWIDTH 887 0
DWIDTH 30 0
BBX 27 24 1 -1
BITMAP
1F001C00
39C01800
70FFF800
F0F07000
F0F06000
F0F0E000
F0F1C000
F0F18000
F0F38000
F0E30000
70E70000
39CE3F00
1F8C7380
001CE1C0
0019E1E0
0031E1E0
0071E1E0
0061E1E0
00C1E1E0
01C1E1E0
0180E1C0
03807380
03003F00
01000000
ENDCHAR
STARTCHAR ampersand
ENCODING 38
SWIDTH 748 0
DWIDTH 25 0
BBX 23 23 1 0
BITMAP
01E000
07F800
0F3C00
0E1E00
1E1E00
1E1E00
1E1E00
1F3C00
0FBC18
0FF038
07E03C
0FF03C
1FF838
7DFC38
78FE38
F8FF70
F87FE0
F81FE0
FC0FE0
7C07F0
7F0FF8
3FFCFC
07E03E
ENDCHAR
STARTCHAR quotesingle
ENCODING 39
SWIDTH 252 0
DWIDTH 8 0
BBX 5 10 2 14
BITMAP
70
F8
F8
F8
70
70
70
70
70
20
ENDCHAR
STARTCHAR parenleft
ENCODING 40
SWIDTH 365 0
DWIDTH 12 0
BBX 8 28 3 -4
BITMAP
07
0E
1C
38
38
70
70
70
70
E0
E0
E0
E0
E0
E0
E0
E0
E0
E0
70
70
70
70
38
38
1C
0E
07
ENDCHAR
STARTCHAR parenright
ENCODING 41
SWIDTH 365 0
DWIDTH 12 0
BBX 8 28 1 -4
BITMAP
E0
70
38
1C
1C
0E
0E
0E
0E
07
07
07
07
07
07
07
07
07
07
0E
0E
0E
0E
1C
1C
38
70
E0
ENDCHAR
STARTCHAR asterisk
ENCODING 42
SWIDTH 442 0
DWIDTH 15 0
BBX 12 13 1 11
BITMAP
0600
0600
4620
E670
FFF0
1F80
0F00
3FC0
F6F0
E670
4620
0600
0600
ENDCHAR
STARTCHAR plus
ENCODING 43
SWIDTH 600 0
DWIDTH 20 0
BBX 15 17 3 0
BITMAP
0380
0380
0380
0380
0380
0380
0380
FFFE
FFFE
FFFE
0380
0380
0380
0380
0380
0380
0380
ENDCHAR
STARTCHAR comma
ENCODING 44
SWIDTH 280 0
DWIDTH 9 0
BBX 6 12 1 -6
BITMAP
30
78
78
7C
7C
3C
38
38
30
60
C0
40
ENDCHAR
STARTCHAR hyphen
ENCODING 45
SWIDTH 392 0
DWIDTH 13 0
BBX 9 3 2 7
BITMAP
FF80
FF80
FF80
ENDCHAR
STARTCHAR period
ENCODING 46
SWIDTH 280 0
DWIDTH 9 0
BBX 6 6 2 0
BITMAP
30
78
FC
FC
78
30
ENDCHAR
STARTCHAR slash
ENCODING 47
SWIDTH 378 0
DWIDTH 13 0
BBX 10 24 1 0
BITMAP
01C0
03C0
0380
0380
0380
0700
0700
0700
0F00
0E00
0E00
0E00
1C00
1C00
1C00
3C00
3800
3800
3800
7000
7000
7000
F000
E000
ENDCHAR
STARTCHAR zero
ENCODING 48
SWIDTH 560 0
DWIDTH 19 0
BBX 17 23 1 0
BITMAP
01C000
0FF800
1E3C00
3C1E00
7C1E00
780F00
780F00
F80F80
F80F80
F80F80
F80F80
F80F80
F80F80
F80F80
F80F80
F80F80
780F00
780F00
3C1F00
3C1E00
1E3C00
0FF800
01C000
ENDCHAR
STARTCHAR one
ENCODING 49
SWIDTH 560 0
DWIDTH 19 0
BBX 11 23 4 0
BITMAP
0700
FF00
FF00
1F00
1F00
1F00
1F00
1F00
1F00
1F00
1F00
1F00
1F00
1F00
1F00
1F00
1F00
1F00
1F00
1F00
1F00
1F00
FFE0
ENDCHAR
STARTCHAR two
ENCODING 50
SWIDTH 560 0
DWIDTH 19 0
BBX 17 23 1 0
BITMAP
03F000
0FFC00
3E3E00
3C1E00
7C1F00
7C1F00
381F00
101F00
001F00
003E00
003E00
007C00
00F000
01E000
03C000
070000
0E0000
1C0080
380180
7FFF00
7FFF00
FFFF00
FFFF00
ENDCHAR
STARTCHAR three
ENCODING 51
SWIDTH 560 0
DWIDTH 19 0
BBX 16 23 1 0
BITMAP
07C0
1FF8
3C7C
783C
F83E
783E
303E
003E
003C
0078
1FE0
1FF0
007C
003E
001E
001F
301F
701F
F81F
FC3E
7C3C
3FF8
07C0
ENDCHAR
STARTCHAR four
ENCODING 52
SWIDTH 560 0
DWIDTH 19 0
BBX 17 23 1 0
BITMAP
003C00
007C00
00FC00
00FC00
01FC00
01FC00
037C00
077C00
067C00
0E7C00
1C7C00
187C00
387C00
307C00
707C00
FFFF80
FFFF80
007C00
007C00
007C00
007C00
007C00
03FF00
ENDCHAR
STARTCHAR five
ENCODING 53
SWIDTH 560 0
DWIDTH 19 0
BBX 15 23 2 0
BITMAP
7FFC
7FFC
7FFC
7FF8
6000
6000
6000
6000
6000
67C0
5FF0
70FC
407C
003E
003E
003E
603E
E03E
F03C
F87C
7878
3FF0
0780
ENDCHAR
STARTCHAR six
ENCODING 54
SWIDTH 560 0
DWIDTH 19 0
BBX 17 23 1 0
BITMAP
01F000
0FFC00
1E3E00
3E1F00
3C0F00
7C0E00
7C0000
780000
F80000
F87800
F9FE00
FFFE00
FE3F00
FC1F80
F80F80
F80F80
780F80
780F80
7C0F00
3C1F00
1E1E00
0FFC00
01E000
ENDCHAR
STARTCHAR seven
ENCODING 55
SWIDTH 560 0
DWIDTH 19 0
BBX 16 23 1 0
BITMAP
7FFF
7FFF
7FFF
7FFE
C00E
C00E
401C
0018
0038
0030
0060
00E0
00E0
01C0
03C0
0380
0780
0780
0780
0F80
0F80
0F80
0700
ENDCHAR
STARTCHAR eight
ENCODING 56
SWIDTH 560 0
DWIDTH 19 0
BBX 17 23 1 0
BITMAP
03E000
0FF800
1E3E00
3E1E00
7C1F00
7C1F00
7C1F00
7C1F00
3E1E00
3E3C00
0FF800
3FFE00
7E3F00
7C1F00
F80F00
F80F80
F80F80
F80F80
780F00
7C1F00
3E3E00
1FFC00
07F000
ENDCHAR
STARTCHAR nine
ENCODING 57
SWIDTH 560 0
DWIDTH 19 0
BBX 16 23 1 0
BITMAP
0380
1FF0
3C78
7C3C
783E
F81E
F81E
F81F
F81F
FC1F
7C1F
7E3F
3FFF
1FDF
071F
001E
001E
301E
783E
783C
7C78
3FF0
0780
ENDCHAR
STARTCHAR colon
ENCODING 58
SWIDTH 280 0
DWIDTH 9 0
BBX 6 17 2 0
BITMAP
30
78
FC
FC
78
78
00
00
00
00
00
78
78
FC
FC
78
30
ENDCHAR
STARTCHAR semicolon
ENCODING 59
SWIDTH 280 0
DWIDTH 9 0
BBX 7 22 1 -5
BITMAP
18
3C
3E
7E
3C
3C
00
00
00
00
30
78
7C
7C
7C
3C
38
38
30
60
E0
40
ENDCHAR
STARTCHAR less
ENCODING 60
SWIDTH 600 0
DWIDTH 20 0
BBX 16 17 2 0
BITMAP
0001
0007
003F
00FE
03F8
0FE0
7F00
FC00
E000
FC00
3F00
0FE0
03F8
007F
001F
0007
0001
ENDCHAR
STARTCHAR equal
ENCODING 61
SWIDTH 600 0
DWIDTH 20 0
BBX 16 10 2 3
BITMAP
FFFF
FFFF
FFFF
0000
0000
0000
0000
FFFF
FFFF
FFFF
ENDCHAR
STARTCHAR greater
ENCODING 62
SWIDTH 600 0
DWIDTH 20 0
BBX 16 17 2 0
BITMAP
8000
E000
FC00
7F00
1FC0
07F0
00FE
003F
0007
003F
00FC
07F0
1FC0
FE00
F800
E000
8000
ENDCHAR
STARTCHAR question
ENCODING 63
SWIDTH 456 0
DWIDTH 15 0
BBX 14 24 1 0
BITMAP
07C0
3FF0
7CF8
F8F8
F8FC
78FC
30FC
01F8
03F0
07C0
0F80
1F00
3F00
3F00
1FF0
07C0
0000
0000
0780
0F80
0FC0
0FC0
0F80
0300
ENDCHAR
STARTCHAR at
ENCODING 64
SWIDTH 833 0
DWIDTH 28 0
BBX 26 24 1 0
BITMAP
00078000
007FF000
01F03C00
07C01E00
0F800700
1E000700
1E03FB80
3C1EF180
783CF180
7878F1C0
7870E1C0
F0F1E1C0
F0F1E180
F1F3E380
F1E3C380
71E5C700
71E5C600
78F9FC00
7C60E000
3C000000
1F000000
0FC06000
01FFF000
003F0000
ENDCHAR
STARTCHAR A
ENCODING 65
SWIDTH 644 0
DWIDTH 21 0
BBX 23 24 -1 0
BITMAP
003C00
007C00
007E00
007E00
00FE00
00FE00
00DF00
019F00
019F00
019F80
030F80
030F80
030FC0
0707C0
07FFC0
07FFE0
0E07E0
0C03E0
0C03E0
1C03F0
1C01F0
1801F0
3801F8
FF0FFE
ENDCHAR
STARTCHAR B
ENCODING 66
SWIDTH 683 0
DWIDTH 23 0
BBX 21 24 1 0
BITMAP
FFFC00
1FFF80
1F0FC0
1F07C0
1F07E0
1F03E0
1F03E0
1F03C0
1F07C0
1F07C0
1F0F00
1FFE00
1FFFC0
1F07E0
1F03F0
1F01F8
1F01F8
1F01F8
1F01F8
1F01F8
1F03F0
1F07E0
1FFFC0
FFFE00
ENDCHAR
STARTCHAR C
ENCODING 67
SWIDTH 689 0
DWIDTH 23 0
BBX 20 24 1 0
BITMAP
001F80
03FFE0
07C0F0
1F8070
3F0030
3E0030
7E0010
7E0010
7C0000
FC0000
FC0000
FC0000
FC0000
FC0000
FC0000
7C0000
7E0010
7E0010
3E0030
3F0030
1F8070
0FE0F0
03FFE0
003F00
ENDCHAR
STARTCHAR D
ENCODING 68
SWIDTH 777 0
DWIDTH 26 0
BBX 24 24 1 0
BITMAP
FFFC00
1FFFC0
1F03F0
1F01F8
1F00FC
1F007C
1F007E
1F003E
1F003E
1F003F
1F003F
1F003F
1F003F
1F003F
1F003F
1F003F
1F007E
1F007E
1F007E
1F00FC
1F01F8
1F03F0
1FFFC0
FFFE00
ENDCHAR
STARTCHAR E
ENCODING 69
SWIDTH 629 0
DWIDTH 21 0
BBX 19 24 1 0
BITMAP
FFFFC0
1FFFC0
1F03C0
1F01C0
1F00C0
1F00C0
1F0040
1F0000
1F0200
1F0600
1F0600
1FFE00
1FFE00
1F0600
1F0200
1F0200
1F0000
1F0020
1F0060
1F0060
1F00E0
1F81E0
1FFFE0
FFFFE0
ENDCHAR
STARTCHAR F
ENCODING 70
SWIDTH 593 0
DWIDTH 20 0
BBX 18 24 1 0
BITMAP
FFFFC0
1FFFC0
1F01C0
1F00C0
1F00C0
1F0040
1F0000
1F0000
1F0000
1F0100
1F0300
1F0300
1FFF00
1FFF00
1F0300
1F0100
1F0100
1F0000
1F0000
1F0000
1F0000
1F0000
1F0000
FFE000
ENDCHAR
STARTCHAR G
ENCODING 71
SWIDTH 726 0
DWIDTH 24 0
BBX 23 24 1 0
BITMAP
007F80
03FFE0
0FC0F0
1F8070
3F0070
3F0030
7E0030
7E0010
FC0000
FC0000
FC0000
FC0000
FC0000
FC0000
FC07FE
FC00F8
7C00F8
7E00F8
7E00F8
3F00F8
1F80F8
0FC0F8
03FFF0
007F00
ENDCHAR
STARTCHAR H
ENCODING 72
SWIDTH 807 0
DWIDTH 27 0
BBX 25 24 1 0
BITMAP
FFE3FF80
1F007C00
1F007C00
1F007C00
1F007C00
1F007C00
1F007C00
1F007C00
1F007C00
1F007C00
1F007C00
1FFFFC00
1FFFFC00
1F007C00
1F007C00
1F007C00
1F007C00
1F007C00
1F007C00
1F007C00
1F007C00
1F007C00
1F007C00
FFE3FF80
ENDCHAR
STARTCHAR I
ENCODING 73
SWIDTH 384 0
DWIDTH 13 0
BBX 11 24 1 0
BITMAP
FFE0
1F00
1F00
1F00
1F00
1F00
1F00
1F00
1F00
1F00
1F00
1F00
1F00
1F00
1F00
1F00
1F00
1F00
1F00
1F00
1F00
1F00
1F00
FFE0
ENDCHAR
STARTCHAR J
ENCODING 74
SWIDTH 386 0
DWIDTH 13 0
BBX 12 27 0 -3
BITMAP
7FF0
0F80
0F80
0F80
0F80
0F80
0F80
0F80
0F80
0F80
0F80
0F80
0F80
0F80
0F80
0F80
0F80
0F80
0F80
0F80
0F80
0F00
1F00
1F00
3E00
FC00
8000
ENDCHAR
STARTCHAR K
ENCODING 75
SWIDTH 707 0
DWIDTH 24 0
BBX 23 24 1 0
BITMAP
FFE3FE
1F00F8
1F01E0
1F01C0
1F0380
1F0700
1F0E00
1F1C00
1F3800
1F3800
1F7800
1FFC00
1FFE00
1F7E00
1F7F00
1F3F80
1F3F80
1F1FC0
1F0FE0
1F0FE0
1F07F0
1F03F8
1F01FC
FFE03E
ENDCHAR
STARTCHAR L
ENCODING 76
SWIDTH 585 0
DWIDTH 20 0
BBX 18 24 1 0
BITMAP
FFE000
1F0000
1F0000
1F0000
1F0000
1F0000
1F0000
1F0000
1F0000
1F0000
1F0000
1F0000
1F0000
1F0000
1F0000
1F0000
1F0000
1F0040
1F00C0
1F00C0
1F01C0
1F83C0
1FFFC0
FFFFC0
ENDCHAR
STARTCHAR M
ENCODING 77
SWIDTH 918 0
DWIDTH 31 0
BBX 30 24 0 0
BITMAP
FF8007FC
1FC007E0
1FC00FE0
1FE00FE0
1BE01BE0
1BE01BE0
1BF01BE0
19F033E0
19F033E0
19F833E0
18F863E0
18FC63E0
18FC63E0
187CC3E0
187EC3E0
183FC3E0
183F83E0
183F83E0
181F03E0
181F03E0
181F03E0
180E03E0
3C0E03E0
7F061FFC
ENDCHAR
STARTCHAR N
ENCODING 78
SWIDTH 739 0
DWIDTH 25 0
BBX 22 24 1 0
BITMAP
FF01FC
1F8078
1F8030
1FC030
1FE030
1BE030
1BF030
19F030
18F830
18FC30
187C30
187E30
183E30
183F30
181FB0
180FB0
180FF0
1807F0
1807F0
1803F0
1801F0
1801F0
3C00F0
7F00F0
ENDCHAR
STARTCHAR O
ENCODING 79
SWIDTH 768 0
DWIDTH 26 0
BBX 23 24 1 0
BITMAP
007C00
03FF80
0FC7E0
1F01F0
3E00F8
3E00F8
7E00FC
7E00FC
7C007C
FC007E
FC007E
FC007E
FC007E
FC007E
FC007E
7C007C
7C007C
7E00FC
3E00F8
3E00F8
1F01F0
0FC7E0
03FF80
007C00
ENDCHAR
STARTCHAR P
ENCODING 80
SWIDTH 650 0
DWIDTH 22 0
BBX 20 24 1 0
BITMAP
FFFC00
1FFF80
1F0FC0
1F07E0
1F03E0
1F03E0
1F03F0
1F03F0
1F03F0
1F03E0
1F07E0
1F07C0
1F0FC0
1FFF00
1FF800
1F0000
1F0000
1F0000
1F0000
1F0000
1F0000
1F0000
1F0000
FFE000
ENDCHAR
STARTCHAR Q
ENCODING 81
SWIDTH 768 0
DWIDTH 26 0
BBX 23 31 1 -7
BITMAP
007C00
03FF80
0FC7E0
1F01F0
3F01F8
3E00F8
7E00FC
7E00FC
7C007C
FC007E
FC007E
FC007E
FC007E
FC007E
FC007E
FC007E
7C007C
7C007C
7E00FC
3E00F8
3F01F8
1F01F0
07C7E0
01FF00
003F00
003F80
001F80
000FC0
000FF0
0003FC
000070
ENDCHAR
STARTCHAR R
ENCODING 82
SWIDTH 684 0
DWIDTH 23 0
BBX 22 24 1 0
BITMAP
FFFC00
1FFF80
1F0FC0
1F07E0
1F03F0
1F03F0
1F03F0
1F03F0
1F03E0
1F07E0
1F07C0
1F0F80
1FFE00
1FFF00
1F0F80
1F0FC0
1F07C0
1F07C0
1F07E0
1F07E0
1F03F0
1F03F0
1F03F8
FFE07C
ENDCHAR
STARTCHAR S
ENCODING 83
SWIDTH 561 0
DWIDTH 19 0
BBX 16 24 2 0
BITMAP
03E0
1FF8
3E3C
7C1C
780C
F80C
F804
FC00
FF00
7FC0
7FE0
3FF8
0FFC
03FE
00FE
007F
803F
C01F
C01F
E01E
F03E
F87C
3FF8
07C0
ENDCHAR
STARTCHAR T
ENCODING 84
SWIDTH 624 0
DWIDTH 21 0
BBX 19 24 1 0
BITMAP
FFFFE0
FFFFE0
E1F0E0
C1F060
C1F060
C1F060
81F020
01F000
01F000
01F000
01F000
01F000
01F000
01F000
01F000
01F000
01F000
01F000
01F000
01F000
01F000
01F000
01F000
0FFE00
ENDCHAR
STARTCHAR U
ENCODING 85
SWIDTH 786 0
DWIDTH 26 0
BBX 23 24 2 0
BITMAP
FFC7FE
3E00F8
3E00F8
3E00F8
3E00F8
3E00F8
3E00F8
3E00F8
3E00F8
3E00F8
3E00F8
3E00F8
3E00F8
3E00F8
3E00F8
3E00F8
3E00F8
3E00F8
3E00F0
1F01F0
1F01F0
0F83E0
07FF80
00FC00
ENDCHAR
STARTCHAR V
ENCODING 86
SWIDTH 645 0
DWIDTH 22 0
BBX 23 24 0 0
BITMAP
FFC1FE
3F0038
3F0030
1F0070
1F8070
1F8060
0F8060
0F80E0
0FC0C0
07C0C0
07C0C0
07E180
03E180
03E180
03E300
01F300
01F300
01F600
00FE00
00FE00
00FC00
00FC00
007C00
007C00
ENDCHAR
STARTCHAR W
ENCODING 87
SWIDTH 933 0
DWIDTH 31 0
BBX 32 24 0 0
BITMAP
FF8000FF
3E01E01C
3E01E01C
3E01E018
1E03F018
1F03F038
1F03F038
1F03F030
0F06F830
0F86F830
0F86F870
0F867860
0F8C7C60
07CC7C60
07CC7C60
07CC3CC0
07C83EC0
03F83EC0
03F83EC0
03F81F80
03F01F80
01F01F80
01F01F00
01F00F00
ENDCHAR
STARTCHAR X
ENCODING 88
SWIDTH 634 0
DWIDTH 21 0
BBX 23 24 -1 0
BITMAP
7FE3FC
1F80E0
0F80C0
0FC1C0
07C380
07E300
03F700
03F600
01FC00
00FC00
00FC00
007C00
007E00
007E00
00FF00
019F00
019F80
030FC0
030FC0
0607E0
0E07E0
0C03F0
3C03F8
FF8FFE
ENDCHAR
STARTCHAR Y
ENCODING 89
SWIDTH 617 0
DWIDTH 21 0
BBX 22 24 0 0
BITMAP
FFC3FC
3F00F0
1F00E0
1F80C0
0F81C0
0F8180
0FC380
07C300
07C700
03E600
03E600
01FC00
01FC00
01F800
00F800
00F800
00F800
00F800
00F800
00F800
00F800
00F800
00F800
07FF00
ENDCHAR
STARTCHAR Z
ENCODING 90
SWIDTH 614 0
DWIDTH 20 0
BBX 20 24 0 0
BITMAP
3FFFF0
3FFFF0
3C07E0
300FC0
300FC0
201F80
203F00
003F00
007E00
007C00
00FC00
01F800
01F000
03F000
07E000
07E000
0FC000
0F8030
1F8030
3F0070
3E0070
7E01F0
FFFFF0
FFFFF0
ENDCHAR
STARTCHAR bracketleft
ENCODING 91
SWIDTH 335 0
DWIDTH 11 0
BBX 6 28 4 -4
BITMAP
FC
E0
E0
E0
E0
E0
E0
E0
E0
E0
E0
E0
E0
E0
E0
E0
E0
E0
E0
E0
E0
E0
E0
E0
E0
E0
E0
FC
ENDCHAR
STARTCHAR backslash
ENCODING 92
SWIDTH 379 0
DWIDTH 13 0
BBX 10 24 1 0
BITMAP
E000
F000
7000
7000
7000
3800
3800
3800
3C00
1C00
1C00
1C00
0E00
0E00
0E00
0F00
0700
0700
0700
0380
0380
0380
03C0
01C0
ENDCHAR
STARTCHAR bracketright
ENCODING 93
SWIDTH 335 0
DWIDTH 11 0
BBX 6 28 1 -4
BITMAP
FC
1C
1C
1C
1C
1C
1C
1C
1C
1C
1C
1C
1C
1C
1C
1C
1C
1C
1C
1C
1C
1C
1C
1C
1C
1C
1C
FC
ENDCHAR
STARTCHAR asciicircum
ENCODING 94
SWIDTH 600 0
DWIDTH 20 0
BBX 16 15 2 8
BITMAP
03C0
03C0
07E0
07E0
07E0
0E70
0E70
1E78
1C38
3C3C
381C
381C
781E
700E
F00F
ENDCHAR
STARTCHAR underscore
ENCODING 95
SWIDTH 500 0
DWIDTH 17 0
BBX 17 2 0 -4
BITMAP
FFFF80
FFFF80
ENDCHAR
STARTCHAR grave
ENCODING 96
SWIDTH 430 0
DWIDTH 14 0
BBX 9 8 1 17
BITMAP
4000
F000
F800
7C00
3E00
0F00
0380
0080
ENDCHAR
STARTCHAR a
ENCODING 97
SWIDTH 544 0
DWIDTH 18 0
BBX 18 17 1 0
BITMAP
07E000
3FFC00
7C7C00
7C3E00
F83E00
703E00
00FE00
07FE00
1E3E00
7C3E00
783E00
F83E00
F83E00
7C7E00
7FFF00
7F9FC0
1C0C00
ENDCHAR
STARTCHAR b
ENCODING 98
SWIDTH 605 0
DWIDTH 20 0
BBX 19 25 0 0
BITMAP
0E0000
FE0000
7E0000
3E0000
3E0000
3E0000
3E0000
3E0000
3E1E00
3E7F00
3FFF80
3F0FC0
3E07C0
3E03E0
3E03E0
3E03E0
3E03E0
3E03E0
3E03E0
3E03C0
3E07C0
3E07C0
3F0F80
3FFF00
11F800
ENDCHAR
STARTCHAR c
ENCODING 99
SWIDTH 494 0
DWIDTH 16 0
BBX 15 17 1 0
BITMAP
03C0
0FF8
3C7C
3C3C
7C3C
7818
F800
F800
F800
F800
F800
FC06
7C0C
7E0C
3FF8
1FF0
0380
ENDCHAR
STARTCHAR d
ENCODING 100
SWIDTH 605 0
DWIDTH 20 0
BBX 19 25 1 0
BITMAP
000380
003F80
001F80
000F80
000F80
000F80
000F80
000F80
01CF80
0FFF80
3E1F80
3C0F80
7C0F80
780F80
F80F80
F80F80
F80F80
F80F80
F80F80
F80F80
7C0F80
7C0F80
3E1F80
1FEF80
070FE0
ENDCHAR
STARTCHAR e
ENCODING 101
SWIDTH 519 0
DWIDTH 17 0
BBX 16 17 1 0
BITMAP
03C0
0FF8
3E3C
3C1E
781E
781F
F81F
FFFF
FFFF
F800
F800
FC00
7C03
7E06
3FFC
1FF8
03E0
ENDCHAR
STARTCHAR f
ENCODING 102
SWIDTH 342 0
DWIDTH 11 0
BBX 13 25 1 0
BITMAP
03C0
0FF0
1CF0
1C78
3C70
3E00
3E00
3E00
FFC0
FFC0
3E00
3E00
3E00
3E00
3E00
3E00
3E00
3E00
3E00
3E00
3E00
3E00
3E00
3E00
FFC0
ENDCHAR
STARTCHAR g
ENCODING 103
SWIDTH 533 0
DWIDTH 18 0
BBX 17 25 1 -8
BITMAP
078180
1FFF80
7C7F00
7C3C00
F83E00
F83E00
F83E00
7C3C00
7C7C00
1FF800
0FC000
380000
380000
7FF800
7FFE00
3FFF00
1FFF80
3C0F80
780780
F80780
F80700
7C0700
7E1E00
3FFC00
07E000
ENDCHAR
STARTCHAR h
ENCODING 104
SWIDTH 631 0
DWIDTH 21 0
BBX 20 25 1 0
BITMAP
0E0000
FE0000
7E0000
3E0000
3E0000
3E0000
3E0000
3E0000
3E1E00
3E7F80
3FFF80
3F0FC0
3E07C0
3E07C0
3E07C0
3E07C0
3E07C0
3E07C0
3E07C0
3E07C0
3E07C0
3E07C0
3E07C0
3E07C0
FF9FF0
ENDCHAR
STARTCHAR i
ENCODING 105
SWIDTH 316 0
DWIDTH 11 0
BBX 9 24 1 0
BITMAP
1800
3E00
7E00
3E00
3E00
1800
0000
0E00
FE00
7E00
3E00
3E00
3E00
3E00
3E00
3E00
3E00
3E00
3E00
3E00
3E00
3E00
3E00
FF80
ENDCHAR
STARTCHAR j
ENCODING 106
SWIDTH 316 0
DWIDTH 11 0
BBX 10 32 -1 -8
BITMAP
0300
0780
0FC0
0FC0
0780
0300
0000
0380
3F80
1F80
0F80
0F80
0F80
0F80
0F80
0F80
0F80
0F80
0F80
0F80
0F80
0F80
0F80
0F80
0F80
0F80
0F80
0F00
1F00
1F00
7E00
E000
ENDCHAR
STARTCHAR k
ENCODING 107
SWIDTH 582 0
DWIDTH 19 0
BBX 19 25 1 0
BITMAP
0E0000
FE0000
7E0000
3E0000
3E0000
3E0000
3E0000
3E0000
3E0FC0
3E1F80
3E3E00
3E3C00
3E7800
3E6000
3EE000
3FF000
3FF000
3FF800
3EFC00
3E7C00
3E7E00
3E3F00
3E3F80
3E1FC0
FF87E0
ENDCHAR
STARTCHAR l
ENCODING 108
SWIDTH 309 0
DWIDTH 10 0
BBX 9 25 1 0
BITMAP
0E00
FE00
7E00
3E00
3E00
3E00
3E00
3E00
3E00
3E00
3E00
3E00
3E00
3E00
3E00
3E00
3E00
3E00
3E00
3E00
3E00
3E00
3E00
3E00
FF80
ENDCHAR
STARTCHAR m
ENCODING 109
SWIDTH 948 0
DWIDTH 32 0
BBX 31 17 1 0
BITMAP
0E0C01C0
FE7F0FF0
7FFFBFF0
3F0FE1F8
3F07E0F8
3E07C0F8
3E07C0F8
3E07C0F8
3E07C0F8
3E07C0F8
3E07C0F8
3E07C0F8
3E07C0F8
3E07C0F8
3E07C0F8
3E07C0F8
FF9FF3FE
ENDCHAR
STARTCHAR n
ENCODING 110
SWIDTH 638 0
DWIDTH 21 0
BBX 20 17 1 0
BITMAP
0E0E00
FE7F80
7FFF80
3F0FC0
3E07C0
3E07C0
3E07C0
3E07C0
3E07C0
3E07C0
3E07C0
3E07C0
3E07C0
3E07C0
3E07C0
3E07C0
FF9FF0
ENDCHAR
STARTCHAR o
ENCODING 111
SWIDTH 585 0
DWIDTH 20 0
BBX 17 17 1 0
BITMAP
03E000
1FFC00
3E3E00
7C1F00
7C1F00
F80F80
F80F80
F80F80
F80F80
F80F80
F80F80
F80F80
7C1F00
7C1F00
3E3E00
1FFC00
03E000
ENDCHAR
STARTCHAR p
ENCODING 112
SWIDTH 615 0
DWIDTH 21 0
BBX 18 25 1 -8
BITMAP
0C1C00
FEFE00
7FFF00
3F0F80
3E0F80
3E07C0
3E07C0
3E07C0
3E07C0
3E07C0
3E07C0
3E0780
3E0F80
3E0F80
3F1F00
3FFE00
3FF000
3E0000
3E0000
3E0000
3E0000
3E0000
3E0000
3E0000
FFC000
ENDCHAR
STARTCHAR q
ENCODING 113
SWIDTH 597 0
DWIDTH 20 0
BBX 19 25 1 -8
BITMAP
01F180
0FFF80
3E1F80
3C0F80
7C0F80
780F80
F80F80
F80F80
F80F80
F80F80
F80F80
FC0F80
7C0F80
7E1F80
3FFF80
1FEF80
078F80
000F80
000F80
000F80
000F80
000F80
000F80
000F80
007FE0
ENDCHAR
STARTCHAR r
ENCODING 114
SWIDTH 440 0
DWIDTH 15 0
BBX 14 17 1 0
BITMAP
1E38
FEF8
7FFC
3FF8
3E30
3E00
3E00
3E00
3E00
3E00
3E00
3E00
3E00
3E00
3E00
3E00
FFC0
ENDCHAR
STARTCHAR s
ENCODING 115
SWIDTH 446 0
DWIDTH 15 0
BBX 13 17 1 0
BITMAP
0FC0
3FF0
78F0
7830
F830
FC10
FF00
7FC0
7FF0
1FF0
87F8
C1F8
C0F8
E0F0
F0F0
7FE0
0F80
ENDCHAR
STARTCHAR t
ENCODING 116
SWIDTH 370 0
DWIDTH 12 0
BBX 11 21 1 0
BITMAP
0600
0E00
1E00
1E00
FFC0
FFC0
3E00
3E00
3E00
3E00
3E00
3E00
3E00
3E00
3E00
3E00
3E00
3F00
1FE0
1FC0
0700
ENDCHAR
STARTCHAR u
ENCODING 117
SWIDTH 629 0
DWIDTH 21 0
BBX 19 17 1 0
BITMAP
0E0380
FE3F80
7E0F80
3E0F80
3E0F80
3E0F80
3E0F80
3E0F80
3E0F80
3E0F80
3E0F80
3E0F80
3E0F80
3F1F80
1FFF80
1FE780
070FE0
ENDCHAR
STARTCHAR v
ENCODING 118
SWIDTH 520 0
DWIDTH 17 0
BBX 18 17 0 0
BITMAP
FF9FC0
3E0700
3E0700
3E0600
1F0600
1F0E00
1F0C00
0F8C00
0F9C00
0F9800
079800
07D800
07F000
03F000
03E000
01E000
01E000
ENDCHAR
STARTCHAR w
ENCODING 119
SWIDTH 774 0
DWIDTH 26 0
BBX 27 17 0 0
BITMAP
FF870FE0
3E0F8380
3E0F8380
3E0F8300
1F0FC300
1F1FC700
1F1FC600
0F1BC600
0F9BE600
0FB3EC00
07B1EC00
07F1FC00
07E1FC00
07E0F800
03E0F800
03E0F800
03C0F000
ENDCHAR
STARTCHAR x
ENCODING 120
SWIDTH 522 0
DWIDTH 17 0
BBX 18 17 0 0
BITMAP
FFBF80
3F1E00
1F1C00
1FB800
0FB000
07F000
07E000
03E000
01E000
01F000
03F000
07F800
067C00
0C7E00
1C3E00
383F00
FE7FC0
ENDCHAR
STARTCHAR y
ENCODING 121
SWIDTH 524 0
DWIDTH 17 0
BBX 20 25 -1 -8
BITMAP
FFC7F0
3F01C0
1F01C0
1F0180
1F8380
0F8300
0FC300
07C700
07C600
07E600
03EC00
03FC00
01FC00
01F800
01F800
00F800
00F000
00F000
00E000
006000
0CC000
1FC000
1F8000
1F8000
0E0000
ENDCHAR
STARTCHAR z
ENCODING 122
SWIDTH 483 0
DWIDTH 16 0
BBX 15 17 1 0
BITMAP
7FFE
7FFE
70FC
60F8
41F8
43F0
03E0
07E0
0FC0
0F80
1F80
1F02
3E06
7E06
7C0E
FFFE
FFFE
ENDCHAR
STARTCHAR braceleft
ENCODING 123
SWIDTH 365 0
DWIDTH 12 0
BBX 9 28 2 -4
BITMAP
0780
0E00
1C00
1C00
1C00
1C00
1C00
1E00
0E00
0E00
0E00
0E00
0C00
1000
FC00
1E00
0E00
0E00
0E00
0E00
1E00
1C00
1C00
1C00
1C00
1C00
0E00
0780
ENDCHAR
STARTCHAR bar
ENCODING 124
SWIDTH 284 0
DWIDTH 9 0
BBX 3 24 3 0
BITMAP
E0
E0
E0
E0
E0
E0
E0
E0
E0
E0
E0
E0
E0
E0
E0
E0
E0
E0
E0
E0
E0
E0
E0
E0
ENDCHAR
STARTCHAR braceright
ENCODING 125
SWIDTH 365 0
DWIDTH 12 0
BBX 9 28 1 -4
BITMAP
F000
3800
1C00
1C00
1C00
1C00
1C00
1C00
1C00
1C00
1C00
1C00
1C00
0E00
0380
0E00
1C00
1C00
1C00
1C00
1C00
1C00
1C00
1C00
1C00
1C00
3800
F000
ENDCHAR
STARTCHAR asciitilde
ENCODING 126
SWIDTH 600 0
DWIDTH 20 0
BBX 17 6 2 5
BITMAP
000100
1F8380
3FFF00
7FFE00
E07C00
400000
ENDCHAR
STARTCHAR space
ENCODING 160
SWIDTH 210 0
DWIDTH 7 0
BBX 0 0 0 0
BITMAP
ENDCHAR
STARTCHAR exclamdown
ENCODING 161
SWIDTH 278 0
DWIDTH 9 0
BBX 6 24 2 -7
BITMAP
30
78
FC
FC
78
78
00
00
30
30
30
78
78
78
78
78
78
78
78
FC
FC
FC
F8
78
ENDCHAR
STARTCHAR cent
ENCODING 162
SWIDTH 560 0
DWIDTH 19 0
BBX 17 23 1 0
BITMAP
006000
006000
006000
01F000
0FFF00
3E6F80
3C6780
7C6780
786200
F86000
F86000
F86000
F86000
F86000
FC6000
7C6080
7E6180
3F6300
1FFE00
03F800
006000
006000
006000
ENDCHAR
STARTCHAR sterling
ENCODING 163
SWIDTH 560 0
DWIDTH 19 0
BBX 18 23 1 0
BITMAP
01F000
07FC00
0F3E00
1E1F00
1E0F00
3E0E00
3E0400
3F0000
3F0000
1F0000
1F8000
1F8000
7FFC00
7FFC00
07C000
03C000
03C000
0380C0
0701C0
1FFF80
7FFF80
7FFF80
FFFF00
ENDCHAR
STARTCHAR currency
ENCODING 164
SWIDTH 560 0
DWIDTH 19 0
BBX 17 18 1 2
BITMAP
400100
E3E380
7FFF00
7FFF00
3C1E00
380E00
780F00
700700
700700
700700
700700
780F00
380E00
3C1E00
7FFF00
7FFF00
E3E380
400100
ENDCHAR
STARTCHAR yen
ENCODING 165
SWIDTH 560 0
DWIDTH 19 0
BBX 19 23 0 0
BITMAP
FF9FE0
7E0380
3E0300
1F0300
1F0600
1F0600
0F8E00
0F8C00
07DC00
07D800
3FFF80
3FFF80
01F000
01F000
3FFF80
3FFF80
01F000
01F000
01F000
01F000
01F000
01F000
0FFE00
ENDCHAR
STARTCHAR brokenbar
ENCODING 166
SWIDTH 284 0
DWIDTH 9 0
BBX 3 24 3 0
BITMAP
E0
E0
E0
E0
E0
E0
E0
E0
E0
00
00
00
00
E0
E0
E0
E0
E0
E0
E0
E0
E0
E0
E0
ENDCHAR
STARTCHAR section
ENCODING 167
SWIDTH 566 0
DWIDTH 19 0
BBX 17 28 1 -4
BITMAP
01E000
07FC00
0C7C00
1C3E00
1C0C00
1E0000
3F8000
6FC000
47F000
43FC00
C1FE00
E07F00
E03F00
F80F80
7E0780
7F0380
3FC380
1FE180
07F100
03FB00
00FE00
007C00
083C00
1C1C00
3E1C00
1F1800
0FF000
01C000
ENDCHAR
STARTCHAR dieresis
ENCODING 168
SWIDTH 430 0
DWIDTH 14 0
BBX 13 5 1 19
BITMAP
3060
F8F8
F8F8
F8F8
3060
ENDCHAR
STARTCHAR copyright
ENCODING 169
SWIDTH 800 0
DWIDTH 27 0
BBX 25 24 1 0
BITMAP
003E0000
01FFC000
03C1E000
0F007800
1E003C00
1C000C00
383F0E00
70F1C700
71E0C700
61E04300
63C00300
E3C00380
E3C00380
E3C00380
63C04300
61E04300
71E0C700
70F1C700
383F0E00
1C001C00
0E003800
0780F000
01FFC000
003E0000
ENDCHAR
STARTCHAR ordfeminine
ENCODING 170
SWIDTH 405 0
DWIDTH 14 0
BBX 12 11 1 9
BITMAP
1F00
7380
F3C0
63C0
0FC0
3BC0
73C0
F3C0
F3C0
7FC0
39F0
ENDCHAR
STARTCHAR guillemotleft
ENCODING 171
SWIDTH 487 0
DWIDTH 16 0
BBX 14 14 1 1
BITMAP
020C
060C
0C18
1C38
3870
78F0
F9E0
F9E0
78F0
3870
1C38
0C18
060C
020C
ENDCHAR
STARTCHAR logicalnot
ENCODING 172
SWIDTH 600 0
DWIDTH 20 0
BBX 16 10 2 3
BITMAP
FFFF
FFFF
FFFF
0007
0007
0007
0007
0007
0007
0007
ENDCHAR
STARTCHAR hyphen
ENCODING 173
SWIDTH 392 0
DWIDTH 13 0
BBX 9 3 2 7
BITMAP
FF80
FF80
FF80
ENDCHAR
STARTCHAR registered
ENCODING 174
SWIDTH 800 0
DWIDTH 27 0
BBX 25 24 1 0
BITMAP
003C0000
01FFC000
03C1E000
0F007800
1C003C00
18001C00
3BFE0E00
70E78700
70E3C700
60E3C300
60E38300
E0E78380
E0FE0380
E0E70380
60E78300
60E78300
70E3C700
70E3C700
3BF9EE00
1C001C00
0E007800
0781F000
01FFC000
003E0000
ENDCHAR
STARTCHAR macron
ENCODING 175
SWIDTH 430 0
DWIDTH 14 0
BBX 10 3 2 20
BITMAP
FFC0
FFC0
FFC0
ENDCHAR
STARTCHAR degree
ENCODING 176
SWIDTH 396 0
DWIDTH 13 0
BBX 11 11 1 12
BITMAP
1F00
3F80
71C0
60C0
E0E0
E0E0
E0E0
60C0
71C0
3F80
1F00
ENDCHAR
STARTCHAR plusminus
ENCODING 177
SWIDTH 600 0
DWIDTH 20 0
BBX 15 19 3 0
BITMAP
0380
0380
0380
0380
0380
0380
FFFE
FFFE
FFFE
0380
0380
0380
0380
0380
0380
0000
FFFE
FFFE
FFFE
ENDCHAR
STARTCHAR twosuperior
ENCODING 178
SWIDTH 402 0
DWIDTH 13 0
BBX 12 14 1 9
BITMAP
0F00
79C0
79E0
71E0
71E0
03C0
03C0
0780
0E00
1800
3030
7FE0
7FE0
FFE0
ENDCHAR
STARTCHAR threesuperior
ENCODING 179
SWIDTH 402 0
DWIDTH 13 0
BBX 11 14 1 9
BITMAP
0F80
79C0
79E0
71E0
01C0
0180
3F80
03C0
01E0
61E0
F1E0
F1E0
7BC0
1F00
ENDCHAR
STARTCHAR acute
ENCODING 180
SWIDTH 430 0
DWIDTH 14 0
BBX 9 8 4 17
BITMAP
0100
0780
0F80
1F00
3E00
7800
E000
8000
ENDCHAR
STARTCHAR mu
ENCODING 181
SWIDTH 629 0
DWIDTH 21 0
BBX 19 25 1 -8
BITMAP
0E0380
FE3F80
7E0F80
3E0F80
3E0F80
3E0F80
3E0F80
3E0F80
3E0F80
3E0F80
3E0F80
3E0F80
3E0F80
3F1F80
3FFF80
3FE780
3B8FE0
380000
380000
3C0000
3C0000
3C0000
3E0000
3C0000
300000
ENDCHAR
STARTCHAR paragraph
ENCODING 182
SWIDTH 552 0
DWIDTH 18 0
BBX 17 28 1 -4
BITMAP
071F80
1F1C00
3F1C00
7F1C00
7F1C00
FF1C00
FF1C00
FF1C00
FF1C00
FF1C00
7F1C00
7F1C00
3F1C00
3F1C00
0F1C00
011C00
001C00
001C00
001C00
001C00
001C00
001C00
001C00
001C00
001C00
001C00
007C00
00FC00
ENDCHAR
STARTCHAR periodcentered
ENCODING 183
SWIDTH 280 0
DWIDTH 9 0
BBX 6 6 2 5
BITMAP
30
78
FC
FC
78
30
ENDCHAR
STARTCHAR cedilla
ENCODING 184
SWIDTH 430 0
DWIDTH 14 0
BBX 7 8 4 -8
BITMAP
38
30
78
7C
3E
1E
3C
F8
ENDCHAR
STARTCHAR onesuperior
ENCODING 185
SWIDTH 402 0
DWIDTH 13 0
BBX 8 14 3 9
BITMAP
3C
FC
3C
3C
3C
3C
3C
3C
3C
3C
3C
3C
3C
FF
ENDCHAR
STARTCHAR ordmasculine
ENCODING 186
SWIDTH 427 0
DWIDTH 14 0
BBX 12 11 1 9
BITMAP
1F80
79E0
70E0
F0F0
F0F0
F0F0
F0F0
F0F0
70E0
79E0
1F80
ENDCHAR
STARTCHAR guillemotright
ENCODING 187
SWIDTH 487 0
DWIDTH 16 0
BBX 14 14 1 1
BITMAP
C100
C180
60C0
70E0
3870
3C78
1E7C
1E7C
3C78
3870
70E0
60C0
C180
C100
ENDCHAR
STARTCHAR onequarter
ENCODING 188
SWIDTH 900 0
DWIDTH 30 0
BBX 24 25 3 -1
BITMAP
000040
3C00E0
FC00C0
3C01C0
3C0180
3C0380
3C0300
3C0700
3C0600
3C0E00
3C0C00
3C1C3C
3C183C
3C387C
FF30FC
0071BC
00613C
00E33C
00C63C
01C7FF
018FFF
03803C
03003C
0700FF
020000
ENDCHAR
STARTCHAR onehalf
ENCODING 189
SWIDTH 900 0
DWIDTH 30 0
BBX 27 25 2 -1
BITMAP
00002000
3C007000
FC006000
3C00C000
3C00C000
3C018000
3C018000
3C030000
3C030000
3C060000
3C060000
3C0C1E00
3C0CF380
3C18F3C0
FF18E3C0
003043C0
00200780
00600F00
00401E00
00C03800
00806060
0180FFC0
0100FFC0
0301FFC0
02000000
ENDCHAR
STARTCHAR threequarters
ENCODING 190
SWIDTH 900 0
DWIDTH 30 0
BBX 27 25 1 -1
BITMAP
00001000
0F801C00
79C01800
79E03800
71E03000
01C07000
01806000
3F80E000
13C0C000
01E1C000
21E18000
61E30780
F1E30780
F3C60F80
1F0E1F80
000C3780
001C6780
00186780
0038C780
0031FFE0
0071FFE0
00600780
00C00780
00C01FE0
00400000
ENDCHAR
STARTCHAR questiondown
ENCODING 191
SWIDTH 456 0
DWIDTH 15 0
BBX 14 24 1 -7
BITMAP
0300
0F80
0FC0
0FC0
0F80
0780
0000
0000
0F80
3FE0
03F0
03F0
03E0
07C0
0F80
3F00
7E00
FC30
FC78
FC7C
7C7C
7CF8
3FF0
0F80
ENDCHAR
STARTCHAR Agrave
ENCODING 192
SWIDTH 644 0
DWIDTH 21 0
BBX 23 31 -1 0
BITMAP
010000
03C000
03F000
01F800
007C00
000E00
000000
003C00
007C00
007E00
007E00
00FE00
00FE00
00DF00
019F00
019F00
019F80
030F80
030F80
030FC0
0707C0
07FFC0
07FFE0
0E07E0
0C03E0
0C03E0
1C03F0
1C01F0
1801F0
3801F8
FF0FFE
ENDCHAR
STARTCHAR Aacute
ENCODING 193
SWIDTH 644 0
DWIDTH 21 0
BBX 23 31 -1 0
BITMAP
000180
000780
000FC0
003F80
007C00
00E000
000000
003C00
007C00
007E00
007E00
00FE00
00FE00
00DF00
019F00
019F00
019F80
030F80
030F80
030FC0
0707C0
07FFC0
07FFE0
0E07E0
0C03E0
0C03E0
1C03F0
1C01F0
1801F0
3801F8
FF0FFE
ENDCHAR
STARTCHAR Acircumflex
ENCODING 194
SWIDTH 644 0
DWIDTH 21 0
BBX 23 30 -1 0
BITMAP
001000
003C00
00FE00
01FF00
0383C0
000000
003C00
007C00
007E00
007E00
00FE00
00FE00
00DF00
019F00
019F00
019F80
030F80
030F80
030FC0
0707C0
07FFC0
07FFE0
0E07E0
0C03E0
0C03E0
1C03F0
1C01F0
1801F0
3801F8
FF0FFE
ENDCHAR
STARTCHAR Atilde
ENCODING 195
SWIDTH 644 0
DWIDTH 21 0
BBX 23 29 -1 0
BITMAP
00E040
03F860
03FFC0
061F80
040300
003C00
007C00
007E00
007E00
00FE00
00FE00
00DF00
019F00
019F00
019F80
030F80
030F80
030FC0
0707C0
07FFC0
07FFE0
0E07E0
0C03E0
0C03E0
1C03F0
1C01F0
1801F0
3801F8
FF0FFE
ENDCHAR
STARTCHAR Adieresis
ENCODING 196
SWIDTH 644 0
DWIDTH 21 0
BBX 23 29 -1 0
BITMAP
038380
07C7C0
07C7C0
07C7C0
038380
003C00
007C00
007E00
007E00
00FE00
00FE00
00DF00
019F00
019F00
019F80
030F80
030F80
030FC0
0707C0
07FFC0
07FFE0
0E07E0
0C03E0
0C03E0
1C03F0
1C01F0
1801F0
3801F8
FF07FE
ENDCHAR
STARTCHAR Aring
ENCODING 197
SWIDTH 644 0
DWIDTH 21 0
BBX 23 29 -1 0
BITMAP
003C00
00E700
00C300
00C300
00C300
007E00
007E00
007E00
007E00
00FF00
00FF00
00DF00
019F00
019F80
018F80
018F80
030FC0
0307C0
0307C0
07FFC0
07FFE0
0E07E0
0C03E0
0C03F0
1C03F0
1C01F0
1801F0
3801F8
FF0FFE
ENDCHAR
STARTCHAR AE
ENCODING 198
SWIDTH 879 0
DWIDTH 29 0
BBX 31 24 -3 0
BITMAP
007FFFFC
001FFFFC
000DF01C
000DF00C
001DF00C
0019F004
0039F004
0031F000
0071F010
0061F030
00E1F030
00FFFFF0
01FFFFF0
0181F030
0181F030
0381F010
0301F000
0701F002
0601F006
0E01F006
0C01F00E
1C01F81E
3C01FFFE
FF8FFFFE
ENDCHAR
STARTCHAR Ccedilla
ENCODING 199
SWIDTH 689 0
DWIDTH 23 0
BBX 20 32 1 -8
BITMAP
001F80
03FFE0
0FC0F0
1F8070
3F0030
3E0030
7E0010
7E0010
7C0000
FC0000
FC0000
FC0000
FC0000
FC0000
FC0000
7C0000
7E0010
7E0010
3E0030
3F0030
1F8070
0FE0F0
03FFE0
003F00
001800
001800
003E00
003E00
001F00
000F00
001E00
007C00
ENDCHAR
STARTCHAR Egrave
ENCODING 200
SWIDTH 629 0
DWIDTH 21 0
BBX 19 31 1 0
BITMAP
040000
0F0000
0F8000
07E000
01F000
003800
000000
FFFFC0
1FFFC0
1F03C0
1F01C0
1F00C0
1F00C0
1F0040
1F0000
1F0200
1F0600
1F0600
1FFE00
1FFE00
1F0600
1F0200
1F0200
1F0000
1F0020
1F0060
1F0060
1F00E0
1F81E0
1FFFE0
FFFFE0
ENDCHAR
STARTCHAR Eacute
ENCODING 201
SWIDTH 629 0
DWIDTH 21 0
BBX 19 31 1 0
BITMAP
000600
000F00
003F00
007E00
00F000
018000
000000
FFFFC0
1FFFC0
1F03C0
1F01C0
1F00C0
1F00C0
1F0040
1F0000
1F0200
1F0600
1F0600
1FFE00
1FFE00
1F0600
1F0200
1F0200
1F0000
1F0020
1F0060
1F0060
1F00E0
1F81E0
1FFFE0
FFFFE0
ENDCHAR
STARTCHAR Ecircumflex
ENCODING 202
SWIDTH 629 0
DWIDTH 21 0
BBX 19 30 1 0
BITMAP
002000
00F000
01FC00
03FE00
0F0700
000000
FFFFC0
1FFFC0
1F03C0
1F01C0
1F00C0
1F00C0
1F0040
1F0000
1F0200
1F0600
1F0600
1FFE00
1FFE00
1F0600
1F0200
1F0200
1F0000
1F0020
1F0060
1F0060
1F00E0
1F81E0
1FFFE0
FFFFE0
ENDCHAR
STARTCHAR Edieresis
ENCODING 203
SWIDTH 629 0
DWIDTH 21 0
BBX 19 29 1 0
BITMAP
0E0700
1F0F80
1F0F80
1F0F80
0E0700
FFFFC0
1FFFC0
1F03C0
1F01C0
1F00C0
1F00C0
1F0040
1F0000
1F0200
1F0600
1F0600
1FFE00
1FFE00
1F0600
1F0200
1F0200
1F0000
1F0020
1F0060
1F0060
1F00E0
1F81E0
1FFFE0
FFFFE0
ENDCHAR
STARTCHAR Igrave
ENCODING 204
SWIDTH 384 0
DWIDTH 13 0
BBX 11 31 1 0
BITMAP
4000
F000
F800
7E00
1F00
0380
0000
FFE0
1F00
1F00
1F00
1F00
1F00
1F00
1F00
1F00
1F00
1F00
1F00
1F00
1F00
1F00
1F00
1F00
1F00
1F00
1F00
1F00
1F00
1F00
FFE0
ENDCHAR
STARTCHAR Iacute
ENCODING 205
SWIDTH 384 0
DWIDTH 13 0
BBX 11 31 1 0
BITMAP
00C0
01E0
07E0
0FC0
1E00
3800
0000
FFE0
1F00
1F00
1F00
1F00
1F00
1F00
1F00
1F00
1F00
1F00
1F00
1F00
1F00
1F00
1F00
1F00
1F00
1F00
1F00
1F00
1F00
1F00
FFE0
ENDCHAR
STARTCHAR Icircumflex
ENCODING 206
SWIDTH 384 0
DWIDTH 13 0
BBX 13 30 0 0
BITMAP
0200
0F80
1FC0
3FE0
F078
0000
7FF0
0F80
0F80
0F80
0F80
0F80
0F80
0F80
0F80
0F80
0F80
0F80
0F80
0F80
0F80
0F80
0F80
0F80
0F80
0F80
0F80
0F80
0F80
7FF0
ENDCHAR
STARTCHAR Idieresis
ENCODING 207
SWIDTH 384 0
DWIDTH 13 0
BBX 13 29 0 0
BITMAP
7070
F8F8
F8F8
F8F8
7070
7FF0
0F80
0F80
0F80
0F80
0F80
0F80
0F80
0F80
0F80
0F80
0F80
0F80
0F80
0F80
0F80
0F80
0F80
0F80
0F80
0F80
0F80
0F80
7FF0
ENDCHAR
STARTCHAR Eth
ENCODING 208
SWIDTH 783 0
DWIDTH 26 0
BBX 24 24 1 0
BITMAP
FFFC00
1FFFC0
1F03F0
1F01F8
1F00FC
1F007C
1F007E
1F007E
1F003E
1F003F
1F003F
FFF83F
FFF83F
1F003F
1F003F
1F003F
1F003E
1F007E
1F007C
1F00FC
1F00F8
1F03F0
1FFFC0
FFFE00
ENDCHAR
STARTCHAR Ntilde
ENCODING 209
SWIDTH 739 0
DWIDTH 25 0
BBX 22 29 1 0
BITMAP
01C060
03F840
07FFC0
041F80
0C0700
FF01FC
1F8078
1F8030
1FC030
1FE030
1BE030
1BF030
19F030
18F830
18FC30
187C30
187E30
183E30
183F30
181FB0
180FB0
180FF0
1807F0
1807F0
1803F0
1801F0
1801F0
3C00F0
7F00F0
ENDCHAR
STARTCHAR Ograve
ENCODING 210
SWIDTH 768 0
DWIDTH 26 0
BBX 23 30 1 0
BITMAP
038000
07E000
03F000
01F800
001E00
000200
007C00
03FF80
0FC7E0
1F01F0
3E00F8
3E00F8
7E00FC
7E00FC
7C007C
FC007E
FC007E
FC007E
FC007E
FC007E
FC007E
7C007C
7C007C
7E00FC
3E00F8
3E00F8
1F01F0
0FC7E0
03FF80
007C00
ENDCHAR
STARTCHAR Oacute
ENCODING 211
SWIDTH 768 0
DWIDTH 26 0
BBX 23 30 1 0
BITMAP
000380
000FC0
001F80
003E00
00F000
008000
007C00
03FF80
0FC7E0
1F01F0
3E00F8
3E00F8
7E00FC
7E00FC
7C007C
FC007E
FC007E
FC007E
FC007E
FC007E
FC007E
7C007C
7C007C
7E00FC
3E00F8
3E00F8
1F01F0
0FC7E0
03FF80
007C00
ENDCHAR
STARTCHAR Ocircumflex
ENCODING 212
SWIDTH 768 0
DWIDTH 26 0
BBX 23 30 1 0
BITMAP
001000
007C00
00FE00
01FF00
038380
060040
007C00
03FF80
0FC7E0
1F01F0
3E00F8
3E00F8
7E00FC
7E00FC
7C007C
FC007E
FC007E
FC007E
FC007E
FC007E
FC007E
7C007C
7C007C
7E00FC
3E00F8
3E00F8
1F01F0
0FC7E0
03FF80
007C00
ENDCHAR
STARTCHAR Otilde
ENCODING 213
SWIDTH 768 0
DWIDTH 26 0
BBX 23 29 1 0
BITMAP
01E060
03F840
07FFC0
041F80
0C0700
007C00
03FF80
0FC7E0
1F01F0
3E00F8
3E00F8
7E00FC
7E00FC
7C007C
FC007E
FC007E
FC007E
FC007E
FC007E
FC007E
7C007C
7C007C
7E00FC
3E00F8
3E00F8
1F01F0
0FC7E0
03FF80
007C00
ENDCHAR
STARTCHAR Odieresis
ENCODING 214
SWIDTH 768 0
DWIDTH 26 0
BBX 23 29 1 0
BITMAP
0381C0
07C3E0
07C3E0
07C3E0
0381C0
007C00
03FF80
0FC7E0
1F01F0
3E00F8
3E00F8
7E00FC
7E00FC
7C007C
FC007E
FC007E
FC007E
FC007E
FC007E
FC007E
7C007C
7C007C
7E00FC
3E00F8
3E00F8
1F01F0
0FC7E0
03FF80
007C00
ENDCHAR
STARTCHAR multiply
ENCODING 215
SWIDTH 600 0
DWIDTH 20 0
BBX 15 15 3 1
BITMAP
4008
600C
F01E
783C
3C78
1EF0
0FE0
07C0
07C0
0EE0
1C70
3838
F01E
600C
4008
ENDCHAR
STARTCHAR Oslash
ENCODING 216
SWIDTH 768 0
DWIDTH 26 0
BBX 23 26 1 -1
BITMAP
000060
007C60
03FFC0
0FC3E0
1F01F0
3E01F8
3E03FC
7E03FC
7E06FC
7C0E7C
FC0C7C
FC187E
FC187E
FC307E
FC307E
7C607E
7CC07C
7EC07C
7F80FC
3F80F8
3F00F8
1F01F0
0F87E0
0FFF80
0C3C00
180000
ENDCHAR
STARTCHAR Ugrave
ENCODING 217
SWIDTH 786 0
DWIDTH 26 0
BBX 23 31 2 0
BITMAP
030000
078000
07E000
03F000
007C00
000E00
000000
FFC7FE
3E00F8
3E00F8
3E00F8
3E00F8
3E00F8
3E00F8
3E00F8
3E00F8
3E00F8
3E00F8
3E00F8
3E00F8
3E00F8
3E00F8
3E00F8
3E00F8
3E00F8
3E00F0
1F01F0
1F01F0
0F83E0
07FF80
00FC00
ENDCHAR
STARTCHAR Uacute
ENCODING 218
SWIDTH 786 0
DWIDTH 26 0
BBX 23 31 2 0
BITMAP
000180
0003C0
000FC0
001F80
007C00
00E000
000000
FFC7FE
3E00F8
3E00F8
3E00F8
3E00F8
3E00F8
3E00F8
3E00F8
3E00F8
3E00F8
3E00F8
3E00F8
3E00F8
3E00F8
3E00F8
3E00F8
3E00F8
3E00F8
3E00F0
1F01F0
1F01F0
0F83E0
07FF80
00FC00
ENDCHAR
STARTCHAR Ucircumflex
ENCODING 219
SWIDTH 786 0
DWIDTH 26 0
BBX 23 30 2 0
BITMAP
001000
007C00
00FE00
01FF00
0783C0
000000
FFC7FE
3E00F8
3E00F8
3E00F8
3E00F8
3E00F8
3E00F8
3E00F8
3E00F8
3E00F8
3E00F8
3E00F8
3E00F8
3E00F8
3E00F8
3E00F8
3E00F8
3E00F8
3E00F0
1F01F0
1F01F0
0F83E0
07FF80
00FC00
ENDCHAR
STARTCHAR Udieresis
ENCODING 220
SWIDTH 786 0
DWIDTH 26 0
BBX 23 29 2 0
BITMAP
070380
0F87C0
0F87C0
0F87C0
070380
FFC7FE
3E00F8
3E00F8
3E00F8
3E00F8
3E00F8
3E00F8
3E00F8
3E00F8
3E00F8
3E00F8
3E00F8
3E00F8
3E00F8
3E00F8
3E00F8
3E00F8
3E00F8
3E00F0
1F01F0
1F01F0
0F83E0
07FF80
00FC00
ENDCHAR
STARTCHAR Yacute
ENCODING 221
SWIDTH 617 0
DWIDTH 21 0
BBX 22 31 0 0
BITMAP
000180
000780
000FC0
003F00
007C00
00E000
000000
FFC3FC
3F00F0
1F00E0
1F80C0
0F81C0
0F8180
0FC380
07C300
07C700
03E600
03E600
01FC00
01FC00
01F800
00F800
00F800
00F800
00F800
00F800
00F800
00F800
00F800
00F800
07FF00
ENDCHAR
STARTCHAR Thorn
ENCODING 222
SWIDTH 640 0
DWIDTH 21 0
BBX 20 24 1 0
BITMAP
FFE000
1F0000
1F0000
1F0000
1F0000
1FFE00
1FFF80
1F0FC0
1F07E0
1F03E0
1F03F0
1F03F0
1F03F0
1F03E0
1F07E0
1F0FC0
1FFF80
1FF800
1F0000
1F0000
1F0000
1F0000
1F0000
FFE000
ENDCHAR
STARTCHAR germandbls
ENCODING 223
SWIDTH 662 0
DWIDTH 22 0
BBX 20 25 1 0
BITMAP
00F000
03FE00
0F9F80
1F0F80
1F07C0
3E07C0
3E07C0
3E0780
3E0600
3E3C00
3E3C00
3E7C00
3E7E00
3E3F00
3E3F80
3E1FC0
3E0FE0
3E07F0
3E03F0
3E01F0
3E00F0
3E38F0
3E3CE0
3E3FC0
FF8700
ENDCHAR
STARTCHAR agrave
ENCODING 224
SWIDTH 544 0
DWIDTH 18 0
BBX 18 25 1 0
BITMAP
100000
3C0000
3E0000
1F0000
0F8000
03C000
00E000
002000
07E000
3FFC00
7C7C00
7C3E00
F83E00
703E00
00FE00
07FE00
1E3E00
7C3E00
783E00
F83E00
F83E00
7C7E00
7FFF00
7F9FC0
1C0C00
ENDCHAR
STARTCHAR aacute
ENCODING 225
SWIDTH 544 0
DWIDTH 18 0
BBX 18 25 1 0
BITMAP
000800
001C00
003E00
007C00
00F000
03C000
070000
040000
07E000
3FFC00
7C7C00
7C3E00
F83E00
703E00
00FE00
07FE00
1E3E00
7C3E00
783E00
F83E00
F83E00
7C7E00
7FFF00
7F9FC0
1C0C00
ENDCHAR
STARTCHAR acircumflex
ENCODING 226
SWIDTH 544 0
DWIDTH 18 0
BBX 18 25 1 0
BITMAP
018000
03C000
07E000
0FF000
0E7800
181800
300E00
200400
07E000
3FFC00
7C7C00
7C3E00
F83E00
703E00
00FE00
07FE00
1E3E00
7C3E00
783E00
F83E00
F83E00
7C7E00
7FFF00
7F9FC0
1C0C00
ENDCHAR
STARTCHAR atilde
ENCODING 227
SWIDTH 544 0
DWIDTH 18 0
BBX 18 24 1 0
BITMAP
0E0200
1F8600
3FFC00
61FC00
203800
000000
000000
07E000
3FFC00
7C7C00
7C3E00
F83E00
703E00
00FE00
07FE00
1E3E00
7C3E00
783E00
F83E00
F83E00
7C7E00
7FFF00
7F9FC0
1C0C00
ENDCHAR
STARTCHAR adieresis
ENCODING 228
SWIDTH 544 0
DWIDTH 18 0
BBX 18 24 1 0
BITMAP
1C1C00
3E3E00
3E3E00
3E3E00
1C1C00
000000
000000
07E000
3FFC00
7C7C00
7C3E00
F83E00
703E00
00FE00
07FE00
1E3E00
7C3E00
783E00
F83E00
F83E00
7C7E00
7FFF00
7F9FC0
1C0C00
ENDCHAR
STARTCHAR aring
ENCODING 229
SWIDTH 544 0
DWIDTH 18 0
BBX 18 25 1 0
BITMAP
03C000
066000
0C3000
0C3000
0C3000
066000
03C000
000000
07E000
1FFC00
3C7C00
7C3E00
783E00
383E00
00FE00
03BE00
1E3E00
783E00
783E00
F83E00
F83E00
7C7E00
7FFF00
7F9FC0
1C0C00
ENDCHAR
STARTCHAR ae
ENCODING 230
SWIDTH 806 0
DWIDTH 27 0
BBX 25 17 1 0
BITMAP
07C07000
3FF3FC00
7C7F1E00
7C3F0F00
F83E0F00
703E0F80
107E0F80
03FFFF80
0FBFFF80
3C3E0000
783E0000
F83F0000
F83F0180
7C7F8300
7FEFFE00
7F83FC00
1C00F000
ENDCHAR
STARTCHAR ccedilla
ENCODING 231
SWIDTH 494 0
DWIDTH 16 0
BBX 16 25 1 -8
BITMAP
01E0
0FFC
3E3E
3C1F
7C1E
780C
F800
F800
F800
F800
F800
FC03
7C02
7F06
3FFC
1FF8
03C0
0180
0380
07C0
07E0
01F0
00F0
01E0
0FC0
ENDCHAR
STARTCHAR egrave
ENCODING 232
SWIDTH 519 0
DWIDTH 17 0
BBX 16 25 1 0
BITMAP
1000
1C00
3E00
1F00
0F80
01C0
0070
0010
03C0
0FF8
3E3C
3C1E
781E
781F
F81F
FFFF
FFFF
F800
F800
FC00
7C03
7E06
3FFC
1FF8
03E0
ENDCHAR
STARTCHAR eacute
ENCODING 233
SWIDTH 519 0
DWIDTH 17 0
BBX 16 25 1 0
BITMAP
0008
001C
003E
007C
00F0
03C0
0700
0400
03C0
0FF8
3E3C
3C1E
781E
781F
F81F
FFFF
FFFF
F800
F800
FC00
7C03
7E06
3FFC
1FF8
03E0
ENDCHAR
STARTCHAR ecircumflex
ENCODING 234
SWIDTH 519 0
DWIDTH 17 0
BBX 16 25 1 0
BITMAP
0080
03C0
07E0
0FF0
0E38
181C
300E
2004
03C0
0FF8
3E3C
3C1E
781E
781F
F81F
FFFF
FFFF
F800
F800
FC00
7C03
7E06
3FFC
1FF8
03E0
ENDCHAR
STARTCHAR edieresis
ENCODING 235
SWIDTH 519 0
DWIDTH 17 0
BBX 16 24 1 0
BITMAP
1C1C
3E3E
3E3E
3E3E
1C1C
0000
0000
03C0
0FF8
3E3C
3C1E
781E
781F
F81F
FFFF
FFFF
F800
F800
FC00
7C03
7E06
3FFC
1FF8
03E0
ENDCHAR
STARTCHAR igrave
ENCODING 236
SWIDTH 316 0
DWIDTH 11 0
BBX 11 25 -1 0
BITMAP
6000
F800
7C00
3C00
1E00
0700
0180
0080
0380
3F80
1F80
0F80
0F80
0F80
0F80
0F80
0F80
0F80
0F80
0F80
0F80
0F80
0F80
0F80
3FE0
ENDCHAR
STARTCHAR iacute
ENCODING 237
SWIDTH 316 0
DWIDTH 11 0
BBX 10 25 1 0
BITMAP
0180
03C0
07C0
0F80
1E00
3800
6000
4000
0E00
FE00
7E00
3E00
3E00
3E00
3E00
3E00
3E00
3E00
3E00
3E00
3E00
3E00
3E00
3E00
FF80
ENDCHAR
STARTCHAR icircumflex
ENCODING 238
SWIDTH 316 0
DWIDTH 11 0
BBX 12 25 -1 0
BITMAP
0200
0700
0F80
1FC0
38E0
7070
C030
0000
0380
3F80
1F80
0F80
0F80
0F80
0F80
0F80
0F80
0F80
0F80
0F80
0F80
0F80
0F80
0F80
3FE0
ENDCHAR
STARTCHAR idieresis
ENCODING 239
SWIDTH 316 0
DWIDTH 11 0
BBX 13 24 -1 0
BITMAP
7070
F8F8
F8F8
F8F8
7070
0000
0000
0380
3F80
1F80
0F80
0F80
0F80
0F80
0F80
0F80
0F80
0F80
0F80
0F80
0F80
0F80
0F80
3FE0
ENDCHAR
STARTCHAR eth
ENCODING 240
SWIDTH 585 0
DWIDTH 20 0
BBX 17 25 1 0
BITMAP
380000
1C0600
0F1800
07E000
07E000
1FF000
30F800
007C00
03FC00
1FFE00
3E3F00
7C1F00
7C1F00
F80F00
F80F80
F80F80
F80F80
F80F80
F80F80
F80F80
7C1F00
7C1F00
3E3E00
1FFC00
03E000
ENDCHAR
STARTCHAR ntilde
ENCODING 241
SWIDTH 638 0
DWIDTH 21 0
BBX 20 24 1 0
BITMAP
038080
07E180
0FFF00
187F00
080C00
000000
000000
0E0E00
FE7F80
7FFF80
3F0FC0
3E07C0
3E07C0
3E07C0
3E07C0
3E07C0
3E07C0
3E07C0
3E07C0
3E07C0
3E07C0
3E07C0
3E07C0
FF9FF0
ENDCHAR
STARTCHAR ograve
ENCODING 242
SWIDTH 585 0
DWIDTH 20 0
BBX 17 25 1 0
BITMAP
100000
1C0000
3E0000
1F0000
078000
03C000
00F000
002000
03E000
1FFC00
3E3E00
7C1F00
7C1F00
F80F80
F80F80
F80F80
F80F80
F80F80
F80F80
F80F80
7C1F00
7C1F00
3E3E00
1FFC00
03E000
ENDCHAR
STARTCHAR oacute
ENCODING 243
SWIDTH 585 0
DWIDTH 20 0
BBX 17 25 1 0
BITMAP
000800
001C00
003E00
007C00
00F000
01C000
078000
020000
03E000
1FFC00
3E3E00
7C1F00
7C1F00
F80F80
F80F80
F80F80
F80F80
F80F80
F80F80
F80F80
7C1F00
7C1F00
3E3E00
1FFC00
03E000
ENDCHAR
STARTCHAR ocircumflex
ENCODING 244
SWIDTH 585 0
DWIDTH 20 0
BBX 17 25 1 0
BITMAP
008000
01C000
03E000
07F000
0E3800
1C1C00
300600
100200
03E000
1FFC00
3E3E00
7C1F00
7C1F00
F80F80
F80F80
F80F80
F80F80
F80F80
F80F80
F80F80
7C1F00
7C1F00
3E3E00
1FFC00
03E000
ENDCHAR
STARTCHAR otilde
ENCODING 245
SWIDTH 585 0
DWIDTH 20 0
BBX 17 24 1 0
BITMAP
0F0300
1FC200
1FFE00
30FC00
203800
000000
000000
03E000
1FFC00
3E3E00
7C1F00
7C1F00
F80F80
F80F80
F80F80
F80F80
F80F80
F80F80
F80F80
7C1F00
7C1F00
3E3E00
1FFC00
03E000
ENDCHAR
STARTCHAR odieresis
ENCODING 246
SWIDTH 585 0
DWIDTH 20 0
BBX 17 24 1 0
BITMAP
1C1C00
3E3E00
3E3E00
3E3E00
1C1C00
000000
000000
03E000
1FFC00
3E3E00
7C1F00
7C1F00
F80F80
F80F80
F80F80
F80F80
F80F80
F80F80
F80F80
7C1F00
7C1F00
3E3E00
1FFC00
03E000
ENDCHAR
STARTCHAR divide
ENCODING 247
SWIDTH 600 0
DWIDTH 20 0
BBX 17 17 2 0
BITMAP
008000
01C000
03E000
01C000
008000
000000
000000
FFFF80
FFFF80
FFFF80
000000
000000
008000
01C000
03E000
01C000
008000
ENDCHAR
STARTCHAR oslash
ENCODING 248
SWIDTH 585 0
DWIDTH 20 0
BBX 17 19 1 -1
BITMAP
000600
03C400
1FFC00
3E3E00
7C1F00
7C3F00
F86F00
F86F80
F8CF80
F98F80
F98F80
FB0F80
7E0F80
7E1F00
3C1F00
3E3E00
1FFC00
31E000
300000
ENDCHAR
STARTCHAR ugrave
ENCODING 249
SWIDTH 629 0
DWIDTH 21 0
BBX 19 25 1 0
BITMAP
080000
1E0000
1F0000
0F8000
03C000
01E000
007000
001000
0E0380
FE3F80
7E0F80
3E0F80
3E0F80
3E0F80
3E0F80
3E0F80
3E0F80
3E0F80
3E0F80
3E0F80
3E0F80
3F1F80
1FFF80
1FE780
070FE0
ENDCHAR
STARTCHAR uacute
ENCODING 250
SWIDTH 629 0
DWIDTH 21 0
BBX 19 25 1 0
BITMAP
000200
000F00
001F00
003E00
007800
00F000
01C000
010000
0E0380
FE3F80
7E0F80
3E0F80
3E0F80
3E0F80
3E0F80
3E0F80
3E0F80
3E0F80
3E0F80
3E0F80
3E0F80
3F1F80
1FFF80
1FE780
070FE0
ENDCHAR
STARTCHAR ucircumflex
ENCODING 251
SWIDTH 629 0
DWIDTH 21 0
BBX 19 25 1 0
BITMAP
004000
00E000
01F000
03F800
071C00
0E0E00
0C0300
000000
0E0380
FE3F80
7E0F80
3E0F80
3E0F80
3E0F80
3E0F80
3E0F80
3E0F80
3E0F80
3E0F80
3E0F80
3E0F80
3F1F80
1FFF80
1FE780
070FE0
ENDCHAR
STARTCHAR udieresis
ENCODING 252
SWIDTH 629 0
DWIDTH 21 0
BBX 19 24 1 0
BITMAP
0E0E00
1F1F00
1F1F00
1F1F00
0E0E00
000000
000000
0E0380
FE3F80
7E0F80
3E0F80
3E0F80
3E0F80
3E0F80
3E0F80
3E0F80
3E0F80
3E0F80
3E0F80
3E0F80
3F1F80
1FFF80
1FE780
070FE0
ENDCHAR
STARTCHAR yacute
ENCODING 253
SWIDTH 524 0
DWIDTH 17 0
BBX 20 33 -1 -8
BITMAP
000180
0007C0
000F80
001F00
003C00
007000
00E000
000000
FFC7F0
3F01C0
1F01C0
1F0180
1F8380
0F8300
0FC300
07C700
07C600
07E600
03EC00
03FC00
01FC00
01F800
01F800
00F800
00F000
00F000
00E000
006000
0CC000
1FC000
1F8000
1F8000
0E0000
ENDCHAR
STARTCHAR thorn
ENCODING 254
SWIDTH 609 0
DWIDTH 20 0
BBX 18 33 1 -8
BITMAP
0E0000
FE0000
FE0000
3E0000
3E0000
3E0000
3E0000
3E0000
3E1C00
3EFE00
3FFF00
3F0F80
3E0F80
3E07C0
3E07C0
3E07C0
3E07C0
3E07C0
3E07C0
3E0780
3E0F80
3E0F80
3F1F00
3FFE00
3FF000
3E0000
3E0000
3E0000
3E0000
3E0000
3E0000
3E0000
FFC000
ENDCHAR
STARTCHAR ydieresis
ENCODING 255
SWIDTH 524 0
DWIDTH 17 0
BBX 20 32 -1 -8
BITMAP
070700
0F8F80
0F8F80
0F8F80
070700
000000
000000
FFC7F0
3F01C0
1F01C0
1F0180
1F8380
0F8300
0FC300
07C700
07C600
07E600
03EC00
03FC00
01FC00
01F800
01F800
00F000
00F000
00F000
006000
006000
0CC000
1F8000
3F8000
1F0000
0E0000
ENDCHAR
STARTCHAR Amacron
ENCODING 256
SWIDTH 644 0
DWIDTH 21 0
BBX 23 28 -1 0
BITMAP
01FF80
01FF80
01FF80
000000
003C00
007C00
007E00
007E00
00FE00
00FE00
00DF00
019F00
019F00
019F80
030F80
030F80
030FC0
0707C0
07FFC0
07FFE0
0E07E0
0C03E0
0C03E0
1C03F0
1C01F0
1801F0
3801F8
FF0FFE
ENDCHAR
STARTCHAR amacron
ENCODING 257
SWIDTH 544 0
DWIDTH 18 0
BBX 18 21 1 0
BITMAP
1FF800
1FF800
1FF800
000000
07E000
3FFC00
7C7C00
7C3E00
F83E00
703E00
00FE00
07FE00
1E3E00
7C3E00
783E00
F83E00
F83E00
7C7E00
7FFF00
7F9FC0
1C0C00
ENDCHAR
STARTCHAR Abreve
ENCODING 258
SWIDTH 644 0
DWIDTH 21 0
BBX 23 30 -1 0
BITMAP
010080
018180
00FF00
00FF00
003C00
000000
003C00
007C00
007E00
007E00
00FE00
00FE00
00DF00
019F00
019F00
019F80
030F80
030F80
030FC0
0707C0
07FFC0
07FFE0
0E07E0
0C03E0
0C03E0
1C03F0
1C01F0
1801F0
3801F8
FF0FFE
ENDCHAR
STARTCHAR abreve
ENCODING 259
SWIDTH 544 0
DWIDTH 18 0
BBX 18 23 1 0
BITMAP
100800
181800
0FF000
0FF000
03C000
000000
07E000
3FFC00
7C7C00
7C3E00
F83E00
703E00
00FE00
07FE00
1E3E00
7C3E00
783E00
F83E00
F83E00
7C7E00
7FFF00
7F9FC0
1C0C00
ENDCHAR
STARTCHAR Aogonek
ENCODING 260
SWIDTH 644 0
DWIDTH 21 0
BBX 23 32 -1 -8
BITMAP
003C00
007C00
007E00
007E00
00FE00
00FE00
00DF00
019F00
019F00
019F80
030F80
030F80
030FC0
0707C0
07FFC0
07FFE0
0E07E0
0C03E0
0C03E0
1C03F0
1C01F0
1801F0
3801F8
FF0FFE
000C00
001800
003000
003000
007000
007800
003F00
001C00
ENDCHAR
STARTCHAR aogonek
ENCODING 261
SWIDTH 544 0
DWIDTH 18 0
BBX 18 25 1 -8
BITMAP
07E000
3FFC00
7C7C00
7C3E00
F83E00
703E00
00FE00
07FE00
1E3E00
7C3E00
783E00
F83E00
F83E00
7C7E00
7FFF00
7F9FC0
1C2C00
00C000
018000
030000
030000
070000
078000
03F000
01C000
ENDCHAR
STARTCHAR Cacute
ENCODING 262
SWIDTH 689 0
DWIDTH 23 0
BBX 20 33 1 0
BITMAP
000200
000F00
001F00
003E00
007C00
00F000
01C000
010000
000000
001F80
03FFE0
07C0F0
1F8070
3F0030
3E0030
7E0010
7E0010
7C0000
FC0000
FC0000
FC0000
FC0000
FC0000
FC0000
7C0000
7E0010
7E0010
3E0030
3F0030
1F8070
0FE0F0
03FFE0
003F00
ENDCHAR
STARTCHAR cacute
ENCODING 263
SWIDTH 494 0
DWIDTH 16 0
BBX 15 26 1 0
BITMAP
0008
003C
007C
00F8
01F0
03C0
0700
0400
0000
03C0
0FF8
3C7C
3C3C
7C3C
7818
F800
F800
F800
F800
F800
FC06
7C0C
7E0C
3FF8
1FF0
0380
ENDCHAR
STARTCHAR Ccircumflex
ENCODING 264
SWIDTH 689 0
DWIDTH 23 0
BBX 20 33 1 0
BITMAP
004000
00F000
00F000
01F800
039C00
070E00
0C0300
080100
000000
001F80
03FFE0
07C0F0
1F8070
3F0030
3E0030
7E0010
7E0010
7C0000
FC0000
FC0000
FC0000
FC0000
FC0000
FC0000
7C0000
7E0010
7E0010
3E0030
3F0030
1F8070
0FE0F0
03FFE0
003F00
ENDCHAR
STARTCHAR ccircumflex
ENCODING 265
SWIDTH 494 0
DWIDTH 16 0
BBX 15 26 1 0
BITMAP
0100
03C0
03C0
07E0
0E70
1C38
300C
2004
0000
03C0
0FF8
3C7C
3C3C
7C3C
7818
F800
F800
F800
F800
F800
FC06
7C0C
7E0C
3FF8
1FF0
0380
ENDCHAR
STARTCHAR Cdotaccent
ENCODING 266
SWIDTH 689 0
DWIDTH 23 0
BBX 20 30 1 0
BITMAP
007000
00F800
00F800
00F800
007000
000000
001F80
03FFE0
07C0F0
1F8070
3F0030
3E0030
7E0010
7E0010
7C0000
FC0000
FC0000
FC0000
FC0000
FC0000
FC0000
7C0000
7E0010
7E0010
3E0030
3F0030
1F8070
0FE0F0
03FFE0
003F00
ENDCHAR
STARTCHAR cdotaccent
ENCODING 267
SWIDTH 494 0
DWIDTH 16 0
BBX 15 23 1 0
BITMAP
0380
07C0
07C0
07C0
0380
0000
03C0
0FF8
3C7C
3C3C
7C3C
7818
F800
F800
F800
F800
F800
FC06
7C0C
7E0C
3FF8
1FF0
0380
ENDCHAR
STARTCHAR Ccaron
ENCODING 268
SWIDTH 689 0
DWIDTH 23 0
BBX 20 33 1 0
BITMAP
080100
0C0300
070E00
039C00
01F800
00F000
00F000
004000
000000
001F80
03FFE0
07C0F0
1F8070
3F0030
3E0030
7E0010
7E0010
7C0000
FC0000
FC0000
FC0000
FC0000
FC0000
FC0000
7C0000
7E0010
7E0010
3E0030
3F0030
1F8070
0FE0F0
03FFE0
003F00
ENDCHAR
STARTCHAR ccaron
ENCODING 269
SWIDTH 494 0
DWIDTH 16 0
BBX 15 26 1 0
BITMAP
2004
300C
1C38
0E70
07E0
03C0
03C0
0100
0000
03C0
0FF8
3C7C
3C3C
7C3C
7818
F800
F800
F800
F800
F800
FC06
7C0C
7E0C
3FF8
1FF0
0380
ENDCHAR
STARTCHAR Dcaron
ENCODING 270
SWIDTH 777 0
DWIDTH 26 0
BBX 24 33 1 0
BITMAP
020040
0300C0
01C380
00E700
007E00
003C00
003C00
001000
000000
FFFC00
1FFFC0
1F03F0
1F01F8
1F00FC
1F007C
1F007E
1F003E
1F003E
1F003F
1F003F
1F003F
1F003F
1F003F
1F003F
1F003F
1F007E
1F007E
1F007E
1F00FC
1F01F8
1F03F0
1FFFC0
FFFE00
ENDCHAR
STARTCHAR dcaron
ENCODING 271
SWIDTH 827 0
DWIDTH 27 0
BBX 25 25 1 0
BITMAP
00038000
003F8600
001F8F00
000F8F00
000F8F80
000F8780
000F8700
000F8700
01CF8600
0FFF8C00
3E1F9800
3C0F8800
7C0F8000
780F8000
F80F8000
F80F8000
F80F8000
F80F8000
F80F8000
F80F8000
7C0F8000
7C0F8000
3E1F8000
1FEF8000
070FE000
ENDCHAR
STARTCHAR Dcroat
ENCODING 272
SWIDTH 783 0
DWIDTH 26 0
BBX 24 24 1 0
BITMAP
FFFC00
1FFFC0
1F03F0
1F01F8
1F00FC
1F007C
1F007E
1F007E
1F003E
1F003F
1F003F
FFF83F
FFF83F
1F003F
1F003F
1F003F
1F003E
1F007E
1F007C
1F00FC
1F00F8
1F03F0
1FFFC0
FFFE00
ENDCHAR
STARTCHAR dcroat
ENCODING 273
SWIDTH 605 0
DWIDTH 20 0
BBX 20 25 1 0
BITMAP
000380
003F80
001F80
000F80
000F80
000F80
000F80
007FF0
01FFF0
0FFF80
3E1F80
3C0F80
7C0F80
780F80
F80F80
F80F80
F80F80
F80F80
F80F80
F80F80
7C0F80
7C0F80
3E1F80
1FEF80
070FE0
ENDCHAR
STARTCHAR Emacron
ENCODING 274
SWIDTH 629 0
DWIDTH 21 0
BBX 19 28 1 0
BITMAP
0FFC00
0FFC00
0FFC00
000000
FFFFC0
1FFFC0
1F03C0
1F01C0
1F00C0
1F00C0
1F0040
1F0000
1F0200
1F0600
1F0600
1FFE00
1FFE00
1F0600
1F0200
1F0200
1F0000
1F0020
1F0060
1F0060
1F00E0
1F81E0
1FFFE0
FFFFE0
ENDCHAR
STARTCHAR emacron
ENCODING 275
SWIDTH 519 0
DWIDTH 17 0
BBX 16 21 1 0
BITMAP
1FF8
1FF8
1FF8
0000
03C0
0FF8
3E3C
3C1E
781E
781F
F81F
FFFF
FFFF
F800
F800
FC00
7C03
7E06
3FFC
1FF8
03E0
ENDCHAR
STARTCHAR Ebreve
ENCODING 276
SWIDTH 629 0
DWIDTH 21 0
BBX 19 30 1 0
BITMAP
080400
0C0C00
07F800
07F800
01E000
000000
FFFFC0
1FFFC0
1F03C0
1F01C0
1F00C0
1F00C0
1F0040
1F0000
1F0200
1F0600
1F0600
1FFE00
1FFE00
1F0600
1F0200
1F0200
1F0000
1F0020
1F0060
1F0060
1F00E0
1F81E0
1FFFE0
FFFFE0
ENDCHAR
STARTCHAR ebreve
ENCODING 277
SWIDTH 519 0
DWIDTH 17 0
BBX 16 23 1 0
BITMAP
1008
1818
0FF0
0FF0
03C0
0000
03C0
0FF8
3E3C
3C1E
781E
781F
F81F
FFFF
FFFF
F800
F800
FC00
7C03
7E06
3FFC
1FF8
03E0
ENDCHAR
STARTCHAR Edotaccent
ENCODING 278
SWIDTH 629 0
DWIDTH 21 0
BBX 19 30 1 0
BITMAP
00E000
01F000
01F000
01F000
00E000
000000
FFFFC0
1FFFC0
1F03C0
1F01C0
1F00C0
1F00C0
1F0040
1F0000
1F0200
1F0600
1F0600
1FFE00
1FFE00
1F0600
1F0200
1F0200
1F0000
1F0020
1F0060
1F0060
1F00E0
1F81E0
1FFFE0
FFFFE0
ENDCHAR
STARTCHAR edotaccent
ENCODING 279
SWIDTH 519 0
DWIDTH 17 0
BBX 16 23 1 0
BITMAP
01C0
03E0
03E0
03E0
01C0
0000
03C0
0FF8
3E3C
3C1E
781E
781F
F81F
FFFF
FFFF
F800
F800
FC00
7C03
7E06
3FFC
1FF8
03E0
ENDCHAR
STARTCHAR Eogonek
ENCODING 280
SWIDTH 629 0
DWIDTH 21 0
BBX 19 32 1 -8
BITMAP
FFFFC0
1FFFC0
1F03C0
1F01C0
1F00C0
1F00C0
1F0040
1F0000
1F0200
1F0600
1F0600
1FFE00
1FFE00
1F0600
1F0200
1F0200
1F0000
1F0020
1F0060
1F0060
1F00E0
1F81E0
1FFFE0
FFFFE0
006000
00C000
018000
018000
038000
03C000
01F800
00E000
ENDCHAR
STARTCHAR eogonek
ENCODING 281
SWIDTH 519 0
DWIDTH 17 0
BBX 16 25 1 -8
BITMAP
03C0
0FF8
3E3C
3C1E
781E
781F
F81F
FFFF
FFFF
F800
F800
FC00
7C03
7E06
3FFC
1FF8
03E0
0180
0300
0600
0600
0E00
0F00
07E0
0380
ENDCHAR
STARTCHAR Ecaron
ENCODING 282
SWIDTH 629 0
DWIDTH 21 0
BBX 19 33 1 0
BITMAP
100200
180600
0E1C00
073800
03F000
01E000
01E000
008000
000000
FFFFC0
1FFFC0
1F03C0
1F01C0
1F00C0
1F00C0
1F0040
1F0000
1F0200
1F0600
1F0600
1FFE00
1FFE00
1F0600
1F0200
1F0200
1F0000
1F0020
1F0060
1F0060
1F00E0
1F81E0
1FFFE0
FFFFE0
ENDCHAR
STARTCHAR ecaron
ENCODING 283
SWIDTH 519 0
DWIDTH 17 0
BBX 16 26 1 0
BITMAP
2004
300C
1C38
0E70
07E0
03C0
03C0
0100
0000
03C0
0FF8
3E3C
3C1E
781E
781F
F81F
FFFF
FFFF
F800
F800
FC00
7C03
7E06
3FFC
1FF8
03E0
ENDCHAR
STARTCHAR Gcircumflex
ENCODING 284
SWIDTH 726 0
DWIDTH 24 0
BBX 23 33 1 0
BITMAP
002000
007800
007800
00FC00
01CE00
038700
060180
040080
000000
007F80
03FFE0
0FC0F0
1F8070
3F0070
3F0030
7E0030
7E0010
FC0000
FC0000
FC0000
FC0000
FC0000
FC0000
FC07FE
FC00F8
7C00F8
7E00F8
7E00F8
3F00F8
1F80F8
0FC0F8
03FFF0
007F00
ENDCHAR
STARTCHAR gcircumflex
ENCODING 285
SWIDTH 533 0
DWIDTH 18 0
BBX 17 34 1 -8
BITMAP
010000
03C000
03C000
07E000
0E7000
1C3800
300C00
200400
000000
078180
1FFF80
7C7F00
7C3C00
F83E00
F83E00
F83E00
7C3C00
7C7C00
1FF800
0FC000
380000
380000
7FF800
7FFE00
3FFF00
1FFF80
3C0F80
780780
F80780
F80700
7C0700
7E1E00
3FFC00
07E000
ENDCHAR
STARTCHAR Gbreve
ENCODING 286
SWIDTH 726 0
DWIDTH 24 0
BBX 23 30 1 0
BITMAP
020100
030300
01FE00
01FE00
007800
000000
007F80
03FFE0
0FC0F0
1F8070
3F0070
3F0030
7E0030
7E0010
FC0000
FC0000
FC0000
FC0000
FC0000
FC0000
FC07FE
FC00F8
7C00F8
7E00F8
7E00F8
3F00F8
1F80F8
0FC0F8
03FFF0
007F00
ENDCHAR
STARTCHAR gbreve
ENCODING 287
SWIDTH 533 0
DWIDTH 18 0
BBX 17 31 1 -8
BITMAP
100800
181800
0FF000
0FF000
03C000
000000
078180
1FFF80
7C7F00
7C3C00
F83E00
F83E00
F83E00
7C3C00
7C7C00
1FF800
0FC000
380000
380000
7FF800
7FFE00
3FFF00
1FFF80
3C0F80
780780
F80780
F80700
7C0700
7E1E00
3FFC00
07E000
ENDCHAR
STARTCHAR Gdotaccent
ENCODING 288
SWIDTH 726 0
DWIDTH 24 0
BBX 23 30 1 0
BITMAP
007000
00F800
00F800
00F800
007000
000000
007F80
03FFE0
0FC0F0
1F8070
3F0070
3F0030
7E0030
7E0010
FC0000
FC0000
FC0000
FC0000
FC0000
FC0000
FC07FE
FC00F8
7C00F8
7E00F8
7E00F8
3F00F8
1F80F8
0FC0F8
03FFF0
007F00
ENDCHAR
STARTCHAR gdotaccent
ENCODING 289
SWIDTH 533 0
DWIDTH 18 0
BBX 17 31 1 -8
BITMAP
01C000
03E000
03E000
03E000
01C000
000000
078180
1FFF80
7C7F00
7C3C00
F83E00
F83E00
F83E00
7C3C00
7C7C00
1FF800
0FC000
380000
380000
7FF800
7FFE00
3FFF00
1FFF80
3C0F80
780780
F80780
F80700
7C0700
7E1E00
3FFC00
07E000
ENDCHAR
STARTCHAR Gcommaaccent
ENCODING 290
SWIDTH 726 0
DWIDTH 24 0
BBX 23 37 1 -13
BITMAP
007F80
03FFE0
0FC0F0
1F8070
3F0070
3F0030
7E0030
7E0010
FC0000
FC0000
FC0000
FC0000
FC0000
FC0000
FC07FE
FC00F8
7C00F8
7E00F8
7E00F8
3F00F8
1F80F8
0FC0F8
03FFF0
007F00
000000
001800
003C00
003C00
003E00
003E00
001E00
001C00
001C00
001800
003000
006000
002000
ENDCHAR
STARTCHAR gcommaaccent
ENCODING 291
SWIDTH 533 0
DWIDTH 18 0
BBX 17 37 1 -8
BITMAP
004000
006000
00C000
018000
038000
038000
078000
07C000
03C000
03C000
018000
000000
078180
1FFF80
7C7F00
7C3C00
F83E00
F83E00
F83E00
7C3C00
7C7C00
1FF800
0FC000
380000
380000
7FF800
7FFE00
3FFF00
1FFF80
3C0F80
780780
F80780
F80700
7C0700
7E1E00
3FFC00
07E000
ENDCHAR
STARTCHAR Hcircumflex
ENCODING 292
SWIDTH 807 0
DWIDTH 27 0
BBX 25 33 1 0
BITMAP
00080000
001E0000
001E0000
003F0000
00738000
00E1C000
01806000
01002000
00000000
FFE3FF80
1F007C00
1F007C00
1F007C00
1F007C00
1F007C00
1F007C00
1F007C00
1F007C00
1F007C00
1F007C00
1FFFFC00
1FFFFC00
1F007C00
1F007C00
1F007C00
1F007C00
1F007C00
1F007C00
1F007C00
1F007C00
1F007C00
1F007C00
FFE3FF80
ENDCHAR
STARTCHAR hcircumflex
ENCODING 293
SWIDTH 631 0
DWIDTH 21 0
BBX 20 34 1 0
BITMAP
040000
0F0000
0F0000
1F8000
39C000
70E000
C03000
801000
000000
0E0000
FE0000
7E0000
3E0000
3E0000
3E0000
3E0000
3E0000
3E1E00
3E7F80
3FFF80
3F0FC0
3E07C0
3E07C0
3E07C0
3E07C0
3E07C0
3E07C0
3E07C0
3E07C0
3E07C0
3E07C0
3E07C0
3E07C0
FF9FF0
ENDCHAR
STARTCHAR Hbar
ENCODING 294
SWIDTH 807 0
DWIDTH 27 0
BBX 25 24 1 0
BITMAP
FFE3FF80
1F007C00
1F007C00
1F007C00
1F007C00
1F007C00
1F007C00
FFFFFF80
FFFFFF80
1F007C00
1F007C00
1FFFFC00
1FFFFC00
1F007C00
1F007C00
1F007C00
1F007C00
1F007C00
1F007C00
1F007C00
1F007C00
1F007C00
1F007C00
FFE3FF80
ENDCHAR
STARTCHAR hbar
ENCODING 295
SWIDTH 631 0
DWIDTH 21 0
BBX 20 25 1 0
BITMAP
0E0000
FE0000
7E0000
3E0000
3E0000
3E0000
3E0000
FFE000
FFFE00
3E7F80
3FFF80
3F0FC0
3E07C0
3E07C0
3E07C0
3E07C0
3E07C0
3E07C0
3E07C0
3E07C0
3E07C0
3E07C0
3E07C0
3E07C0
FF9FF0
ENDCHAR
STARTCHAR Itilde
ENCODING 296
SWIDTH 384 0
DWIDTH 13 0
BBX 14 30 -1 0
BITMAP
0804
3F88
7FF8
47F0
8040
0000
3FF8
07C0
07C0
07C0
07C0
07C0
07C0
07C0
07C0
07C0
07C0
07C0
07C0
07C0
07C0
07C0
07C0
07C0
07C0
07C0
07C0
07C0
07C0
3FF8
ENDCHAR
STARTCHAR itilde
ENCODING 297
SWIDTH 316 0
DWIDTH 11 0
BBX 14 23 -2 0
BITMAP
0804
3F88
7FF8
47F0
8040
0000
01C0
1FC0
0FC0
07C0
07C0
07C0
07C0
07C0
07C0
07C0
07C0
07C0
07C0
07C0
07C0
07C0
1FF0
ENDCHAR
STARTCHAR Imacron
ENCODING 298
SWIDTH 384 0
DWIDTH 13 0
BBX 11 28 1 0
BITMAP
7FE0
7FE0
7FE0
0000
FFE0
1F00
1F00
1F00
1F00
1F00
1F00
1F00
1F00
1F00
1F00
1F00
1F00
1F00
1F00
1F00
1F00
1F00
1F00
1F00
1F00
1F00
1F00
FFE0
ENDCHAR
STARTCHAR imacron
ENCODING 299
SWIDTH 316 0
DWIDTH 11 0
BBX 10 21 0 0
BITMAP
FFC0
FFC0
FFC0
0000
0700
7F00
3F00
1F00
1F00
1F00
1F00
1F00
1F00
1F00
1F00
1F00
1F00
1F00
1F00
1F00
7FC0
ENDCHAR
STARTCHAR Ibreve
ENCODING 300
SWIDTH 384 0
DWIDTH 13 0
BBX 11 30 1 0
BITMAP
4020
6060
3FC0
3FC0
0F00
0000
FFE0
1F00
1F00
1F00
1F00
1F00
1F00
1F00
1F00
1F00
1F00
1F00
1F00
1F00
1F00
1F00
1F00
1F00
1F00
1F00
1F00
1F00
1F00
FFE0
ENDCHAR
STARTCHAR ibreve
ENCODING 301
SWIDTH 316 0
DWIDTH 11 0
BBX 10 23 0 0
BITMAP
8040
C0C0
7F80
7F80
1E00
0000
0700
7F00
3F00
1F00
1F00
1F00
1F00
1F00
1F00
1F00
1F00
1F00
1F00
1F00
1F00
1F00
7FC0
ENDCHAR
STARTCHAR Iogonek
ENCODING 302
SWIDTH 384 0
DWIDTH 13 0
BBX 11 32 1 -8
BITMAP
FFE0
1F00
1F00
1F00
1F00
1F00
1F00
1F00
1F00
1F00
1F00
1F00
1F00
1F00
1F00
1F00
1F00
1F00
1F00
1F00
1F00
1F00
1F00
FFE0
0600
0C00
1800
1800
3800
3C00
1F80
0E00
ENDCHAR
STARTCHAR iogonek
ENCODING 303
SWIDTH 316 0
DWIDTH 11 0
BBX 9 32 1 -8
BITMAP
1800
3E00
7E00
3E00
3E00
1800
0000
0E00
FE00
7E00
3E00
3E00
3E00
3E00
3E00
3E00
3E00
3E00
3E00
3E00
3E00
3E00
3E00
FF80
0C00
1800
3000
3000
7000
7800
3F00
1C00
ENDCHAR
STARTCHAR Idotaccent
ENCODING 304
SWIDTH 384 0
DWIDTH 13 0
BBX 11 30 1 0
BITMAP
0E00
1F00
1F00
1F00
0E00
0000
FFE0
1F00
1F00
1F00
1F00
1F00
1F00
1F00
1F00
1F00
1F00
1F00
1F00
1F00
1F00
1F00
1F00
1F00
1F00
1F00
1F00
1F00
1F00
FFE0
ENDCHAR
STARTCHAR dotlessi
ENCODING 305
SWIDTH 316 0
DWIDTH 11 0
BBX 9 17 1 0
BITMAP
0E00
FE00
7E00
3E00
3E00
3E00
3E00
3E00
3E00
3E00
3E00
3E00
3E00
3E00
3E00
3E00
FF80
ENDCHAR
STARTCHAR IJ
ENCODING 306
SWIDTH 751 0
DWIDTH 25 0
BBX 23 27 1 -3
BITMAP
FFEFFE
1F01F0
1F01F0
1F01F0
1F01F0
1F01F0
1F01F0
1F01F0
1F01F0
1F01F0
1F01F0
1F01F0
1F01F0
1F01F0
1F01F0
1F01F0
1F01F0
1F01F0
1F01F0
1F01F0
1F01F0
1F01E0
1F03E0
FFE3E0
0007C0
001F80
001000
ENDCHAR
STARTCHAR ij
ENCODING 307
SWIDTH 616 0
DWIDTH 21 0
BBX 18 32 1 -8
BITMAP
180300
3E0780
7E0FC0
3E0FC0
3E0780
180300
000000
0E0380
FE3F80
7E1F80
3E0F80
3E0F80
3E0F80
3E0F80
3E0F80
3E0F80
3E0F80
3E0F80
3E0F80
3E0F80
3E0F80
3E0F80
3E0F80
FF8F80
000F80
000F80
000F80
000F00
001F00
001F00
007E00
00E000
ENDCHAR
STARTCHAR Jcircumflex
ENCODING 308
SWIDTH 386 0
DWIDTH 13 0
BBX 12 36 0 -3
BITMAP
0400
0F00
0F00
1F80
39C0
70E0
C030
8010
0000
7FF0
0F80
0F80
0F80
0F80
0F80
0F80
0F80
0F80
0F80
0F80
0F80
0F80
0F80
0F80
0F80
0F80
0F80
0F80
0F80
0F80
0F00
1F00
1F00
3E00
FC00
8000
ENDCHAR
STARTCHAR jcircumflex
ENCODING 309
SWIDTH 316 0
DWIDTH 11 0
BBX 12 34 -1 -8
BITMAP
0400
0F00
0F00
1F80
39C0
70E0
C030
8010
0000
0380
3F80
1F80
0F80
0F80
0F80
0F80
0F80
0F80
0F80
0F80
0F80
0F80
0F80
0F80
0F80
0F80
0F80
0F80
0F80
0F00
1F00
1F00
7E00
E000
ENDCHAR
STARTCHAR Kcommaaccent
ENCODING 310
SWIDTH 707 0
DWIDTH 24 0
BBX 23 37 1 -13
BITMAP
FFE3FE
1F00F8
1F01E0
1F01C0
1F0380
1F0700
1F0E00
1F1C00
1F3800
1F3800
1F7800
1FFC00
1FFE00
1F7E00
1F7F00
1F3F80
1F3F80
1F1FC0
1F0FE0
1F0FE0
1F07F0
1F03F8
1F01FC
FFE03E
000000
003000
007800
007800
007C00
007C00
003C00
003800
003800
003000
006000
00C000
004000
ENDCHAR
STARTCHAR kcommaaccent
ENCODING 311
SWIDTH 582 0
DWIDTH 19 0
BBX 19 38 1 -13
BITMAP
0E0000
FE0000
7E0000
3E0000
3E0000
3E0000
3E0000
3E0000
3E0FC0
3E1F80
3E3E00
3E3C00
3E7800
3E6000
3EE000
3FF000
3FF000
3FF800
3EFC00
3E7C00
3E7E00
3E3F00
3E3F80
3E1FC0
FF87E0
000000
00C000
01E000
01E000
01F000
01F000
00F000
00E000
00E000
00C000
018000
030000
010000
ENDCHAR
STARTCHAR kgreenlandic
ENCODING 312
SWIDTH 582 0
DWIDTH 19 0
BBX 19 16 1 0
BITMAP
3E1F80
3E3E00
3E3C00
3E7800
3E6000
3EE000
3FF000
3FF000
3FF800
3EFC00
3E7C00
3E7E00
3E3F00
3E3F80
3E1FC0
FF87E0
ENDCHAR
STARTCHAR Lacute
ENCODING 313
SWIDTH 585 0
DWIDTH 20 0
BBX 18 33 1 0
BITMAP
001000
007800
00F800
01F000
03E000
078000
0E0000
080000
000000
FFE000
1F0000
1F0000
1F0000
1F0000
1F0000
1F0000
1F0000
1F0000
1F0000
1F0000
1F0000
1F0000
1F0000
1F0000
1F0000
1F0000
1F0040
1F00C0
1F00C0
1F01C0
1F83C0
1FFFC0
FFFFC0
ENDCHAR
STARTCHAR lacute
ENCODING 314
SWIDTH 309 0
DWIDTH 10 0
BBX 10 34 1 0
BITMAP
0080
03C0
07C0
0F80
1F00
3C00
7000
4000
0000
0E00
FE00
7E00
3E00
3E00
3E00
3E00
3E00
3E00
3E00
3E00
3E00
3E00
3E00
3E00
3E00
3E00
3E00
3E00
3E00
3E00
3E00
3E00
3E00
FF80
ENDCHAR
STARTCHAR Lcommaaccent
ENCODING 315
SWIDTH 585 0
DWIDTH 20 0
BBX 18 37 1 -13
BITMAP
FFE000
1F0000
1F0000
1F0000
1F0000
1F0000
1F0000
1F0000
1F0000
1F0000
1F0000
1F0000
1F0000
1F0000
1F0000
1F0000
1F0000
1F0040
1F00C0
1F00C0
1F01C0
1F83C0
1FFFC0
FFFFC0
000000
00C000
01E000
01E000
01F000
01F000
00F000
00E000
00E000
00C000
018000
030000
010000
ENDCHAR
STARTCHAR lcommaaccent
ENCODING 316
SWIDTH 309 0
DWIDTH 10 0
BBX 9 38 1 -13
BITMAP
0E00
FE00
7E00
3E00
3E00
3E00
3E00
3E00
3E00
3E00
3E00
3E00
3E00
3E00
3E00
3E00
3E00
3E00
3E00
3E00
3E00
3E00
3E00
3E00
FF80
0000
1800
3C00
3C00
3E00
3E00
1E00
1C00
1C00
1800
3000
6000
2000
ENDCHAR
STARTCHAR Lcaron
ENCODING 317
SWIDTH 808 0
DWIDTH 27 0
BBX 25 24 1 0
BITMAP
FFE00600
1F000F00
1F000F00
1F000F80
1F000780
1F000700
1F000700
1F000600
1F000C00
1F001800
1F000800
1F000000
1F000000
1F000000
1F000000
1F000000
1F000000
1F004000
1F00C000
1F00C000
1F01C000
1F83C000
1FFFC000
FFFFC000
ENDCHAR
STARTCHAR lcaron
ENCODING 318
SWIDTH 546 0
DWIDTH 18 0
BBX 16 25 1 0
BITMAP
0E00
FE0C
7E1E
3E1E
3E1F
3E0F
3E0E
3E0E
3E0C
3E18
3E30
3E10
3E00
3E00
3E00
3E00
3E00
3E00
3E00
3E00
3E00
3E00
3E00
3E00
FF80
ENDCHAR
STARTCHAR Ldot
ENCODING 319
SWIDTH 836 0
DWIDTH 28 0
BBX 26 24 1 0
BITMAP
FFE00000
1F000000
1F000000
1F000000
1F000000
1F000000
1F000000
1F000000
1F000000
1F000000
1F000000
1F000000
1F000000
1F000300
1F000780
1F000FC0
1F000FC0
1F004780
1F00C300
1F00C000
1F01C000
1F83C000
1FFFC000
FFFFC000
ENDCHAR
STARTCHAR ldot
ENCODING 320
SWIDTH 574 0
DWIDTH 19 0
BBX 17 25 1 0
BITMAP
0E0000
FE0000
7E0000
3E0000
3E0000
3E0000
3E0000
3E0000
3E0000
3E0000
3E0000
3E0000
3E0000
3E0000
3E0600
3E0F00
3E1F80
3E1F80
3E0F00
3E0600
3E0000
3E0000
3E0000
3E0000
FF8000
ENDCHAR
STARTCHAR Lslash
ENCODING 321
SWIDTH 591 0
DWIDTH 20 0
BBX 18 24 1 0
BITMAP
FFE000
1F0000
1F0000
1F0000
1F0000
1F0000
1F0800
1F3800
1F7000
1FE000
1F8000
1F0000
1F0000
1F0000
7F0000
FF0000
DF0000
9F0040
1F00C0
1F00C0
1F01C0
1F83C0
1FFFC0
FFFFC0
ENDCHAR
STARTCHAR lslash
ENCODING 322
SWIDTH 321 0
DWIDTH 11 0
BBX 11 25 0 0
BITMAP
0700
7F00
3F00
1F00
1F00
1F00
1F00
1F00
1F20
1F60
1FC0
1F80
1F00
1F00
3F00
7F00
7F00
9F00
1F00
1F00
1F00
1F00
1F00
1F00
7FC0
ENDCHAR
STARTCHAR Nacute
ENCODING 323
SWIDTH 739 0
DWIDTH 25 0
BBX 22 33 1 0
BITMAP
000200
000F00
001F00
003E00
007C00
00F000
01C000
010000
000000
FF01FC
1F8078
1F8030
1FC030
1FE030
1BE030
1BF030
19F030
18F830
18FC30
187C30
187E30
183E30
183F30
181FB0
180FB0
180FF0
1807F0
1807F0
1803F0
1801F0
1801F0
3C00F0
7F00F0
ENDCHAR
STARTCHAR nacute
ENCODING 324
SWIDTH 638 0
DWIDTH 21 0
BBX 20 26 1 0
BITMAP
000200
000F00
001F00
003E00
007C00
00F000
01C000
010000
000000
0E0E00
FE7F80
7FFF80
3F0FC0
3E07C0
3E07C0
3E07C0
3E07C0
3E07C0
3E07C0
3E07C0
3E07C0
3E07C0
3E07C0
3E07C0
3E07C0
FF9FF0
ENDCHAR
STARTCHAR Ncommaaccent
ENCODING 325
SWIDTH 739 0
DWIDTH 25 0
BBX 22 37 1 -13
BITMAP
FF01FC
1F8078
1F8030
1FC030
1FE030
1BE030
1BF030
19F030
18F830
18FC30
187C30
187E30
183E30
183F30
181FB0
180FB0
180FF0
1807F0
1807F0
1803F0
1801F0
1801F0
3C00F0
7F00F0
000000
001800
003C00
003C00
003E00
003E00
001E00
001C00
001C00
001800
003000
006000
002000
ENDCHAR
STARTCHAR ncommaaccent
ENCODING 326
SWIDTH 638 0
DWIDTH 21 0
BBX 20 30 1 -13
BITMAP
0E0E00
FE7F80
7FFF80
3F0FC0
3E07C0
3E07C0
3E07C0
3E07C0
3E07C0
3E07C0
3E07C0
3E07C0
3E07C0
3E07C0
3E07C0
3E07C0
FF9FF0
000000
006000
00F000
00F000
00F800
00F800
007800
007000
007000
006000
00C000
018000
008000
ENDCHAR
STARTCHAR Ncaron
ENCODING 327
SWIDTH 739 0
DWIDTH 25 0
BBX 22 33 1 0
BITMAP
080100
0C0300
070E00
039C00
01F800
00F000
00F000
004000
000000
FF01FC
1F8078
1F8030
1FC030
1FE030
1BE030
1BF030
19F030
18F830
18FC30
187C30
187E30
183E30
183F30
181FB0
180FB0
180FF0
1807F0
1807F0
1803F0
1801F0
1801F0
3C00F0
7F00F0
ENDCHAR
STARTCHAR ncaron
ENCODING 328
SWIDTH 638 0
DWIDTH 21 0
BBX 20 26 1 0
BITMAP
080100
0C0300
070E00
039C00
01F800
00F000
00F000
004000
000000
0E0E00
FE7F80
7FFF80
3F0FC0
3E07C0
3E07C0
3E07C0
3E07C0
3E07C0
3E07C0
3E07C0
3E07C0
3E07C0
3E07C0
3E07C0
3E07C0
FF9FF0
ENDCHAR
STARTCHAR napostrophe
ENCODING 329
SWIDTH 877 0
DWIDTH 29 0
BBX 28 24 1 0
BITMAP
30000000
78000000
78000000
7C000000
3C000000
38000000
38000000
300E0E00
60FE7F80
C07FFF80
403F0FC0
003E07C0
003E07C0
003E07C0
003E07C0
003E07C0
003E07C0
003E07C0
003E07C0
003E07C0
003E07C0
003E07C0
003E07C0
00FF9FF0
ENDCHAR
STARTCHAR Eng
ENCODING 330
SWIDTH 739 0
DWIDTH 25 0
BBX 22 32 1 -8
BITMAP
FF01FC
1F8078
1F8030
1FC030
1FE030
1BE030
1BF030
19F030
18F830
18FC30
187C30
187E30
183E30
183F30
181FB0
180FB0
180FF0
1807F0
1807F0
1803F0
1801F0
1801F0
3C01F0
7F01F0
0001F0
0001F0
0001F0
0001E0
0003E0
0003E0
000FC0
001C00
ENDCHAR
STARTCHAR eng
ENCODING 331
SWIDTH 638 0
DWIDTH 21 0
BBX 18 25 1 -8
BITMAP
0E0E00
FE7F80
7FFF80
3F0FC0
3E07C0
3E07C0
3E07C0
3E07C0
3E07C0
3E07C0
3E07C0
3E07C0
3E07C0
3E07C0
3E07C0
3E07C0
FF87C0
0007C0
0007C0
0007C0
000780
000F80
000F80
003F00
007000
ENDCHAR
STARTCHAR Omacron
ENCODING 332
SWIDTH 768 0
DWIDTH 26 0
BBX 23 28 1 0
BITMAP
01FF80
01FF80
01FF80
000000
007C00
03FF80
0FC7E0
1F01F0
3E00F8
3E00F8
7E00FC
7E00FC
7C007C
FC007E
FC007E
FC007E
FC007E
FC007E
FC007E
7C007C
7C007C
7E00FC
3E00F8
3E00F8
1F01F0
0FC7E0
03FF80
007C00
ENDCHAR
STARTCHAR omacron
ENCODING 333
SWIDTH 585 0
DWIDTH 20 0
BBX 17 21 1 0
BITMAP
0FFC00
0FFC00
0FFC00
000000
03E000
1FFC00
3E3E00
7C1F00
7C1F00
F80F80
F80F80
F80F80
F80F80
F80F80
F80F80
F80F80
7C1F00
7C1F00
3E3E00
1FFC00
03E000
ENDCHAR
STARTCHAR Obreve
ENCODING 334
SWIDTH 768 0
DWIDTH 26 0
BBX 23 30 1 0
BITMAP
010080
018180
00FF00
00FF00
003C00
000000
007C00
03FF80
0FC7E0
1F01F0
3E00F8
3E00F8
7E00FC
7E00FC
7C007C
FC007E
FC007E
FC007E
FC007E
FC007E
FC007E
7C007C
7C007C
7E00FC
3E00F8
3E00F8
1F01F0
0FC7E0
03FF80
007C00
ENDCHAR
STARTCHAR obreve
ENCODING 335
SWIDTH 585 0
DWIDTH 20 0
BBX 17 23 1 0
BITMAP
080400
0C0C00
07F800
07F800
01E000
000000
03E000
1FFC00
3E3E00
7C1F00
7C1F00
F80F80
F80F80
F80F80
F80F80
F80F80
F80F80
F80F80
7C1F00
7C1F00
3E3E00
1FFC00
03E000
ENDCHAR
STARTCHAR Ohungarumlaut
ENCODING 336
SWIDTH 768 0
DWIDTH 26 0
BBX 23 33 1 0
BITMAP
0060C0
00F1E0
00F1C0
00E3C0
01C380
018300
030600
010400
000000
007C00
03FF80
0FC7E0
1F01F0
3E00F8
3E00F8
7E00FC
7E00FC
7C007C
FC007E
FC007E
FC007E
FC007E
FC007E
FC007E
7C007C
7C007C
7E00FC
3E00F8
3E00F8
1F01F0
0FC7E0
03FF80
007C00
ENDCHAR
STARTCHAR ohungarumlaut
ENCODING 337
SWIDTH 585 0
DWIDTH 20 0
BBX 17 26 1 0
BITMAP
030600
078F00
078E00
071E00
0E1C00
0C1800
183000
082000
000000
03E000
1FFC00
3E3E00
7C1F00
7C1F00
F80F80
F80F80
F80F80
F80F80
F80F80
F80F80
F80F80
7C1F00
7C1F00
3E3E00
1FFC00
03E000
ENDCHAR
STARTCHAR OE
ENCODING 338
SWIDTH 1049 0
DWIDTH 35 0
BBX 33 24 1 0
BITMAP
001FFFFF00
01FFFFFF00
07F07C0F00
1F807C0700
1F007C0300
3E007C0300
7E007C0100
7E007C0000
7C007C0800
7C007C1800
7C007C1800
FC007FF800
FC007FF800
FC007C1800
FC007C0800
7C007C0800
7E007C0000
7E007C0080
3E007C0180
3F007C0180
1F807C0380
0FE07E0780
01FFFFFF80
003FFFFF80
ENDCHAR
STARTCHAR oe
ENCODING 339
SWIDTH 866 0
DWIDTH 29 0
BBX 27 17 1 0
BITMAP
03C03800
0FF8FF00
3E3FC780
7C1FC3C0
7C1F83C0
780F83E0
F80F83E0
F80FFFE0
F80FFFE0
F80F8000
F80F8000
F80FC000
7C1FC060
7C1FE0C0
3E3FFF80
1FF8FF00
03C03C00
ENDCHAR
STARTCHAR Racute
ENCODING 340
SWIDTH 684 0
DWIDTH 23 0
BBX 22 33 1 0
BITMAP
000100
000780
000F80
001F00
003E00
007800
00E000
008000
000000
FFFC00
1FFF80
1F0FC0
1F07E0
1F03F0
1F03F0
1F03F0
1F03F0
1F03E0
1F07E0
1F07C0
1F0F80
1FFE00
1FFF00
1F0F80
1F0FC0
1F07C0
1F07C0
1F07E0
1F07E0
1F03F0
1F03F0
1F03F8
FFE07C
ENDCHAR
STARTCHAR racute
ENCODING 341
SWIDTH 440 0
DWIDTH 15 0
BBX 14 26 1 0
BITMAP
0010
0078
00F8
01F0
03E0
0780
0E00
0800
0000
1E38
FEF8
7FFC
3FF8
3E30
3E00
3E00
3E00
3E00
3E00
3E00
3E00
3E00
3E00
3E00
3E00
FFC0
ENDCHAR
STARTCHAR Rcommaaccent
ENCODING 342
SWIDTH 684 0
DWIDTH 23 0
BBX 22 37 1 -13
BITMAP
FFFC00
1FFF80
1F0FC0
1F07E0
1F03F0
1F03F0
1F03F0
1F03F0
1F03E0
1F07E0
1F07C0
1F0F80
1FFE00
1FFF00
1F0F80
1F0FC0
1F07C0
1F07C0
1F07E0
1F07E0
1F03F0
1F03F0
1F03F8
FFE07C
000000
003000
007800
007800
007C00
007C00
003C00
003800
003800
003000
006000
00C000
004000
ENDCHAR
STARTCHAR rcommaaccent
ENCODING 343
SWIDTH 440 0
DWIDTH 15 0
BBX 14 30 1 -13
BITMAP
1E38
FEF8
7FFC
3FF8
3E30
3E00
3E00
3E00
3E00
3E00
3E00
3E00
3E00
3E00
3E00
3E00
FFC0
0000
0C00
1E00
1E00
1F00
1F00
0F00
0E00
0E00
0C00
1800
3000
1000
ENDCHAR
STARTCHAR Rcaron
ENCODING 344
SWIDTH 684 0
DWIDTH 23 0
BBX 22 33 1 0
BITMAP
040080
060180
038700
01CE00
00FC00
007800
007800
002000
000000
FFFC00
1FFF80
1F0FC0
1F07E0
1F03F0
1F03F0
1F03F0
1F03F0
1F03E0
1F07E0
1F07C0
1F0F80
1FFE00
1FFF00
1F0F80
1F0FC0
1F07C0
1F07C0
1F07E0
1F07E0
1F03F0
1F03F0
1F03F8
FFE07C
ENDCHAR
STARTCHAR rcaron
ENCODING 345
SWIDTH 440 0
DWIDTH 15 0
BBX 14 26 1 0
BITMAP
4008
6018
3870
1CE0
0FC0
0780
0780
0200
0000
1E38
FEF8
7FFC
3FF8
3E30
3E00
3E00
3E00
3E00
3E00
3E00
3E00
3E00
3E00
3E00
3E00
FFC0
ENDCHAR
STARTCHAR Sacute
ENCODING 346
SWIDTH 561 0
DWIDTH 19 0
BBX 16 33 2 0
BITMAP
0010
0078
00F8
01F0
03E0
0780
0E00
0800
0000
03E0
1FF8
3E3C
7C1C
780C
F80C
F804
FC00
FF00
7FC0
7FE0
3FF8
0FFC
03FE
00FE
007F
803F
C01F
C01F
E01E
F03E
F87C
3FF8
07C0
ENDCHAR
STARTCHAR sacute
ENCODING 347
SWIDTH 446 0
DWIDTH 15 0
BBX 13 26 1 0
BITMAP
0020
00F0
01F0
03E0
07C0
0F00
1C00
1000
0000
0FC0
3FF0
78F0
7830
F830
FC10
FF00
7FC0
7FF0
1FF0
87F8
C1F8
C0F8
E0F0
F0F0
7FE0
0F80
ENDCHAR
STARTCHAR Scircumflex
ENCODING 348
SWIDTH 561 0
DWIDTH 19 0
BBX 16 33 2 0
BITMAP
0200
0780
0780
0FC0
1CE0
3870
6018
4008
0000
03E0
1FF8
3E3C
7C1C
780C
F80C
F804
FC00
FF00
7FC0
7FE0
3FF8
0FFC
03FE
00FE
007F
803F
C01F
C01F
E01E
F03E
F87C
3FF8
07C0
ENDCHAR
STARTCHAR scircumflex
ENCODING 349
SWIDTH 446 0
DWIDTH 15 0
BBX 13 26 1 0
BITMAP
0400
0F00
0F00
1F80
39C0
70E0
C030
8010
0000
0FC0
3FF0
78F0
7830
F830
FC10
FF00
7FC0
7FF0
1FF0
87F8
C1F8
C0F8
E0F0
F0F0
7FE0
0F80
ENDCHAR
STARTCHAR Scedilla
ENCODING 350
SWIDTH 561 0
DWIDTH 19 0
BBX 16 32 2 -8
BITMAP
03E0
1FF8
3E3C
7C1C
780C
F80C
F804
FC00
FF00
7FC0
7FE0
3FF8
0FFC
03FE
00FE
007F
803F
C01F
C01F
E01E
F03E
F87C
3FF8
07C0
01C0
0180
03C0
03E0
01F0
00F0
01E0
07C0
ENDCHAR
STARTCHAR scedilla
ENCODING 351
SWIDTH 446 0
DWIDTH 15 0
BBX 13 25 1 -8
BITMAP
0FC0
3FF0
78F0
7830
F830
FC10
FF00
7FC0
7FF0
1FF0
87F8
C1F8
C0F8
E0F0
F0F0
7FE0
0F80
0700
0600
0F00
0F80
07C0
03C0
0780
1F00
ENDCHAR
STARTCHAR Scaron
ENCODING 352
SWIDTH 561 0
DWIDTH 19 0
BBX 16 30 2 0
BITMAP
7018
3C78
1FF0
0FE0
0780
0100
03E0
1FF8
3E3C
7C1C
780C
F80C
F804
FC00
FF00
7FC0
7FE0
3FF8
0FFC
03FE
00FE
007F
803F
C01F
C01F
E01E
F03E
F87C
3FF8
07C0
ENDCHAR
STARTCHAR scaron
ENCODING 353
SWIDTH 446 0
DWIDTH 15 0
BBX 13 25 1 0
BITMAP
8010
C038
7070
39E0
1FC0
0F80
0F00
0200
0FC0
3FF0
78F0
7830
F830
FC10
FF00
7FC0
7FF0
1FF0
87F8
C1F8
C0F8
E0F0
F0F0
7FE0
0F80
ENDCHAR
STARTCHAR Tcommaaccent
ENCODING 354
SWIDTH 624 0
DWIDTH 21 0
BBX 19 32 1 -8
BITMAP
FFFFE0
FFFFE0
E1F0E0
C1F060
C1F060
C1F060
81F020
01F000
01F000
01F000
01F000
01F000
01F000
01F000
01F000
01F000
01F000
01F000
01F000
01F000
01F000
01F000
01F000
0FFE00
00E000
00C000
01E000
01F000
00F800
007800
00F000
03E000
ENDCHAR
STARTCHAR tcommaaccent
ENCODING 355
SWIDTH 370 0
DWIDTH 12 0
BBX 11 29 1 -8
BITMAP
0600
0E00
1E00
1E00
FFC0
FFC0
3E00
3E00
3E00
3E00
3E00
3E00
3E00
3E00
3E00
3E00
3E00
3F00
1FE0
1FC0
0700
0E00
0C00
1E00
1F00
0F80
0780
0F00
3E00
ENDCHAR
STARTCHAR Tcaron
ENCODING 356
SWIDTH 624 0
DWIDTH 21 0
BBX 19 33 1 0
BITMAP
080100
0C0300
070E00
039C00
01F800
00F000
00F000
004000
000000
FFFFE0
FFFFE0
E1F0E0
C1F060
C1F060
C1F060
81F020
01F000
01F000
01F000
01F000
01F000
01F000
01F000
01F000
01F000
01F000
01F000
01F000
01F000
01F000
01F000
01F000
0FFE00
ENDCHAR
STARTCHAR tcaron
ENCODING 357
SWIDTH 604 0
DWIDTH 19 0
BBX 17 24 1 0
BITMAP
000600
000F00
000F00
060F80
0E0780
1E0700
1E0700
FFC600
FFCC00
3E1800
3E0800
3E0000
3E0000
3E0000
3E0000
3E0000
3E0000
3E0000
3E0000
3E0000
3F0000
1FE000
1FC000
070000
ENDCHAR
STARTCHAR Tbar
ENCODING 358
SWIDTH 624 0
DWIDTH 21 0
BBX 19 24 1 0
BITMAP
FFFFE0
FFFFE0
E1F0E0
C1F060
C1F060
C1F060
81F020
01F000
01F000
01F000
01F000
0FFE00
0FFE00
01F000
01F000
01F000
01F000
01F000
01F000
01F000
01F000
01F000
01F000
0FFE00
ENDCHAR
STARTCHAR tbar
ENCODING 359
SWIDTH 370 0
DWIDTH 12 0
BBX 11 21 1 0
BITMAP
0600
0E00
1E00
1E00
FFC0
FFC0
3E00
3E00
3E00
3E00
3E00
3E00
FFE0
FFE0
3E00
3E00
3E00
3F00
1FE0
1FC0
0700
ENDCHAR
STARTCHAR Utilde
ENCODING 360
SWIDTH 786 0
DWIDTH 26 0
BBX 23 30 2 0
BITMAP
008040
03F880
07FF80
047F00
080400
000000
FFC7FE
3E00F8
3E00F8
3E00F8
3E00F8
3E00F8
3E00F8
3E00F8
3E00F8
3E00F8
3E00F8
3E00F8
3E00F8
3E00F8
3E00F8
3E00F8
3E00F8
3E00F8
3E00F0
1F01F0
1F01F0
0F83E0
07FF80
00FC00
ENDCHAR
STARTCHAR utilde
ENCODING 361
SWIDTH 629 0
DWIDTH 21 0
BBX 19 23 1 0
BITMAP
020100
0FE200
1FFE00
11FC00
201000
000000
0E0380
FE3F80
7E0F80
3E0F80
3E0F80
3E0F80
3E0F80
3E0F80
3E0F80
3E0F80
3E0F80
3E0F80
3E0F80
3F1F80
1FFF80
1FE780
070FE0
ENDCHAR
STARTCHAR Umacron
ENCODING 362
SWIDTH 786 0
DWIDTH 26 0
BBX 23 28 2 0
BITMAP
01FF80
01FF80
01FF80
000000
FFC7FE
3E00F8
3E00F8
3E00F8
3E00F8
3E00F8
3E00F8
3E00F8
3E00F8
3E00F8
3E00F8
3E00F8
3E00F8
3E00F8
3E00F8
3E00F8
3E00F8
3E00F8
3E00F0
1F01F0
1F01F0
0F83E0
07FF80
00FC00
ENDCHAR
STARTCHAR umacron
ENCODING 363
SWIDTH 629 0
DWIDTH 21 0
BBX 19 21 1 0
BITMAP
0FFC00
0FFC00
0FFC00
000000
0E0380
FE3F80
7E0F80
3E0F80
3E0F80
3E0F80
3E0F80
3E0F80
3E0F80
3E0F80
3E0F80
3E0F80
3E0F80
3F1F80
1FFF80
1FE780
070FE0
ENDCHAR
STARTCHAR Ubreve
ENCODING 364
SWIDTH 786 0
DWIDTH 26 0
BBX 23 30 2 0
BITMAP
010080
018180
00FF00
00FF00
003C00
000000
FFC7FE
3E00F8
3E00F8
3E00F8
3E00F8
3E00F8
3E00F8
3E00F8
3E00F8
3E00F8
3E00F8
3E00F8
3E00F8
3E00F8
3E00F8
3E00F8
3E00F8
3E00F8
3E00F0
1F01F0
1F01F0
0F83E0
07FF80
00FC00
ENDCHAR
STARTCHAR ubreve
ENCODING 365
SWIDTH 629 0
DWIDTH 21 0
BBX 19 23 1 0
BITMAP
080400
0C0C00
07F800
07F800
01E000
000000
0E0380
FE3F80
7E0F80
3E0F80
3E0F80
3E0F80
3E0F80
3E0F80
3E0F80
3E0F80
3E0F80
3E0F80
3E0F80
3F1F80
1FFF80
1FE780
070FE0
ENDCHAR
STARTCHAR Uring
ENCODING 366
SWIDTH 786 0
DWIDTH 26 0
BBX 23 32 2 0
BITMAP
003C00
006600
00C300
00C300
00C300
006600
003C00
000000
FFC7FE
3E00F8
3E00F8
3E00F8
3E00F8
3E00F8
3E00F8
3E00F8
3E00F8
3E00F8
3E00F8
3E00F8
3E00F8
3E00F8
3E00F8
3E00F8
3E00F8
3E00F8
3E00F0
1F01F0
1F01F0
0F83E0
07FF80
00FC00
ENDCHAR
STARTCHAR uring
ENCODING 367
SWIDTH 629 0
DWIDTH 21 0
BBX 19 25 1 0
BITMAP
01E000
033000
061800
061800
061800
033000
01E000
000000
0E0380
FE3F80
7E0F80
3E0F80
3E0F80
3E0F80
3E0F80
3E0F80
3E0F80
3E0F80
3E0F80
3E0F80
3E0F80
3F1F80
1FFF80
1FE780
070FE0
ENDCHAR
STARTCHAR Uhungarumlaut
ENCODING 368
SWIDTH 786 0
DWIDTH 26 0
BBX 23 33 2 0
BITMAP
0060C0
00F1E0
00F1C0
00E3C0
01C380
018300
030600
010400
000000
FFC7FE
3E00F8
3E00F8
3E00F8
3E00F8
3E00F8
3E00F8
3E00F8
3E00F8
3E00F8
3E00F8
3E00F8
3E00F8
3E00F8
3E00F8
3E00F8
3E00F8
3E00F8
3E00F0
1F01F0
1F01F0
0F83E0
07FF80
00FC00
ENDCHAR
STARTCHAR uhungarumlaut
ENCODING 369
SWIDTH 629 0
DWIDTH 21 0
BBX 19 26 1 0
BITMAP
018300
03C780
03C700
038F00
070E00
060C00
0C1800
041000
000000
0E0380
FE3F80
7E0F80
3E0F80
3E0F80
3E0F80
3E0F80
3E0F80
3E0F80
3E0F80
3E0F80
3E0F80
3E0F80
3F1F80
1FFF80
1FE780
070FE0
ENDCHAR
STARTCHAR Uogonek
ENCODING 370
SWIDTH 786 0
DWIDTH 26 0
BBX 23 32 2 -8
BITMAP
FFC7FE
3E00F8
3E00F8
3E00F8
3E00F8
3E00F8
3E00F8
3E00F8
3E00F8
3E00F8
3E00F8
3E00F8
3E00F8
3E00F8
3E00F8
3E00F8
3E00F8
3E00F8
3E00F0
1F01F0
1F01F0
0F83E0
07FF80
00FC00
001800
003000
006000
006000
00E000
00F000
007E00
003800
ENDCHAR
STARTCHAR uogonek
ENCODING 371
SWIDTH 629 0
DWIDTH 21 0
BBX 19 25 1 -8
BITMAP
0E0380
FE3F80
7E0F80
3E0F80
3E0F80
3E0F80
3E0F80
3E0F80
3E0F80
3E0F80
3E0F80
3E0F80
3E0F80
3F1F80
1FFF80
1FE780
071FE0
006000
00C000
018000
018000
038000
03C000
01F800
00E000
ENDCHAR
STARTCHAR Wcircumflex
ENCODING 372
SWIDTH 933 0
DWIDTH 31 0
BBX 32 33 0 0
BITMAP
00020000
00078000
00078000
000FC000
001CE000
00387000
00601800
00400800
00000000
FF8000FF
3E01E01C
3E01E01C
3E01E018
1E03F018
1F03F038
1F03F038
1F03F030
0F06F830
0F86F830
0F86F870
0F867860
0F8C7C60
07CC7C60
07CC7C60
07CC3CC0
07C83EC0
03F83EC0
03F83EC0
03F81F80
03F01F80
01F01F80
01F01F00
01F00F00
ENDCHAR
STARTCHAR wcircumflex
ENCODING 373
SWIDTH 774 0
DWIDTH 26 0
BBX 27 26 0 0
BITMAP
00080000
001E0000
001E0000
003F0000
00738000
00E1C000
01806000
01002000
00000000
FF870FE0
3E0F8380
3E0F8380
3E0F8300
1F0FC300
1F1FC700
1F1FC600
0F1BC600
0F9BE600
0FB3EC00
07B1EC00
07F1FC00
07E1FC00
07E0F800
03E0F800
03E0F800
03C0F000
ENDCHAR
STARTCHAR Ycircumflex
ENCODING 374
SWIDTH 617 0
DWIDTH 21 0
BBX 22 33 0 0
BITMAP
004000
00F000
00F000
01F800
039C00
070E00
0C0300
080100
000000
FFC3FC
3F00F0
1F00E0
1F80C0
0F81C0
0F8180
0FC380
07C300
07C700
03E600
03E600
01FC00
01FC00
01F800
00F800
00F800
00F800
00F800
00F800
00F800
00F800
00F800
00F800
07FF00
ENDCHAR
STARTCHAR ycircumflex
ENCODING 375
SWIDTH 524 0
DWIDTH 17 0
BBX 20 34 -1 -8
BITMAP
008000
01E000
01E000
03F000
073800
0E1C00
180600
100200
000000
FFC7F0
3F01C0
1F01C0
1F0180
1F8380
0F8300
0FC300
07C700
07C600
07E600
03EC00
03FC00
01FC00
01F800
01F800
00F800
00F000
00F000
00E000
006000
0CC000
1FC000
1F8000
1F8000
0E0000
ENDCHAR
STARTCHAR Ydieresis
ENCODING 376
SWIDTH 617 0
DWIDTH 21 0
BBX 22 29 0 0
BITMAP
070380
0F87C0
0F87C0
0F87C0
070380
FFC3FC
3F00F0
1F00E0
1F80C0
0F81C0
0FC180
0FC380
07C300
07E700
03E600
03FE00
01FC00
01FC00
01F800
00F800
00F800
00F800
00F800
00F800
00F800
00F800
00F800
00F800
07FF00
ENDCHAR
STARTCHAR Zacute
ENCODING 377
SWIDTH 614 0
DWIDTH 20 0
BBX 20 33 0 0
BITMAP
000100
000780
000F80
001F00
003E00
007800
00E000
008000
000000
3FFFF0
3FFFF0
3C07E0
300FC0
300FC0
201F80
203F00
003F00
007E00
007C00
00FC00
01F800
01F000
03F000
07E000
07E000
0FC000
0F8030
1F8030
3F0070
3E0070
7E01F0
FFFFF0
FFFFF0
ENDCHAR
STARTCHAR zacute
ENCODING 378
SWIDTH 483 0
DWIDTH 16 0
BBX 15 26 1 0
BITMAP
0008
003C
007C
00F8
01F0
03C0
0700
0400
0000
7FFE
7FFE
70FC
60F8
41F8
43F0
03E0
07E0
0FC0
0F80
1F80
1F02
3E06
7E06
7C0E
FFFE
FFFE
ENDCHAR
STARTCHAR Zdotaccent
ENCODING 379
SWIDTH 614 0
DWIDTH 20 0
BBX 20 30 0 0
BITMAP
007000
00F800
00F800
00F800
007000
000000
3FFFF0
3FFFF0
3C07E0
300FC0
300FC0
201F80
203F00
003F00
007E00
007C00
00FC00
01F800
01F000
03F000
07E000
07E000
0FC000
0F8030
1F8030
3F0070
3E0070
7E01F0
FFFFF0
FFFFF0
ENDCHAR
STARTCHAR zdotaccent
ENCODING 380
SWIDTH 483 0
DWIDTH 16 0
BBX 15 23 1 0
BITMAP
0380
07C0
07C0
07C0
0380
0000
7FFE
7FFE
70FC
60F8
41F8
43F0
03E0
07E0
0FC0
0F80
1F80
1F02
3E06
7E06
7C0E
FFFE
FFFE
ENDCHAR
STARTCHAR Zcaron
ENCODING 381
SWIDTH 614 0
DWIDTH 20 0
BBX 20 30 0 0
BITMAP
0E0380
078F00
03FE00
01FC00
007800
002000
3FFFF0
3FFFF0
3C07E0
300FC0
300FC0
201F80
203F00
003F00
007E00
007C00
00FC00
01F800
01F000
03F000
07E000
07E000
0FC000
0F8030
1F8030
3F0070
3E0070
7E01F0
FFFFF0
FFFFF0
ENDCHAR
STARTCHAR zcaron
ENCODING 382
SWIDTH 483 0
DWIDTH 16 0
BBX 15 25 1 0
BITMAP
200C
301C
1838
1C70
0FE0
07C0
0380
0100
7FFE
7FFE
70FC
60F8
41F8
43F0
03E0
07E0
0FC0
0F80
1F80
1F02
3E06
7E06
7C0E
FFFE
FFFE
ENDCHAR
STARTCHAR uni0186
ENCODING 390
SWIDTH 689 0
DWIDTH 23 0
BBX 20 24 1 0
BITMAP
0FC000
7FFC00
F07F00
E01F80
C00FC0
C007C0
8007E0
8007E0
0003E0
0003F0
0003F0
0003F0
0003F0
0003F0
0003F0
0003E0
8007E0
8007E0
C007C0
C00FC0
E01F80
F03E00
7FFC00
1F8000
ENDCHAR
STARTCHAR uni0189
ENCODING 393
SWIDTH 783 0
DWIDTH 26 0
BBX 24 24 1 0
BITMAP
FFFC00
1FFFC0
1F03F0
1F01F8
1F00FC
1F007C
1F007E
1F007E
1F003E
1F003F
1F003F
FFF83F
FFF83F
1F003F
1F003F
1F003F
1F003E
1F007E
1F007C
1F00FC
1F00F8
1F03F0
1FFFC0
FFFE00
ENDCHAR
STARTCHAR uni018E
ENCODING 398
SWIDTH 629 0
DWIDTH 21 0
BBX 19 24 1 0
BITMAP
FFFFE0
FFFF00
F03F00
E01F00
C01F00
C01F00
801F00
001F00
081F00
081F00
0C1F00
0FFF00
0FFF00
0C1F00
0C1F00
081F00
001F00
401F00
601F00
601F00
701F00
781F00
7FFF00
7FFFE0
ENDCHAR
STARTCHAR florin
ENCODING 402
SWIDTH 560 0
DWIDTH 19 0
BBX 20 29 -1 -5
BITMAP
000380
001FE0
003DE0
0078F0
0078E0
00F840
00F800
00F800
00F800
01F800
0FFF80
0FFF80
01F000
01F000
01F000
01F000
01F000
03F000
03E000
03E000
03E000
03E000
03E000
03C000
63C000
F38000
FF8000
7F0000
1C0000
ENDCHAR
STARTCHAR uni0197
ENCODING 407
SWIDTH 384 0
DWIDTH 13 0
BBX 11 24 1 0
BITMAP
FFE0
1F00
1F00
1F00
1F00
1F00
1F00
1F00
1F00
1F00
1F00
FFE0
FFE0
1F00
1F00
1F00
1F00
1F00
1F00
1F00
1F00
1F00
1F00
FFE0
ENDCHAR
STARTCHAR uni019A
ENCODING 410
SWIDTH 309 0
DWIDTH 10 0
BBX 11 25 0 0
BITMAP
0700
7F00
3F00
1F00
1F00
1F00
1F00
1F00
1F00
1F00
1F00
FFE0
FFE0
1F00
1F00
1F00
1F00
1F00
1F00
1F00
1F00
1F00
1F00
1F00
7FC0
ENDCHAR
STARTCHAR uni019D
ENCODING 413
SWIDTH 739 0
DWIDTH 25 0
BBX 23 32 0 -8
BITMAP
7F80FE
0FC03C
0FC018
0FE018
0FF018
0DF018
0DF818
0CF818
0C7C18
0C7E18
0C3E18
0C3F18
0C1F18
0C1F98
0C0FD8
0C07D8
0C07F8
0F83F8
0F83F8
0F81F8
0F80F8
0F80F8
0F8078
0F8078
0F8000
0F8000
0F8000
0F0000
1F0000
1F0000
7E0000
E00000
ENDCHAR
STARTCHAR uni019F
ENCODING 415
SWIDTH 768 0
DWIDTH 26 0
BBX 23 24 1 0
BITMAP
007C00
03FF80
0FC7E0
1F01F0
3E00F8
3E00F8
7E00FC
7E00FC
7C007C
FC007E
FC007E
FFFFFE
FFFFFE
FC007E
FC007E
7C007C
7C007C
7E00FC
3E00F8
3E00F8
1F01F0
0FC7E0
03FF80
007C00
ENDCHAR
STARTCHAR Ohorn
ENCODING 416
SWIDTH 768 0
DWIDTH 26 0
BBX 27 24 1 0
BITMAP
007C0180
03FF83C0
0FC7E3C0
1F01F3E0
3E00F9E0
3E00F9C0
7E00FDC0
7E00FD80
7C007F00
FC007E00
FC007E00
FC007E00
FC007E00
FC007E00
FC007E00
7C007C00
7C007C00
7E00FC00
3E00F800
3E00F800
1F01F000
0FC7E000
03FF8000
007C0000
ENDCHAR
STARTCHAR ohorn
ENCODING 417
SWIDTH 585 0
DWIDTH 20 0
BBX 21 17 1 0
BITMAP
03E060
1FFCF0
3E3EF0
7C1FF8
7C1F78
F80FF0
F80FF0
F80FE0
F80FC0
F80F80
F80F80
F80F80
7C1F00
7C1F00
3E3E00
1FFC00
03E000
ENDCHAR
STARTCHAR uni01A7
ENCODING 423
SWIDTH 561 0
DWIDTH 19 0
BBX 16 24 2 0
BITMAP
07C0
1FF8
3C7C
383E
301E
301F
201F
003F
00FF
03FE
07FE
1FFC
3FF0
7FC0
7F00
FE00
FC01
F803
F803
7807
7C0F
3E1F
1FFC
03E0
ENDCHAR
STARTCHAR uni01A8
ENCODING 424
SWIDTH 446 0
DWIDTH 15 0
BBX 13 17 1 0
BITMAP
1F80
7FE0
78F0
60F0
60F8
41F8
07F8
1FF0
7FF0
7FC0
FF08
FC18
F818
7838
7878
3FF0
0F80
ENDCHAR
STARTCHAR uni01AE
ENCODING 430
SWIDTH 624 0
DWIDTH 21 0
BBX 19 32 1 -8
BITMAP
FFFFE0
FFFFE0
E1F0E0
C1F060
C1F060
C1F060
81F020
01F000
01F000
01F000
01F000
01F000
01F000
01F000
01F000
01F000
01F000
01F000
01F000
01F000
01F000
01F000
01F000
01F000
01F000
01F000
01F000
00F000
00F800
00F800
007E00
000700
ENDCHAR
STARTCHAR Uhorn
ENCODING 431
SWIDTH 786 0
DWIDTH 26 0
BBX 27 24 2 0
BITMAP
FFC7FF80
3E00FBC0
3E00FBC0
3E00FBE0
3E00F9E0
3E00F9C0
3E00F9C0
3E00F980
3E00FB00
3E00FE00
3E00FA00
3E00F800
3E00F800
3E00F800
3E00F800
3E00F800
3E00F800
3E00F800
3E00F000
1F01F000
1F01F000
0F83E000
07FF8000
00FC0000
ENDCHAR
STARTCHAR uhorn
ENCODING 432
SWIDTH 629 0
DWIDTH 21 0
BBX 23 17 1 0
BITMAP
0E0398
FE3FBC
7E0FBC
3E0FBE
3E0F9E
3E0F9C
3E0F9C
3E0F98
3E0FB0
3E0FE0
3E0FA0
3E0F80
3E0F80
3F1F80
1FFF80
1FE780
070FE0
ENDCHAR
STARTCHAR uni01B5
ENCODING 437
SWIDTH 614 0
DWIDTH 20 0
BBX 20 24 0 0
BITMAP
3FFFF0
3FFFF0
3C07E0
300FC0
300FC0
201F80
203F00
003F00
007E00
007C00
00FC00
07FF00
07FF00
03F000
07E000
07E000
0FC000
0F8030
1F8030
3F0070
3E0070
7E01F0
FFFFF0
FFFFF0
ENDCHAR
STARTCHAR uni01B6
ENCODING 438
SWIDTH 483 0
DWIDTH 16 0
BBX 15 17 1 0
BITMAP
7FFE
7FFE
70FC
60F8
41F8
43F0
03E0
3FF8
3FF8
0F80
1F80
1F02
3E06
7E06
7C0E
FFFE
FFFE
ENDCHAR
STARTCHAR uni01BB
ENCODING 443
SWIDTH 560 0
DWIDTH 19 0
BBX 17 23 1 0
BITMAP
03F000
0FFC00
3E3E00
3C1E00
7C1F00
7C1F00
381F00
101F00
001F00
003E00
FFFF80
FFFF80
00F000
01E000
03C000
070000
0E0000
1C0080
380180
7FFF00
7FFF00
FFFF00
FFFF00
ENDCHAR
STARTCHAR uni01BC
ENCODING 444
SWIDTH 560 0
DWIDTH 19 0
BBX 15 23 2 0
BITMAP
7FFC
7FFC
7FFC
7FF8
6000
6000
6000
6000
6000
67C0
5FF0
70FC
407C
003E
003E
003E
603E
E03E
F03C
F87C
7878
3FF0
0780
ENDCHAR
STARTCHAR uni01C0
ENCODING 448
SWIDTH 284 0
DWIDTH 9 0
BBX 3 24 3 0
BITMAP
E0
E0
E0
E0
E0
E0
E0
E0
E0
E0
E0
E0
E0
E0
E0
E0
E0
E0
E0
E0
E0
E0
E0
E0
ENDCHAR
STARTCHAR uni01C2
ENCODING 450
SWIDTH 600 0
DWIDTH 20 0
BBX 16 24 2 -4
BITMAP
01C0
01C0
01C0
01C0
01C0
01C0
01C0
FFFF
FFFF
FFFF
01C0
01C0
01C0
01C0
FFFF
FFFF
FFFF
01C0
01C0
01C0
01C0
01C0
01C0
01C0
ENDCHAR
STARTCHAR uni01C3
ENCODING 451
SWIDTH 278 0
DWIDTH 9 0
BBX 6 24 2 0
BITMAP
78
FC
FC
FC
FC
78
78
78
78
78
78
78
78
30
30
30
00
00
78
78
FC
FC
78
30
ENDCHAR
STARTCHAR uni01CD
ENCODING 461
SWIDTH 644 0
DWIDTH 21 0
BBX 23 33 -1 0
BITMAP
020040
0300C0
01C380
00E700
007E00
003C00
003C00
001000
000000
003C00
007C00
007E00
007E00
00FE00
00FE00
00DF00
019F00
019F00
019F80
030F80
030F80
030FC0
0707C0
07FFC0
07FFE0
0E07E0
0C03E0
0C03E0
1C03F0
1C01F0
1801F0
3801F8
FF0FFE
ENDCHAR
STARTCHAR uni01CE
ENCODING 462
SWIDTH 544 0
DWIDTH 18 0
BBX 18 26 1 0
BITMAP
200400
300C00
1C3800
0E7000
07E000
03C000
03C000
010000
000000
07E000
3FFC00
7C7C00
7C3E00
F83E00
703E00
00FE00
07FE00
1E3E00
7C3E00
783E00
F83E00
F83E00
7C7E00
7FFF00
7F9FC0
1C0C00
ENDCHAR
STARTCHAR uni01CF
ENCODING 463
SWIDTH 384 0
DWIDTH 13 0
BBX 12 33 1 0
BITMAP
8010
C030
70E0
39C0
1F80
0F00
0F00
0400
0000
FFE0
1F00
1F00
1F00
1F00
1F00
1F00
1F00
1F00
1F00
1F00
1F00
1F00
1F00
1F00
1F00
1F00
1F00
1F00
1F00
1F00
1F00
1F00
FFE0
ENDCHAR
STARTCHAR uni01D0
ENCODING 464
SWIDTH 316 0
DWIDTH 11 0
BBX 12 26 -1 0
BITMAP
8010
C030
70E0
39C0
1F80
0F00
0F00
0400
0000
0380
3F80
1F80
0F80
0F80
0F80
0F80
0F80
0F80
0F80
0F80
0F80
0F80
0F80
0F80
0F80
3FE0
ENDCHAR
STARTCHAR uni01D1
ENCODING 465
SWIDTH 768 0
DWIDTH 26 0
BBX 23 33 1 0
BITMAP
020040
0300C0
01C380
00E700
007E00
003C00
003C00
001000
000000
007C00
03FF80
0FC7E0
1F01F0
3E00F8
3E00F8
7E00FC
7E00FC
7C007C
FC007E
FC007E
FC007E
FC007E
FC007E
FC007E
7C007C
7C007C
7E00FC
3E00F8
3E00F8
1F01F0
0FC7E0
03FF80
007C00
ENDCHAR
STARTCHAR uni01D2
ENCODING 466
SWIDTH 585 0
DWIDTH 20 0
BBX 17 26 1 0
BITMAP
100200
180600
0E1C00
073800
03F000
01E000
01E000
008000
000000
03E000
1FFC00
3E3E00
7C1F00
7C1F00
F80F80
F80F80
F80F80
F80F80
F80F80
F80F80
F80F80
7C1F00
7C1F00
3E3E00
1FFC00
03E000
ENDCHAR
STARTCHAR uni01D3
ENCODING 467
SWIDTH 786 0
DWIDTH 26 0
BBX 23 33 2 0
BITMAP
020040
0300C0
01C380
00E700
007E00
003C00
003C00
001000
000000
FFC7FE
3E00F8
3E00F8
3E00F8
3E00F8
3E00F8
3E00F8
3E00F8
3E00F8
3E00F8
3E00F8
3E00F8
3E00F8
3E00F8
3E00F8
3E00F8
3E00F8
3E00F8
3E00F0
1F01F0
1F01F0
0F83E0
07FF80
00FC00
ENDCHAR
STARTCHAR uni01D4
ENCODING 468
SWIDTH 629 0
DWIDTH 21 0
BBX 19 26 1 0
BITMAP
100200
180600
0E1C00
073800
03F000
01E000
01E000
008000
000000
0E0380
FE3F80
7E0F80
3E0F80
3E0F80
3E0F80
3E0F80
3E0F80
3E0F80
3E0F80
3E0F80
3E0F80
3E0F80
3F1F80
1FFF80
1FE780
070FE0
ENDCHAR
STARTCHAR uni01D5
ENCODING 469
SWIDTH 786 0
DWIDTH 26 0
BBX 23 33 2 0
BITMAP
03FF00
03FF00
03FF00
000000
070380
0F87C0
0F87C0
0F87C0
070380
FFC7FE
3E00F8
3E00F8
3E00F8
3E00F8
3E00F8
3E00F8
3E00F8
3E00F8
3E00F8
3E00F8
3E00F8
3E00F8
3E00F8
3E00F8
3E00F8
3E00F8
3E00F8
3E00F0
1F01F0
1F01F0
0F83E0
07FF80
00FC00
ENDCHAR
STARTCHAR uni01D6
ENCODING 470
SWIDTH 629 0
DWIDTH 21 0
BBX 19 28 1 0
BITMAP
07FE00
07FE00
07FE00
000000
0E0E00
1F1F00
1F1F00
1F1F00
0E0E00
000000
000000
0E0380
FE3F80
7E0F80
3E0F80
3E0F80
3E0F80
3E0F80
3E0F80
3E0F80
3E0F80
3E0F80
3E0F80
3E0F80
3F1F80
1FFF80
1FE780
070FE0
ENDCHAR
STARTCHAR uni01D7
ENCODING 471
SWIDTH 786 0
DWIDTH 26 0
BBX 23 38 2 0
BITMAP
000100
000780
000F80
001F00
003E00
007800
00E000
008000
000000
070380
0F87C0
0F87C0
0F87C0
070380
FFC7FE
3E00F8
3E00F8
3E00F8
3E00F8
3E00F8
3E00F8
3E00F8
3E00F8
3E00F8
3E00F8
3E00F8
3E00F8
3E00F8
3E00F8
3E00F8
3E00F8
3E00F8
3E00F0
1F01F0
1F01F0
0F83E0
07FF80
00FC00
ENDCHAR
STARTCHAR uni01D8
ENCODING 472
SWIDTH 629 0
DWIDTH 21 0
BBX 19 33 1 0
BITMAP
000200
000F00
001F00
003E00
007C00
00F000
01C000
010000
000000
0E0E00
1F1F00
1F1F00
1F1F00
0E0E00
000000
000000
0E0380
FE3F80
7E0F80
3E0F80
3E0F80
3E0F80
3E0F80
3E0F80
3E0F80
3E0F80
3E0F80
3E0F80
3E0F80
3F1F80
1FFF80
1FE780
070FE0
ENDCHAR
STARTCHAR uni01D9
ENCODING 473
SWIDTH 786 0
DWIDTH 26 0
BBX 23 38 2 0
BITMAP
040080
060180
038700
01CE00
00FC00
007800
007800
002000
000000
070380
0F87C0
0F87C0
0F87C0
070380
FFC7FE
3E00F8
3E00F8
3E00F8
3E00F8
3E00F8
3E00F8
3E00F8
3E00F8
3E00F8
3E00F8
3E00F8
3E00F8
3E00F8
3E00F8
3E00F8
3E00F8
3E00F8
3E00F0
1F01F0
1F01F0
0F83E0
07FF80
00FC00
ENDCHAR
STARTCHAR uni01DA
ENCODING 474
SWIDTH 629 0
DWIDTH 21 0
BBX 19 33 1 0
BITMAP
080100
0C0300
070E00
039C00
01F800
00F000
00F000
004000
000000
0E0E00
1F1F00
1F1F00
1F1F00
0E0E00
000000
000000
0E0380
FE3F80
7E0F80
3E0F80
3E0F80
3E0F80
3E0F80
3E0F80
3E0F80
3E0F80
3E0F80
3E0F80
3E0F80
3F1F80
1FFF80
1FE780
070FE0
ENDCHAR
STARTCHAR uni01DB
ENCODING 475
SWIDTH 786 0
DWIDTH 26 0
BBX 23 38 2 0
BITMAP
020000
078000
07C000
03E000
01F000
007800
001C00
000400
000000
070380
0F87C0
0F87C0
0F87C0
070380
FFC7FE
3E00F8
3E00F8
3E00F8
3E00F8
3E00F8
3E00F8
3E00F8
3E00F8
3E00F8
3E00F8
3E00F8
3E00F8
3E00F8
3E00F8
3E00F8
3E00F8
3E00F8
3E00F0
1F01F0
1F01F0
0F83E0
07FF80
00FC00
ENDCHAR
STARTCHAR uni01DC
ENCODING 476
SWIDTH 629 0
DWIDTH 21 0
BBX 19 33 1 0
BITMAP
080000
1E0000
1F0000
0F8000
07C000
01E000
007000
001000
000000
0E0E00
1F1F00
1F1F00
1F1F00
0E0E00
000000
000000
0E0380
FE3F80
7E0F80
3E0F80
3E0F80
3E0F80
3E0F80
3E0F80
3E0F80
3E0F80
3E0F80
3E0F80
3E0F80
3F1F80
1FFF80
1FE780
070FE0
ENDCHAR
STARTCHAR uni01DD
ENCODING 477
SWIDTH 519 0
DWIDTH 17 0
BBX 16 17 1 0
BITMAP
07C0
1FF8
3FFC
607E
C03E
003F
001F
001F
FFFF
FFFF
F81F
F81E
781E
783C
3C7C
1FF0
03C0
ENDCHAR
STARTCHAR uni01DE
ENCODING 478
SWIDTH 644 0
DWIDTH 21 0
BBX 23 33 -1 0
BITMAP
01FF80
01FF80
01FF80
000000
038380
07C7C0
07C7C0
07C7C0
038380
003C00
007C00
007E00
007E00
00FE00
00FE00
00DF00
019F00
019F00
019F80
030F80
030F80
030FC0
0707C0
07FFC0
07FFE0
0E07E0
0C03E0
0C03E0
1C03F0
1C01F0
1801F0
3801F8
FF07FE
ENDCHAR
STARTCHAR uni01DF
ENCODING 479
SWIDTH 544 0
DWIDTH 18 0
BBX 18 28 1 0
BITMAP
0FFC00
0FFC00
0FFC00
000000
1C1C00
3E3E00
3E3E00
3E3E00
1C1C00
000000
000000
07E000
3FFC00
7C7C00
7C3E00
F83E00
703E00
00FE00
07FE00
1E3E00
7C3E00
783E00
F83E00
F83E00
7C7E00
7FFF00
7F9FC0
1C0C00
ENDCHAR
STARTCHAR uni01E0
ENCODING 480
SWIDTH 644 0
DWIDTH 21 0
BBX 23 34 -1 0
BITMAP
01FF80
01FF80
01FF80
000000
003800
007C00
007C00
007C00
003800
000000
003C00
007C00
007E00
007E00
00FE00
00FE00
00DF00
019F00
019F00
019F80
030F80
030F80
030FC0
0707C0
07FFC0
07FFE0
0E07E0
0C03E0
0C03E0
1C03F0
1C01F0
1801F0
3801F8
FF0FFE
ENDCHAR
STARTCHAR uni01E1
ENCODING 481
SWIDTH 544 0
DWIDTH 18 0
BBX 18 27 1 0
BITMAP
0FFC00
0FFC00
0FFC00
000000
01C000
03E000
03E000
03E000
01C000
000000
07E000
3FFC00
7C7C00
7C3E00
F83E00
703E00
00FE00
07FE00
1E3E00
7C3E00
783E00
F83E00
F83E00
7C7E00
7FFF00
7F9FC0
1C0C00
ENDCHAR
STARTCHAR uni01E2
ENCODING 482
SWIDTH 879 0
DWIDTH 29 0
BBX 31 28 -3 0
BITMAP
0007FE00
0007FE00
0007FE00
00000000
007FFFFC
001FFFFC
000DF01C
000DF00C
001DF00C
0019F004
0039F004
0031F000
0071F010
0061F030
00E1F030
00FFFFF0
01FFFFF0
0181F030
0181F030
0381F010
0301F000
0701F002
0601F006
0E01F006
0C01F00E
1C01F81E
3C01FFFE
FF8FFFFE
ENDCHAR
STARTCHAR uni01E3
ENCODING 483
SWIDTH 806 0
DWIDTH 27 0
BBX 25 21 1 0
BITMAP
01FF8000
01FF8000
01FF8000
00000000
07C07000
3FF3FC00
7C7F1E00
7C3F0F00
F83E0F00
703E0F80
107E0F80
03FFFF80
0FBFFF80
3C3E0000
783E0000
F83F0000
F83F0180
7C7F8300
7FEFFE00
7F83FC00
1C00F000
ENDCHAR
STARTCHAR uni01E4
ENCODING 484
SWIDTH 726 0
DWIDTH 24 0
BBX 26 24 1 0
BITMAP
007F8000
03FFE000
0FC0F000
1F807000
3F007000
3F003000
7E003000
7E001000
FC000000
FC000000
FC000000
FC000000
FC000000
FC000000
FC07FE00
FC00F800
7C00F800
7E00F800
7E00F800
3F01FFC0
1F81FFC0
0FC0F800
03FFF000
007F0000
ENDCHAR
STARTCHAR uni01E5
ENCODING 485
SWIDTH 533 0
DWIDTH 18 0
BBX 17 25 1 -8
BITMAP
078180
1FFF80
7C7F00
7C3C00
F83E00
F83E00
F83E00
7C3C00
7C7C00
1FF800
0FC000
380000
380000
7FF800
7FFE00
3FFF00
1FFF80
3C0F80
FFFF80
FFFF80
F80700
7C0700
7E1E00
3FFC00
07E000
ENDCHAR
STARTCHAR Gcaron
ENCODING 486
SWIDTH 726 0
DWIDTH 24 0
BBX 23 33 1 0
BITMAP
040080
060180
038700
01CE00
00FC00
007800
007800
002000
000000
007F80
03FFE0
0FC0F0
1F8070
3F0070
3F0030
7E0030
7E0010
FC0000
FC0000
FC0000
FC0000
FC0000
FC0000
FC07FE
FC00F8
7C00F8
7E00F8
7E00F8
3F00F8
1F80F8
0FC0F8
03FFF0
007F00
ENDCHAR
STARTCHAR gcaron
ENCODING 487
SWIDTH 533 0
DWIDTH 18 0
BBX 17 34 1 -8
BITMAP
200400
300C00
1C3800
0E7000
07E000
03C000
03C000
010000
000000
078180
1FFF80
7C7F00
7C3C00
F83E00
F83E00
F83E00
7C3C00
7C7C00
1FF800
0FC000
380000
380000
7FF800
7FFE00
3FFF00
1FFF80
3C0F80
780780
F80780
F80700
7C0700
7E1E00
3FFC00
07E000
ENDCHAR
STARTCHAR uni01E8
ENCODING 488
SWIDTH 707 0
DWIDTH 24 0
BBX 23 33 1 0
BITMAP
040080
060180
038700
01CE00
00FC00
007800
007800
002000
000000
FFE3FE
1F00F8
1F01E0
1F01C0
1F0380
1F0700
1F0E00
1F1C00
1F3800
1F3800
1F7800
1FFC00
1FFE00
1F7E00
1F7F00
1F3F80
1F3F80
1F1FC0
1F0FE0
1F0FE0
1F07F0
1F03F8
1F01FC
FFE03E
ENDCHAR
STARTCHAR uni01E9
ENCODING 489
SWIDTH 582 0
DWIDTH 19 0
BBX 19 34 1 0
BITMAP
801000
C03000
70E000
39C000
1F8000
0F0000
0F0000
040000
000000
0E0000
FE0000
7E0000
3E0000
3E0000
3E0000
3E0000
3E0000
3E0FC0
3E1F80
3E3E00
3E3C00
3E7800
3E6000
3EE000
3FF000
3FF000
3FF800
3EFC00
3E7C00
3E7E00
3E3F00
3E3F80
3E1FC0
FF87E0
ENDCHAR
STARTCHAR uni01EA
ENCODING 490
SWIDTH 768 0
DWIDTH 26 0
BBX 23 32 1 -8
BITMAP
007C00
03FF80
0FC7E0
1F01F0
3E00F8
3E00F8
7E00FC
7E00FC
7C007C
FC007E
FC007E
FC007E
FC007E
FC007E
FC007E
7C007C
7C007C
7E00FC
3E00F8
3E00F8
1F01F0
0FC7E0
03FF80
007C00
001800
003000
006000
006000
00E000
00F000
007E00
003800
ENDCHAR
STARTCHAR uni01EB
ENCODING 491
SWIDTH 585 0
DWIDTH 20 0
BBX 17 25 1 -8
BITMAP
03E000
1FFC00
3E3E00
7C1F00
7C1F00
F80F80
F80F80
F80F80
F80F80
F80F80
F80F80
F80F80
7C1F00
7C1F00
3E3E00
1FFC00
03E000
00C000
018000
030000
030000
070000
078000
03F000
01C000
ENDCHAR
STARTCHAR uni01EC
ENCODING 492
SWIDTH 768 0
DWIDTH 26 0
BBX 23 36 1 -8
BITMAP
01FF80
01FF80
01FF80
000000
007C00
03FF80
0FC7E0
1F01F0
3E00F8
3E00F8
7E00FC
7E00FC
7C007C
FC007E
FC007E
FC007E
FC007E
FC007E
FC007E
7C007C
7C007C
7E00FC
3E00F8
3E00F8
1F01F0
0FC7E0
03FF80
007C00
001800
003000
006000
006000
00E000
00F000
007E00
003800
ENDCHAR
STARTCHAR uni01ED
ENCODING 493
SWIDTH 585 0
DWIDTH 20 0
BBX 17 29 1 -8
BITMAP
0FFC00
0FFC00
0FFC00
000000
03E000
1FFC00
3E3E00
7C1F00
7C1F00
F80F80
F80F80
F80F80
F80F80
F80F80
F80F80
F80F80
7C1F00
7C1F00
3E3E00
1FFC00
03E000
00C000
018000
030000
030000
070000
078000
03F000
01C000
ENDCHAR
STARTCHAR uni01F0
ENCODING 496
SWIDTH 316 0
DWIDTH 11 0
BBX 12 34 -1 -8
BITMAP
8010
C030
70E0
39C0
1F80
0F00
0F00
0400
0000
0380
3F80
1F80
0F80
0F80
0F80
0F80
0F80
0F80
0F80
0F80
0F80
0F80
0F80
0F80
0F80
0F80
0F80
0F80
0F80
0F00
1F00
1F00
7E00
E000
ENDCHAR
STARTCHAR uni01F4
ENCODING 500
SWIDTH 726 0
DWIDTH 24 0
BBX 23 33 1 0
BITMAP
000100
000780
000F80
001F00
003E00
007800
00E000
008000
000000
007F80
03FFE0
0FC0F0
1F8070
3F0070
3F0030
7E0030
7E0010
FC0000
FC0000
FC0000
FC0000
FC0000
FC0000
FC07FE
FC00F8
7C00F8
7E00F8
7E00F8
3F00F8
1F80F8
0FC0F8
03FFF0
007F00
ENDCHAR
STARTCHAR uni01F5
ENCODING 501
SWIDTH 533 0
DWIDTH 18 0
BBX 17 34 1 -8
BITMAP
000400
001E00
003E00
007C00
00F800
01E000
038000
020000
000000
078180
1FFF80
7C7F00
7C3C00
F83E00
F83E00
F83E00
7C3C00
7C7C00
1FF800
0FC000
380000
380000
7FF800
7FFE00
3FFF00
1FFF80
3C0F80
780780
F80780
F80700
7C0700
7E1E00
3FFC00
07E000
ENDCHAR
STARTCHAR uni01F8
ENCODING 504
SWIDTH 739 0
DWIDTH 25 0
BBX 22 33 1 0
BITMAP
040000
0F0000
0F8000
07C000
03E000
00F000
003800
000800
000000
FF01FC
1F8078
1F8030
1FC030
1FE030
1BE030
1BF030
19F030
18F830
18FC30
187C30
187E30
183E30
183F30
181FB0
180FB0
180FF0
1807F0
1807F0
1803F0
1801F0
1801F0
3C00F0
7F00F0
ENDCHAR
STARTCHAR uni01F9
ENCODING 505
SWIDTH 638 0
DWIDTH 21 0
BBX 20 26 1 0
BITMAP
080000
1E0000
1F0000
0F8000
07C000
01E000
007000
001000
000000
0E0E00
FE7F80
7FFF80
3F0FC0
3E07C0
3E07C0
3E07C0
3E07C0
3E07C0
3E07C0
3E07C0
3E07C0
3E07C0
3E07C0
3E07C0
3E07C0
FF9FF0
ENDCHAR
STARTCHAR Aringacute
ENCODING 506
SWIDTH 644 0
DWIDTH 21 0
BBX 23 38 -1 0
BITMAP
000080
0003C0
0007C0
000F80
001F00
003C00
007000
004000
000000
003C00
00E700
00C300
00C300
00C300
007E00
007E00
007E00
007E00
00FF00
00FF00
00DF00
019F00
019F80
018F80
018F80
030FC0
0307C0
0307C0
07FFC0
07FFE0
0E07E0
0C03E0
0C03F0
1C03F0
1C01F0
1801F0
3801F8
FF0FFE
ENDCHAR
STARTCHAR aringacute
ENCODING 507
SWIDTH 544 0
DWIDTH 18 0
BBX 18 34 1 0
BITMAP
000800
003C00
007C00
00F800
01F000
03C000
070000
040000
000000
03C000
066000
0C3000
0C3000
0C3000
066000
03C000
000000
07E000
1FFC00
3C7C00
7C3E00
783E00
383E00
00FE00
03BE00
1E3E00
783E00
783E00
F83E00
F83E00
7C7E00
7FFF00
7F9FC0
1C0C00
ENDCHAR
STARTCHAR AEacute
ENCODING 508
SWIDTH 879 0
DWIDTH 29 0
BBX 31 33 -3 0
BITMAP
00000200
00000F00
00001F00
00003E00
00007C00
0000F000
0001C000
00010000
00000000
007FFFFC
001FFFFC
000DF01C
000DF00C
001DF00C
0019F004
0039F004
0031F000
0071F010
0061F030
00E1F030
00FFFFF0
01FFFFF0
0181F030
0181F030
0381F010
0301F000
0701F002
0601F006
0E01F006
0C01F00E
1C01F81E
3C01FFFE
FF8FFFFE
ENDCHAR
STARTCHAR aeacute
ENCODING 509
SWIDTH 806 0
DWIDTH 27 0
BBX 25 26 1 0
BITMAP
00008000
0003C000
0007C000
000F8000
001F0000
003C0000
00700000
00400000
00000000
07C07000
3FF3FC00
7C7F1E00
7C3F0F00
F83E0F00
703E0F80
107E0F80
03FFFF80
0FBFFF80
3C3E0000
783E0000
F83F0000
F83F0180
7C7F8300
7FEFFE00
7F83FC00
1C00F000
ENDCHAR
STARTCHAR Oslashacute
ENCODING 510
SWIDTH 768 0
DWIDTH 26 0
BBX 23 35 1 -1
BITMAP
000080
0003C0
0007C0
000F80
001F00
003C00
007000
004000
000000
000060
007C60
03FFC0
0FC3E0
1F01F0
3E01F8
3E03FC
7E03FC
7E06FC
7C0E7C
FC0C7C
FC187E
FC187E
FC307E
FC307E
7C607E
7CC07C
7EC07C
7F80FC
3F80F8
3F00F8
1F01F0
0F87E0
0FFF80
0C3C00
180000
ENDCHAR
STARTCHAR oslashacute
ENCODING 511
SWIDTH 585 0
DWIDTH 20 0
BBX 17 28 1 -1
BITMAP
000400
001E00
003E00
007C00
00F800
01E000
038000
020000
000000
000600
03C400
1FFC00
3E3E00
7C1F00
7C3F00
F86F00
F86F80
F8CF80
F98F80
F98F80
FB0F80
7E0F80
7E1F00
3C1F00
3E3E00
1FFC00
31E000
300000
ENDCHAR
STARTCHAR uni0200
ENCODING 512
SWIDTH 644 0
DWIDTH 21 0
BBX 23 33 -1 0
BITMAP
060C00
0F1E00
071E00
078E00
038700
018300
00C180
004100
000000
003C00
007C00
007E00
007E00
00FE00
00FE00
00DF00
019F00
019F00
019F80
030F80
030F80
030FC0
0707C0
07FFC0
07FFE0
0E07E0
0C03E0
0C03E0
1C03F0
1C01F0
1801F0
3801F8
FF0FFE
ENDCHAR
STARTCHAR uni0201
ENCODING 513
SWIDTH 544 0
DWIDTH 18 0
BBX 18 26 1 0
BITMAP
306000
78F000
38F000
3C7000
1C3800
0C1800
060C00
020800
000000
07E000
3FFC00
7C7C00
7C3E00
F83E00
703E00
00FE00
07FE00
1E3E00
7C3E00
783E00
F83E00
F83E00
7C7E00
7FFF00
7F9FC0
1C0C00
ENDCHAR
STARTCHAR uni0202
ENCODING 514
SWIDTH 644 0
DWIDTH 21 0
BBX 23 30 -1 0
BITMAP
003C00
00FF00
00FF00
018180
010080
000000
003C00
007C00
007E00
007E00
00FE00
00FE00
00DF00
019F00
019F00
019F80
030F80
030F80
030FC0
0707C0
07FFC0
07FFE0
0E07E0
0C03E0
0C03E0
1C03F0
1C01F0
1801F0
3801F8
FF0FFE
ENDCHAR
STARTCHAR uni0203
ENCODING 515
SWIDTH 544 0
DWIDTH 18 0
BBX 18 23 1 0
BITMAP
03C000
0FF000
0FF000
181800
100800
000000
07E000
3FFC00
7C7C00
7C3E00
F83E00
703E00
00FE00
07FE00
1E3E00
7C3E00
783E00
F83E00
F83E00
7C7E00
7FFF00
7F9FC0
1C0C00
ENDCHAR
STARTCHAR uni0204
ENCODING 516
SWIDTH 629 0
DWIDTH 21 0
BBX 19 33 1 0
BITMAP
183000
3C7800
1C7800
1E3800
0E1C00
060C00
030600
010400
000000
FFFFC0
1FFFC0
1F03C0
1F01C0
1F00C0
1F00C0
1F0040
1F0000
1F0200
1F0600
1F0600
1FFE00
1FFE00
1F0600
1F0200
1F0200
1F0000
1F0020
1F0060
1F0060
1F00E0
1F81E0
1FFFE0
FFFFE0
ENDCHAR
STARTCHAR uni0205
ENCODING 517
SWIDTH 519 0
DWIDTH 17 0
BBX 16 26 1 0
BITMAP
3060
78F0
38F0
3C70
1C38
0C18
060C
0208
0000
03C0
0FF8
3E3C
3C1E
781E
781F
F81F
FFFF
FFFF
F800
F800
FC00
7C03
7E06
3FFC
1FF8
03E0
ENDCHAR
STARTCHAR uni0206
ENCODING 518
SWIDTH 629 0
DWIDTH 21 0
BBX 19 30 1 0
BITMAP
01E000
07F800
07F800
0C0C00
080400
000000
FFFFC0
1FFFC0
1F03C0
1F01C0
1F00C0
1F00C0
1F0040
1F0000
1F0200
1F0600
1F0600
1FFE00
1FFE00
1F0600
1F0200
1F0200
1F0000
1F0020
1F0060
1F0060
1F00E0
1F81E0
1FFFE0
FFFFE0
ENDCHAR
STARTCHAR uni0207
ENCODING 519
SWIDTH 519 0
DWIDTH 17 0
BBX 16 23 1 0
BITMAP
03C0
0FF0
0FF0
1818
1008
0000
03C0
0FF8
3E3C
3C1E
781E
781F
F81F
FFFF
FFFF
F800
F800
FC00
7C03
7E06
3FFC
1FF8
03E0
ENDCHAR
STARTCHAR uni0208
ENCODING 520
SWIDTH 384 0
DWIDTH 13 0
BBX 13 33 -1 0
BITMAP
60C0
F1E0
71E0
78E0
3870
1830
0C18
0410
0000
3FF8
07C0
07C0
07C0
07C0
07C0
07C0
07C0
07C0
07C0
07C0
07C0
07C0
07C0
07C0
07C0
07C0
07C0
07C0
07C0
07C0
07C0
07C0
3FF8
ENDCHAR
STARTCHAR uni0209
ENCODING 521
SWIDTH 316 0
DWIDTH 11 0
BBX 13 26 -2 0
BITMAP
60C0
F1E0
71E0
78E0
3870
1830
0C18
0410
0000
01C0
1FC0
0FC0
07C0
07C0
07C0
07C0
07C0
07C0
07C0
07C0
07C0
07C0
07C0
07C0
07C0
1FF0
ENDCHAR
STARTCHAR uni020A
ENCODING 522
SWIDTH 384 0
DWIDTH 13 0
BBX 11 30 1 0
BITMAP
0F00
3FC0
3FC0
6060
4020
0000
FFE0
1F00
1F00
1F00
1F00
1F00
1F00
1F00
1F00
1F00
1F00
1F00
1F00
1F00
1F00
1F00
1F00
1F00
1F00
1F00
1F00
1F00
1F00
FFE0
ENDCHAR
STARTCHAR uni020B
ENCODING 523
SWIDTH 316 0
DWIDTH 11 0
BBX 10 23 0 0
BITMAP
1E00
7F80
7F80
C0C0
8040
0000
0700
7F00
3F00
1F00
1F00
1F00
1F00
1F00
1F00
1F00
1F00
1F00
1F00
1F00
1F00
1F00
7FC0
ENDCHAR
STARTCHAR uni020C
ENCODING 524
SWIDTH 768 0
DWIDTH 26 0
BBX 23 33 1 0
BITMAP
060C00
0F1E00
071E00
078E00
038700
018300
00C180
004100
000000
007C00
03FF80
0FC7E0
1F01F0
3E00F8
3E00F8
7E00FC
7E00FC
7C007C
FC007E
FC007E
FC007E
FC007E
FC007E
FC007E
7C007C
7C007C
7E00FC
3E00F8
3E00F8
1F01F0
0FC7E0
03FF80
007C00
ENDCHAR
STARTCHAR uni020D
ENCODING 525
SWIDTH 585 0
DWIDTH 20 0
BBX 17 26 1 0
BITMAP
306000
78F000
38F000
3C7000
1C3800
0C1800
060C00
020800
000000
03E000
1FFC00
3E3E00
7C1F00
7C1F00
F80F80
F80F80
F80F80
F80F80
F80F80
F80F80
F80F80
7C1F00
7C1F00
3E3E00
1FFC00
03E000
ENDCHAR
STARTCHAR uni020E
ENCODING 526
SWIDTH 768 0
DWIDTH 26 0
BBX 23 30 1 0
BITMAP
003C00
00FF00
00FF00
018180
010080
000000
007C00
03FF80
0FC7E0
1F01F0
3E00F8
3E00F8
7E00FC
7E00FC
7C007C
FC007E
FC007E
FC007E
FC007E
FC007E
FC007E
7C007C
7C007C
7E00FC
3E00F8
3E00F8
1F01F0
0FC7E0
03FF80
007C00
ENDCHAR
STARTCHAR uni020F
ENCODING 527
SWIDTH 585 0
DWIDTH 20 0
BBX 17 23 1 0
BITMAP
01E000
07F800
07F800
0C0C00
080400
000000
03E000
1FFC00
3E3E00
7C1F00
7C1F00
F80F80
F80F80
F80F80
F80F80
F80F80
F80F80
F80F80
7C1F00
7C1F00
3E3E00
1FFC00
03E000
ENDCHAR
STARTCHAR uni0210
ENCODING 528
SWIDTH 684 0
DWIDTH 23 0
BBX 22 33 1 0
BITMAP
0C1800
1E3C00
0E3C00
0F1C00
070E00
030600
018300
008200
000000
FFFC00
1FFF80
1F0FC0
1F07E0
1F03F0
1F03F0
1F03F0
1F03F0
1F03E0
1F07E0
1F07C0
1F0F80
1FFE00
1FFF00
1F0F80
1F0FC0
1F07C0
1F07C0
1F07E0
1F07E0
1F03F0
1F03F0
1F03F8
FFE07C
ENDCHAR
STARTCHAR uni0211
ENCODING 529
SWIDTH 440 0
DWIDTH 15 0
BBX 14 26 1 0
BITMAP
60C0
F1E0
71E0
78E0
3870
1830
0C18
0410
0000
1E38
FEF8
7FFC
3FF8
3E30
3E00
3E00
3E00
3E00
3E00
3E00
3E00
3E00
3E00
3E00
3E00
FFC0
ENDCHAR
STARTCHAR uni0212
ENCODING 530
SWIDTH 684 0
DWIDTH 23 0
BBX 22 30 1 0
BITMAP
007800
01FE00
01FE00
030300
020100
000000
FFFC00
1FFF80
1F0FC0
1F07E0
1F03F0
1F03F0
1F03F0
1F03F0
1F03E0
1F07E0
1F07C0
1F0F80
1FFE00
1FFF00
1F0F80
1F0FC0
1F07C0
1F07C0
1F07E0
1F07E0
1F03F0
1F03F0
1F03F8
FFE07C
ENDCHAR
STARTCHAR uni0213
ENCODING 531
SWIDTH 440 0
DWIDTH 15 0
BBX 14 23 1 0
BITMAP
0780
1FE0
1FE0
3030
2010
0000
1E38
FEF8
7FFC
3FF8
3E30
3E00
3E00
3E00
3E00
3E00
3E00
3E00
3E00
3E00
3E00
3E00
FFC0
ENDCHAR
STARTCHAR uni0214
ENCODING 532
SWIDTH 786 0
DWIDTH 26 0
BBX 23 33 2 0
BITMAP
060C00
0F1E00
071E00
078E00
038700
018300
00C180
004100
000000
FFC7FE
3E00F8
3E00F8
3E00F8
3E00F8
3E00F8
3E00F8
3E00F8
3E00F8
3E00F8
3E00F8
3E00F8
3E00F8
3E00F8
3E00F8
3E00F8
3E00F8
3E00F8
3E00F0
1F01F0
1F01F0
0F83E0
07FF80
00FC00
ENDCHAR
STARTCHAR uni0215
ENCODING 533
SWIDTH 629 0
DWIDTH 21 0
BBX 19 26 1 0
BITMAP
183000
3C7800
1C7800
1E3800
0E1C00
060C00
030600
010400
000000
0E0380
FE3F80
7E0F80
3E0F80
3E0F80
3E0F80
3E0F80
3E0F80
3E0F80
3E0F80
3E0F80
3E0F80
3E0F80
3F1F80
1FFF80
1FE780
070FE0
ENDCHAR
STARTCHAR uni0216
ENCODING 534
SWIDTH 786 0
DWIDTH 26 0
BBX 23 30 2 0
BITMAP
003C00
00FF00
00FF00
018180
010080
000000
FFC7FE
3E00F8
3E00F8
3E00F8
3E00F8
3E00F8
3E00F8
3E00F8
3E00F8
3E00F8
3E00F8
3E00F8
3E00F8
3E00F8
3E00F8
3E00F8
3E00F8
3E00F8
3E00F0
1F01F0
1F01F0
0F83E0
07FF80
00FC00
ENDCHAR
STARTCHAR uni0217
ENCODING 535
SWIDTH 629 0
DWIDTH 21 0
BBX 19 23 1 0
BITMAP
01E000
07F800
07F800
0C0C00
080400
000000
0E0380
FE3F80
7E0F80
3E0F80
3E0F80
3E0F80
3E0F80
3E0F80
3E0F80
3E0F80
3E0F80
3E0F80
3E0F80
3F1F80
1FFF80
1FE780
070FE0
ENDCHAR
STARTCHAR Scommaaccent
ENCODING 536
SWIDTH 561 0
DWIDTH 19 0
BBX 16 37 2 -13
BITMAP
03E0
1FF8
3E3C
7C1C
780C
F80C
F804
FC00
FF00
7FC0
7FE0
3FF8
0FFC
03FE
00FE
007F
803F
C01F
C01F
E01E
F03E
F87C
3FF8
07C0
0000
0180
03C0
03C0
03E0
03E0
01E0
01C0
01C0
0180
0300
0600
0200
ENDCHAR
STARTCHAR scommaaccent
ENCODING 537
SWIDTH 446 0
DWIDTH 15 0
BBX 13 30 1 -13
BITMAP
0FC0
3FF0
78F0
7830
F830
FC10
FF00
7FC0
7FF0
1FF0
87F8
C1F8
C0F8
E0F0
F0F0
7FE0
0F80
0000
0600
0F00
0F00
0F80
0F80
0780
0700
0700
0600
0C00
1800
0800
ENDCHAR
STARTCHAR Tcommaaccent
ENCODING 538
SWIDTH 624 0
DWIDTH 21 0
BBX 19 37 1 -13
BITMAP
FFFFE0
FFFFE0
E1F0E0
C1F060
C1F060
C1F060
81F020
01F000
01F000
01F000
01F000
01F000
01F000
01F000
01F000
01F000
01F000
01F000
01F000
01F000
01F000
01F000
01F000
0FFE00
000000
00C000
01E000
01E000
01F000
01F000
00F000
00E000
00E000
00C000
018000
030000
010000
ENDCHAR
STARTCHAR tcommaaccent
ENCODING 539
SWIDTH 370 0
DWIDTH 12 0
BBX 11 34 1 -13
BITMAP
0600
0E00
1E00
1E00
FFC0
FFC0
3E00
3E00
3E00
3E00
3E00
3E00
3E00
3E00
3E00
3E00
3E00
3F00
1FE0
1FC0
0700
0000
0600
0F00
0F00
0F80
0F80
0780
0700
0700
0600
0C00
1800
0800
ENDCHAR
STARTCHAR uni021E
ENCODING 542
SWIDTH 807 0
DWIDTH 27 0
BBX 25 33 1 0
BITMAP
01002000
01806000
00E1C000
00738000
003F0000
001E0000
001E0000
00080000
00000000
FFE3FF80
1F007C00
1F007C00
1F007C00
1F007C00
1F007C00
1F007C00
1F007C00
1F007C00
1F007C00
1F007C00
1FFFFC00
1FFFFC00
1F007C00
1F007C00
1F007C00
1F007C00
1F007C00
1F007C00
1F007C00
1F007C00
1F007C00
1F007C00
FFE3FF80
ENDCHAR
STARTCHAR uni021F
ENCODING 543
SWIDTH 631 0
DWIDTH 21 0
BBX 20 34 1 0
BITMAP
801000
C03000
70E000
39C000
1F8000
0F0000
0F0000
040000
000000
0E0000
FE0000
7E0000
3E0000
3E0000
3E0000
3E0000
3E0000
3E1E00
3E7F80
3FFF80
3F0FC0
3E07C0
3E07C0
3E07C0
3E07C0
3E07C0
3E07C0
3E07C0
3E07C0
3E07C0
3E07C0
3E07C0
3E07C0
FF9FF0
ENDCHAR
STARTCHAR uni0226
ENCODING 550
SWIDTH 644 0
DWIDTH 21 0
BBX 23 30 -1 0
BITMAP
003800
007C00
007C00
007C00
003800
000000
003C00
007C00
007E00
007E00
00FE00
00FE00
00DF00
019F00
019F00
019F80
030F80
030F80
030FC0
0707C0
07FFC0
07FFE0
0E07E0
0C03E0
0C03E0
1C03F0
1C01F0
1801F0
3801F8
FF0FFE
ENDCHAR
STARTCHAR uni0227
ENCODING 551
SWIDTH 544 0
DWIDTH 18 0
BBX 18 23 1 0
BITMAP
01C000
03E000
03E000
03E000
01C000
000000
07E000
3FFC00
7C7C00
7C3E00
F83E00
703E00
00FE00
07FE00
1E3E00
7C3E00
783E00
F83E00
F83E00
7C7E00
7FFF00
7F9FC0
1C0C00
ENDCHAR
STARTCHAR uni0228
ENCODING 552
SWIDTH 629 0
DWIDTH 21 0
BBX 19 32 1 -8
BITMAP
FFFFC0
1FFFC0
1F03C0
1F01C0
1F00C0
1F00C0
1F0040
1F0000
1F0200
1F0600
1F0600
1FFE00
1FFE00
1F0600
1F0200
1F0200
1F0000
1F0020
1F0060
1F0060
1F00E0
1F81E0
1FFFE0
FFFFE0
00E000
00C000
01E000
01F000
00F800
007800
00F000
03E000
ENDCHAR
STARTCHAR uni0229
ENCODING 553
SWIDTH 519 0
DWIDTH 17 0
BBX 16 25 1 -8
BITMAP
03C0
0FF8
3E3C
3C1E
781E
781F
F81F
FFFF
FFFF
F800
F800
FC00
7C03
7E06
3FFC
1FF8
03E0
0380
0300
0780
07C0
03E0
01E0
03C0
0F80
ENDCHAR
STARTCHAR uni022A
ENCODING 554
SWIDTH 768 0
DWIDTH 26 0
BBX 23 33 1 0
BITMAP
01FF80
01FF80
01FF80
000000
0381C0
07C3E0
07C3E0
07C3E0
0381C0
007C00
03FF80
0FC7E0
1F01F0
3E00F8
3E00F8
7E00FC
7E00FC
7C007C
FC007E
FC007E
FC007E
FC007E
FC007E
FC007E
7C007C
7C007C
7E00FC
3E00F8
3E00F8
1F01F0
0FC7E0
03FF80
007C00
ENDCHAR
STARTCHAR uni022B
ENCODING 555
SWIDTH 585 0
DWIDTH 20 0
BBX 17 28 1 0
BITMAP
0FFC00
0FFC00
0FFC00
000000
1C1C00
3E3E00
3E3E00
3E3E00
1C1C00
000000
000000
03E000
1FFC00
3E3E00
7C1F00
7C1F00
F80F80
F80F80
F80F80
F80F80
F80F80
F80F80
F80F80
7C1F00
7C1F00
3E3E00
1FFC00
03E000
ENDCHAR
STARTCHAR uni022C
ENCODING 556
SWIDTH 768 0
DWIDTH 26 0
BBX 23 33 1 0
BITMAP
01FF80
01FF80
01FF80
000000
01E060
03F840
07FFC0
041F80
0C0700
007C00
03FF80
0FC7E0
1F01F0
3E00F8
3E00F8
7E00FC
7E00FC
7C007C
FC007E
FC007E
FC007E
FC007E
FC007E
FC007E
7C007C
7C007C
7E00FC
3E00F8
3E00F8
1F01F0
0FC7E0
03FF80
007C00
ENDCHAR
STARTCHAR uni022D
ENCODING 557
SWIDTH 585 0
DWIDTH 20 0
BBX 17 28 1 0
BITMAP
0FFC00
0FFC00
0FFC00
000000
0F0300
1FC200
1FFE00
30FC00
203800
000000
000000
03E000
1FFC00
3E3E00
7C1F00
7C1F00
F80F80
F80F80
F80F80
F80F80
F80F80
F80F80
F80F80
7C1F00
7C1F00
3E3E00
1FFC00
03E000
ENDCHAR
STARTCHAR uni022E
ENCODING 558
SWIDTH 768 0
DWIDTH 26 0
BBX 23 30 1 0
BITMAP
003800
007C00
007C00
007C00
003800
000000
007C00
03FF80
0FC7E0
1F01F0
3E00F8
3E00F8
7E00FC
7E00FC
7C007C
FC007E
FC007E
FC007E
FC007E
FC007E
FC007E
7C007C
7C007C
7E00FC
3E00F8
3E00F8
1F01F0
0FC7E0
03FF80
007C00
ENDCHAR
STARTCHAR uni022F
ENCODING 559
SWIDTH 585 0
DWIDTH 20 0
BBX 17 23 1 0
BITMAP
01C000
03E000
03E000
03E000
01C000
000000
03E000
1FFC00
3E3E00
7C1F00
7C1F00
F80F80
F80F80
F80F80
F80F80
F80F80
F80F80
F80F80
7C1F00
7C1F00
3E3E00
1FFC00
03E000
ENDCHAR
STARTCHAR uni0230
ENCODING 560
SWIDTH 768 0
DWIDTH 26 0
BBX 23 34 1 0
BITMAP
01FF80
01FF80
01FF80
000000
003800
007C00
007C00
007C00
003800
000000
007C00
03FF80
0FC7E0
1F01F0
3E00F8
3E00F8
7E00FC
7E00FC
7C007C
FC007E
FC007E
FC007E
FC007E
FC007E
FC007E
7C007C
7C007C
7E00FC
3E00F8
3E00F8
1F01F0
0FC7E0
03FF80
007C00
ENDCHAR
STARTCHAR uni0231
ENCODING 561
SWIDTH 585 0
DWIDTH 20 0
BBX 17 27 1 0
BITMAP
0FFC00
0FFC00
0FFC00
000000
01C000
03E000
03E000
03E000
01C000
000000
03E000
1FFC00
3E3E00
7C1F00
7C1F00
F80F80
F80F80
F80F80
F80F80
F80F80
F80F80
F80F80
7C1F00
7C1F00
3E3E00
1FFC00
03E000
ENDCHAR
STARTCHAR uni0232
ENCODING 562
SWIDTH 617 0
DWIDTH 21 0
BBX 22 28 0 0
BITMAP
07FE00
07FE00
07FE00
000000
FFC3FC
3F00F0
1F00E0
1F80C0
0F81C0
0F8180
0FC380
07C300
07C700
03E600
03E600
01FC00
01FC00
01F800
00F800
00F800
00F800
00F800
00F800
00F800
00F800
00F800
00F800
07FF00
ENDCHAR
STARTCHAR uni0233
ENCODING 563
SWIDTH 524 0
DWIDTH 17 0
BBX 20 29 -1 -8
BITMAP
0FFC00
0FFC00
0FFC00
000000
FFC7F0
3F01C0
1F01C0
1F0180
1F8380
0F8300
0FC300
07C700
07C600
07E600
03EC00
03FC00
01FC00
01F800
01F800
00F800
00F000
00F000
00E000
006000
0CC000
1FC000
1F8000
1F8000
0E0000
ENDCHAR
STARTCHAR uni0250
ENCODING 592
SWIDTH 544 0
DWIDTH 18 0
BBX 18 17 1 0
BITMAP
0C0E00
FE7F80
3FFF80
1F8F80
1F07C0
1F07C0
1F0780
1F0F80
1F1E00
1FF800
1FC000
1F0380
1F07C0
1F0F80
0F8F80
0FFF00
01F800
ENDCHAR
STARTCHAR uni0254
ENCODING 596
SWIDTH 494 0
DWIDTH 16 0
BBX 15 17 1 0
BITMAP
0780
3FE0
7C78
7878
787C
303C
003E
003E
003E
003E
003E
C07E
607C
60FC
3FF8
1FF0
0380
ENDCHAR
STARTCHAR uni0258
ENCODING 600
SWIDTH 519 0
DWIDTH 17 0
BBX 16 17 1 0
BITMAP
03C0
1FF0
3C7C
783C
781E
F81E
F81F
FFFF
FFFF
001F
001F
003F
C03E
607E
3FFC
1FF8
07C0
ENDCHAR
STARTCHAR uni0259
ENCODING 601
SWIDTH 519 0
DWIDTH 17 0
BBX 16 17 1 0
BITMAP
07C0
1FF8
3FFC
607E
C03E
003F
001F
001F
FFFF
FFFF
F81F
F81E
781E
783C
3C7C
1FF0
03C0
ENDCHAR
STARTCHAR uni025F
ENCODING 607
SWIDTH 342 0
DWIDTH 11 0
BBX 13 25 1 -9
BITMAP
1FF8
03E0
03E0
03E0
03E0
03E0
03E0
03E0
03E0
03E0
03E0
03E0
03E0
03E0
03E0
1FF8
1FF8
03E0
03E0
03E0
71E0
F1C0
79C0
7F80
1E00
ENDCHAR
STARTCHAR uni0265
ENCODING 613
SWIDTH 631 0
DWIDTH 21 0
BBX 20 25 1 -9
BITMAP
FF9FF0
3E07C0
3E07C0
3E07C0
3E07C0
3E07C0
3E07C0
3E07C0
3E07C0
3E07C0
3E07C0
3E07C0
3E07C0
3F0FC0
1FFFC0
1FE7C0
0787C0
0007C0
0007C0
0007C0
0007C0
0007C0
0007E0
0007F0
000700
ENDCHAR
STARTCHAR uni0275
ENCODING 629
SWIDTH 585 0
DWIDTH 20 0
BBX 17 17 1 0
BITMAP
03E000
1FFC00
3E3E00
7C1F00
7C1F00
F80F80
F80F80
FFFF80
FFFF80
F80F80
F80F80
F80F80
7C1F00
7C1F00
3E3E00
1FFC00
03E000
ENDCHAR
STARTCHAR uni0279
ENCODING 633
SWIDTH 440 0
DWIDTH 15 0
BBX 14 17 1 0
BITMAP
0FFC
01F0
01F0
01F0
01F0
01F0
01F0
01F0
01F0
01F0
01F0
01F0
31F0
7FF0
FFF8
7DFC
71E0
ENDCHAR
STARTCHAR uni0287
ENCODING 647
SWIDTH 370 0
DWIDTH 12 0
BBX 11 21 1 0
BITMAP
1C00
7F00
FF00
1F80
0F80
0F80
0F80
0F80
0F80
0F80
0F80
0F80
0F80
0F80
0F80
7FE0
7FE0
0F00
0F00
0E00
0C00
ENDCHAR
STARTCHAR uni0288
ENCODING 648
SWIDTH 370 0
DWIDTH 12 0
BBX 11 29 1 -8
BITMAP
0600
0E00
1E00
1E00
FFC0
FFC0
3E00
3E00
3E00
3E00
3E00
3E00
3E00
3E00
3E00
3E00
3E00
3E00
3E00
3E00
3E00
3E00
3E00
3E00
1E00
1F00
1F00
0FC0
00E0
ENDCHAR
STARTCHAR uni0289
ENCODING 649
SWIDTH 629 0
DWIDTH 21 0
BBX 19 17 1 0
BITMAP
0E0380
FE3F80
7E0F80
3E0F80
3E0F80
3E0F80
3E0F80
FFFFE0
FFFFE0
3E0F80
3E0F80
3E0F80
3E0F80
3F1F80
1FFF80
1FE780
070FE0
ENDCHAR
STARTCHAR uni028C
ENCODING 652
SWIDTH 520 0
DWIDTH 17 0
BBX 18 17 0 0
BITMAP
01E000
01E000
01F000
03F000
03F800
06F800
067800
067C00
0E7C00
0C7C00
0C3E00
1C3E00
183E00
181F00
381F00
381F00
FE7FC0
ENDCHAR
STARTCHAR uni028D
ENCODING 653
SWIDTH 774 0
DWIDTH 26 0
BBX 27 17 0 0
BITMAP
01E07800
03E0F800
03E0F800
03E0FC00
07F0FC00
07F1FC00
06F1BC00
06F9BE00
0CFB3E00
0C7B1E00
0C7F1F00
1C7F1F00
187E1F00
183E0F80
383E0F80
383E0F80
FE1C3FE0
ENDCHAR
STARTCHAR uni028E
ENCODING 654
SWIDTH 524 0
DWIDTH 17 0
BBX 20 25 -1 0
BITMAP
000700
001F80
001F80
003F80
003300
006000
007000
00F000
00F000
01F000
01F800
01F800
03F800
03FC00
037C00
067E00
063E00
0E3E00
0C3F00
0C1F00
1C1F80
180F80
380F80
380FC0
FE3FF0
ENDCHAR
STARTCHAR uni029E
ENCODING 670
SWIDTH 582 0
DWIDTH 19 0
BBX 19 25 1 -9
BITMAP
FC3FE0
7F0F80
3F8F80
1F8F80
0FCF80
07CF80
07EF80
03FF80
01FF80
01FF80
00EF80
00CF80
03CF80
078F80
0F8F80
3F0F80
7E0F80
000F80
000F80
000F80
000F80
000F80
000FC0
000FE0
000E00
ENDCHAR
STARTCHAR uni02BB
ENCODING 699
SWIDTH 252 0
DWIDTH 8 0
BBX 6 11 1 13
BITMAP
08
0C
18
30
70
70
F0
F8
78
78
30
ENDCHAR
STARTCHAR afii57929
ENCODING 700
SWIDTH 252 0
DWIDTH 8 0
BBX 6 11 1 13
BITMAP
30
78
78
7C
3C
38
38
30
60
C0
40
ENDCHAR
STARTCHAR afii64937
ENCODING 701
SWIDTH 252 0
DWIDTH 8 0
BBX 6 11 1 13
BITMAP
30
78
78
F8
F0
70
70
30
18
0C
08
ENDCHAR
STARTCHAR circumflex
ENCODING 710
SWIDTH 430 0
DWIDTH 14 0
BBX 12 8 1 17
BITMAP
0400
0F00
0F00
1F80
39C0
70E0
C030
8010
ENDCHAR
STARTCHAR caron
ENCODING 711
SWIDTH 430 0
DWIDTH 14 0
BBX 12 8 1 17
BITMAP
8010
C030
70E0
39C0
1F80
0F00
0F00
0400
ENDCHAR
STARTCHAR uni02C8
ENCODING 712
SWIDTH 252 0
DWIDTH 8 0
BBX 5 10 2 14
BITMAP
70
F8
F8
F8
70
70
70
70
70
20
ENDCHAR
STARTCHAR macron
ENCODING 713
SWIDTH 430 0
DWIDTH 14 0
BBX 10 3 2 20
BITMAP
FFC0
FFC0
FFC0
ENDCHAR
STARTCHAR uni02CA
ENCODING 714
SWIDTH 430 0
DWIDTH 14 0
BBX 9 8 4 17
BITMAP
0100
0780
0F80
1F00
3E00
7800
E000
8000
ENDCHAR
STARTCHAR uni02CB
ENCODING 715
SWIDTH 430 0
DWIDTH 14 0
BBX 9 8 1 17
BITMAP
4000
F000
F800
7C00
3E00
0F00
0380
0080
ENDCHAR
STARTCHAR uni02CD
ENCODING 717
SWIDTH 430 0
DWIDTH 14 0
BBX 10 3 2 -4
BITMAP
FFC0
FFC0
FFC0
ENDCHAR
STARTCHAR uni02CE
ENCODING 718
SWIDTH 430 0
DWIDTH 14 0
BBX 9 8 1 -9
BITMAP
4000
F000
F800
7C00
3E00
0F00
0380
0080
ENDCHAR
STARTCHAR uni02CF
ENCODING 719
SWIDTH 430 0
DWIDTH 14 0
BBX 9 8 4 -9
BITMAP
0100
0780
0F80
1F00
3E00
7800
E000
8000
ENDCHAR
STARTCHAR breve
ENCODING 728
SWIDTH 430 0
DWIDTH 14 0
BBX 10 5 2 18
BITMAP
8040
C0C0
7F80
7F80
1E00
ENDCHAR
STARTCHAR dotaccent
ENCODING 729
SWIDTH 430 0
DWIDTH 14 0
BBX 5 5 5 19
BITMAP
70
F8
F8
F8
70
ENDCHAR
STARTCHAR ring
ENCODING 730
SWIDTH 430 0
DWIDTH 14 0
BBX 8 7 3 18
BITMAP
3C
66
C3
C3
C3
66
3C
ENDCHAR
STARTCHAR ogonek
ENCODING 731
SWIDTH 430 0
DWIDTH 14 0
BBX 7 9 4 -8
BITMAP
04
18
30
60
60
E0
F0
7E
38
ENDCHAR
STARTCHAR tilde
ENCODING 732
SWIDTH 430 0
DWIDTH 14 0
BBX 14 5 0 19
BITMAP
0804
3F88
7FF8
47F0
8040
ENDCHAR
STARTCHAR hungarumlaut
ENCODING 733
SWIDTH 430 0
DWIDTH 14 0
BBX 13 8 2 17
BITMAP
1830
3C78
3C70
38F0
70E0
60C0
C180
4100
ENDCHAR
STARTCHAR uni02EE
ENCODING 750
SWIDTH 473 0
DWIDTH 16 0
BBX 13 11 1 13
BITMAP
3060
78F0
78F8
7CF8
7C78
3878
3870
3060
60E0
C1C0
8080
ENDCHAR
STARTCHAR uni037E
ENCODING 894
SWIDTH 280 0
DWIDTH 9 0
BBX 7 22 1 -5
BITMAP
18
3C
3E
7E
3C
3C
00
00
00
00
30
78
7C
7C
7C
3C
38
38
30
60
E0
40
ENDCHAR
STARTCHAR tonos
ENCODING 900
SWIDTH 430 0
DWIDTH 14 0
BBX 9 8 4 17
BITMAP
0100
0780
0F80
1F00
3E00
7800
E000
8000
ENDCHAR
STARTCHAR dieresistonos
ENCODING 901
SWIDTH 430 0
DWIDTH 14 0
BBX 13 14 1 19
BITMAP
0010
0078
00F8
01F0
03E0
0780
0E00
0800
0000
3060
F8F8
F8F8
F8F8
3060
ENDCHAR
STARTCHAR anoteleia
ENCODING 903
SWIDTH 280 0
DWIDTH 9 0
BBX 6 6 2 5
BITMAP
30
78
FC
FC
78
30
ENDCHAR
STARTCHAR mu
ENCODING 956
SWIDTH 629 0
DWIDTH 21 0
BBX 19 25 1 -8
BITMAP
0E0380
FE3F80
7E0F80
3E0F80
3E0F80
3E0F80
3E0F80
3E0F80
3E0F80
3E0F80
3E0F80
3E0F80
3E0F80
3F1F80
3FFF80
3FE780
3B8FE0
380000
380000
3C0000
3C0000
3C0000
3E0000
3C0000
300000
ENDCHAR
STARTCHAR uni1E00
ENCODING 7680
SWIDTH 644 0
DWIDTH 21 0
BBX 23 32 -1 -8
BITMAP
003C00
007C00
007E00
007E00
00FE00
00FE00
00DF00
019F00
019F00
019F80
030F80
030F80
030FC0
0707C0
07FFC0
07FFE0
0E07E0
0C03E0
0C03E0
1C03F0
1C01F0
1801F0
3801F8
FF0FFE
000000
003C00
006600
00C300
00C300
00C300
006600
003C00
ENDCHAR
STARTCHAR uni1E01
ENCODING 7681
SWIDTH 544 0
DWIDTH 18 0
BBX 18 25 1 -8
BITMAP
07E000
3FFC00
7C7C00
7C3E00
F83E00
703E00
00FE00
07FE00
1E3E00
7C3E00
783E00
F83E00
F83E00
7C7E00
7FFF00
7F9FC0
1C0C00
000000
01E000
033000
061800
061800
061800
033000
01E000
ENDCHAR
STARTCHAR uni1E02
ENCODING 7682
SWIDTH 683 0
DWIDTH 23 0
BBX 21 30 1 0
BITMAP
007000
00F800
00F800
00F800
007000
000000
FFFC00
1FFF80
1F0FC0
1F07C0
1F07E0
1F03E0
1F03E0
1F03C0
1F07C0
1F07C0
1F0F00
1FFE00
1FFFC0
1F07E0
1F03F0
1F01F8
1F01F8
1F01F8
1F01F8
1F01F8
1F03F0
1F07E0
1FFFC0
FFFE00
ENDCHAR
STARTCHAR uni1E03
ENCODING 7683
SWIDTH 605 0
DWIDTH 20 0
BBX 19 31 0 0
BITMAP
070000
0F8000
0F8000
0F8000
070000
000000
0E0000
FE0000
7E0000
3E0000
3E0000
3E0000
3E0000
3E0000
3E1E00
3E7F00
3FFF80
3F0FC0
3E07C0
3E03E0
3E03E0
3E03E0
3E03E0
3E03E0
3E03E0
3E03C0
3E07C0
3E07C0
3F0F80
3FFF00
11F800
ENDCHAR
STARTCHAR uni1E04
ENCODING 7684
SWIDTH 683 0
DWIDTH 23 0
BBX 21 30 1 -6
BITMAP
FFFC00
1FFF80
1F0FC0
1F07C0
1F07E0
1F03E0
1F03E0
1F03C0
1F07C0
1F07C0
1F0F00
1FFE00
1FFFC0
1F07E0
1F03F0
1F01F8
1F01F8
1F01F8
1F01F8
1F01F8
1F03F0
1F07E0
1FFFC0
FFFE00
000000
007000
00F800
00F800
00F800
007000
ENDCHAR
STARTCHAR uni1E05
ENCODING 7685
SWIDTH 605 0
DWIDTH 20 0
BBX 19 31 0 -6
BITMAP
0E0000
FE0000
7E0000
3E0000
3E0000
3E0000
3E0000
3E0000
3E1E00
3E7F00
3FFF80
3F0FC0
3E07C0
3E03E0
3E03E0
3E03E0
3E03E0
3E03E0
3E03E0
3E03C0
3E07C0
3E07C0
3F0F80
3FFF00
11F800
000000
00E000
01F000
01F000
01F000
00E000
ENDCHAR
STARTCHAR uni1E06
ENCODING 7686
SWIDTH 683 0
DWIDTH 23 0
BBX 21 28 1 -4
BITMAP
FFFC00
1FFF80
1F0FC0
1F07C0
1F07E0
1F03E0
1F03E0
1F03C0
1F07C0
1F07C0
1F0F00
1FFE00
1FFFC0
1F07E0
1F03F0
1F01F8
1F01F8
1F01F8
1F01F8
1F01F8
1F03F0
1F07E0
1FFFC0
FFFE00
000000
03FF00
03FF00
03FF00
ENDCHAR
STARTCHAR uni1E07
ENCODING 7687
SWIDTH 605 0
DWIDTH 20 0
BBX 19 29 0 -4
BITMAP
0E0000
FE0000
7E0000
3E0000
3E0000
3E0000
3E0000
3E0000
3E1E00
3E7F00
3FFF80
3F0FC0
3E07C0
3E03E0
3E03E0
3E03E0
3E03E0
3E03E0
3E03E0
3E03C0
3E07C0
3E07C0
3F0F80
3FFF00
11F800
000000
07FE00
07FE00
07FE00
ENDCHAR
STARTCHAR uni1E08
ENCODING 7688
SWIDTH 689 0
DWIDTH 23 0
BBX 20 41 1 -8
BITMAP
000200
000F00
001F00
003E00
007C00
00F000
01C000
010000
000000
001F80
03FFE0
0FC0F0
1F8070
3F0030
3E0030
7E0010
7E0010
7C0000
FC0000
FC0000
FC0000
FC0000
FC0000
FC0000
7C0000
7E0010
7E0010
3E0030
3F0030
1F8070
0FE0F0
03FFE0
003F00
001800
001800
003E00
003E00
001F00
000F00
001E00
007C00
ENDCHAR
STARTCHAR uni1E09
ENCODING 7689
SWIDTH 494 0
DWIDTH 16 0
BBX 16 34 1 -8
BITMAP
0008
003C
007C
00F8
01F0
03C0
0700
0400
0000
01E0
0FFC
3E3E
3C1F
7C1E
780C
F800
F800
F800
F800
F800
FC03
7C02
7F06
3FFC
1FF8
03C0
0180
0380
07C0
07E0
01F0
00F0
01E0
0FC0
ENDCHAR
STARTCHAR uni1E0A
ENCODING 7690
SWIDTH 777 0
DWIDTH 26 0
BBX 24 30 1 0
BITMAP
003800
007C00
007C00
007C00
003800
000000
FFFC00
1FFFC0
1F03F0
1F01F8
1F00FC
1F007C
1F007E
1F003E
1F003E
1F003F
1F003F
1F003F
1F003F
1F003F
1F003F
1F003F
1F007E
1F007E
1F007E
1F00FC
1F01F8
1F03F0
1FFFC0
FFFE00
ENDCHAR
STARTCHAR uni1E0B
ENCODING 7691
SWIDTH 605 0
DWIDTH 20 0
BBX 19 31 1 0
BITMAP
001C00
003E00
003E00
003E00
001C00
000000
000380
003F80
001F80
000F80
000F80
000F80
000F80
000F80
01CF80
0FFF80
3E1F80
3C0F80
7C0F80
780F80
F80F80
F80F80
F80F80
F80F80
F80F80
F80F80
7C0F80
7C0F80
3E1F80
1FEF80
070FE0
ENDCHAR
STARTCHAR uni1E0C
ENCODING 7692
SWIDTH 777 0
DWIDTH 26 0
BBX 24 30 1 -6
BITMAP
FFFC00
1FFFC0
1F03F0
1F01F8
1F00FC
1F007C
1F007E
1F003E
1F003E
1F003F
1F003F
1F003F
1F003F
1F003F
1F003F
1F003F
1F007E
1F007E
1F007E
1F00FC
1F01F8
1F03F0
1FFFC0
FFFE00
000000
003800
007C00
007C00
007C00
003800
ENDCHAR
STARTCHAR uni1E0D
ENCODING 7693
SWIDTH 605 0
DWIDTH 20 0
BBX 19 31 1 -6
BITMAP
000380
003F80
001F80
000F80
000F80
000F80
000F80
000F80
01CF80
0FFF80
3E1F80
3C0F80
7C0F80
780F80
F80F80
F80F80
F80F80
F80F80
F80F80
F80F80
7C0F80
7C0F80
3E1F80
1FEF80
070FE0
000000
00E000
01F000
01F000
01F000
00E000
ENDCHAR
STARTCHAR uni1E0E
ENCODING 7694
SWIDTH 777 0
DWIDTH 26 0
BBX 24 28 1 -4
BITMAP
FFFC00
1FFFC0
1F03F0
1F01F8
1F00FC
1F007C
1F007E
1F003E
1F003E
1F003F
1F003F
1F003F
1F003F
1F003F
1F003F
1F003F
1F007E
1F007E
1F007E
1F00FC
1F01F8
1F03F0
1FFFC0
FFFE00
000000
01FF80
01FF80
01FF80
ENDCHAR
STARTCHAR uni1E0F
ENCODING 7695
SWIDTH 605 0
DWIDTH 20 0
BBX 19 29 1 -4
BITMAP
000380
003F80
001F80
000F80
000F80
000F80
000F80
000F80
01CF80
0FFF80
3E1F80
3C0F80
7C0F80
780F80
F80F80
F80F80
F80F80
F80F80
F80F80
F80F80
7C0F80
7C0F80
3E1F80
1FEF80
070FE0
000000
07FE00
07FE00
07FE00
ENDCHAR
STARTCHAR uni1E10
ENCODING 7696
SWIDTH 777 0
DWIDTH 26 0
BBX 24 32 1 -8
BITMAP
FFFC00
1FFFC0
1F03F0
1F01F8
1F00FC
1F007C
1F007E
1F003E
1F003E
1F003F
1F003F
1F003F
1F003F
1F003F
1F003F
1F003F
1F007E
1F007E
1F007E
1F00FC
1F01F8
1F03F0
1FFFC0
FFFE00
003800
003000
007800
007C00
003E00
001E00
003C00
00F800
ENDCHAR
STARTCHAR uni1E11
ENCODING 7697
SWIDTH 605 0
DWIDTH 20 0
BBX 19 33 1 -8
BITMAP
000380
003F80
001F80
000F80
000F80
000F80
000F80
000F80
01CF80
0FFF80
3E1F80
3C0F80
7C0F80
780F80
F80F80
F80F80
F80F80
F80F80
F80F80
F80F80
7C0F80
7C0F80
3E1F80
1FEF80
070FE0
00E000
00C000
01E000
01F000
00F800
007800
00F000
03E000
ENDCHAR
STARTCHAR uni1E12
ENCODING 7698
SWIDTH 777 0
DWIDTH 26 0
BBX 24 33 1 -9
BITMAP
FFFC00
1FFFC0
1F03F0
1F01F8
1F00FC
1F007C
1F007E
1F003E
1F003E
1F003F
1F003F
1F003F
1F003F
1F003F
1F003F
1F003F
1F007E
1F007E
1F007E
1F00FC
1F01F8
1F03F0
1FFFC0
FFFE00
000000
001000
003C00
003C00
007E00
00E700
01C380
0300C0
020040
ENDCHAR
STARTCHAR uni1E13
ENCODING 7699
SWIDTH 605 0
DWIDTH 20 0
BBX 19 34 1 -9
BITMAP
000380
003F80
001F80
000F80
000F80
000F80
000F80
000F80
01CF80
0FFF80
3E1F80
3C0F80
7C0F80
780F80
F80F80
F80F80
F80F80
F80F80
F80F80
F80F80
7C0F80
7C0F80
3E1F80
1FEF80
070FE0
000000
004000
00F000
00F000
01F800
039C00
070E00
0C0300
080100
ENDCHAR
STARTCHAR uni1E14
ENCODING 7700
SWIDTH 629 0
DWIDTH 21 0
BBX 19 37 1 0
BITMAP
080000
1E0000
1F0000
0F8000
07C000
01E000
007000
001000
000000
0FFC00
0FFC00
0FFC00
000000
FFFFC0
1FFFC0
1F03C0
1F01C0
1F00C0
1F00C0
1F0040
1F0000
1F0200
1F0600
1F0600
1FFE00
1FFE00
1F0600
1F0200
1F0200
1F0000
1F0020
1F0060
1F0060
1F00E0
1F81E0
1FFFE0
FFFFE0
ENDCHAR
STARTCHAR uni1E15
ENCODING 7701
SWIDTH 519 0
DWIDTH 17 0
BBX 16 30 1 0
BITMAP
1000
3C00
3E00
1F00
0F80
03C0
00E0
0020
0000
1FF8
1FF8
1FF8
0000
03C0
0FF8
3E3C
3C1E
781E
781F
F81F
FFFF
FFFF
F800
F800
FC00
7C03
7E06
3FFC
1FF8
03E0
ENDCHAR
STARTCHAR uni1E16
ENCODING 7702
SWIDTH 629 0
DWIDTH 21 0
BBX 19 37 1 0
BITMAP
000200
000F00
001F00
003E00
007C00
00F000
01C000
010000
000000
0FFC00
0FFC00
0FFC00
000000
FFFFC0
1FFFC0
1F03C0
1F01C0
1F00C0
1F00C0
1F0040
1F0000
1F0200
1F0600
1F0600
1FFE00
1FFE00
1F0600
1F0200
1F0200
1F0000
1F0020
1F0060
1F0060
1F00E0
1F81E0
1FFFE0
FFFFE0
ENDCHAR
STARTCHAR uni1E17
ENCODING 7703
SWIDTH 519 0
DWIDTH 17 0
BBX 16 30 1 0
BITMAP
0008
003C
007C
00F8
01F0
03C0
0700
0400
0000
1FF8
1FF8
1FF8
0000
03C0
0FF8
3E3C
3C1E
781E
781F
F81F
FFFF
FFFF
F800
F800
FC00
7C03
7E06
3FFC
1FF8
03E0
ENDCHAR
STARTCHAR uni1E18
ENCODING 7704
SWIDTH 629 0
DWIDTH 21 0
BBX 19 33 1 -9
BITMAP
FFFFC0
1FFFC0
1F03C0
1F01C0
1F00C0
1F00C0
1F0040
1F0000
1F0200
1F0600
1F0600
1FFE00
1FFE00
1F0600
1F0200
1F0200
1F0000
1F0020
1F0060
1F0060
1F00E0
1F81E0
1FFFE0
FFFFE0
000000
004000
00F000
00F000
01F800
039C00
070E00
0C0300
080100
ENDCHAR
STARTCHAR uni1E19
ENCODING 7705
SWIDTH 519 0
DWIDTH 17 0
BBX 16 26 1 -9
BITMAP
03C0
0FF8
3E3C
3C1E
781E
781F
F81F
FFFF
FFFF
F800
F800
FC00
7C03
7E06
3FFC
1FF8
03E0
0000
0100
03C0
03C0
07E0
0E70
1C38
300C
2004
ENDCHAR
STARTCHAR uni1E1A
ENCODING 7706
SWIDTH 629 0
DWIDTH 21 0
BBX 19 30 1 -6
BITMAP
FFFFC0
1FFFC0
1F03C0
1F01C0
1F00C0
1F00C0
1F0040
1F0000
1F0200
1F0600
1F0600
1FFE00
1FFE00
1F0600
1F0200
1F0200
1F0000
1F0020
1F0060
1F0060
1F00E0
1F81E0
1FFFE0
FFFFE0
000000
010080
07F100
0FFF00
08FE00
100800
ENDCHAR
STARTCHAR uni1E1B
ENCODING 7707
SWIDTH 519 0
DWIDTH 17 0
BBX 16 23 1 -6
BITMAP
03C0
0FF8
3E3C
3C1E
781E
781F
F81F
FFFF
FFFF
F800
F800
FC00
7C03
7E06
3FFC
1FF8
03E0
0000
0402
1FC4
3FFC
23F8
4020
ENDCHAR
STARTCHAR uni1E1C
ENCODING 7708
SWIDTH 629 0
DWIDTH 21 0
BBX 19 38 1 -8
BITMAP
080400
0C0C00
07F800
07F800
01E000
000000
FFFFC0
1FFFC0
1F03C0
1F01C0
1F00C0
1F00C0
1F0040
1F0000
1F0200
1F0600
1F0600
1FFE00
1FFE00
1F0600
1F0200
1F0200
1F0000
1F0020
1F0060
1F0060
1F00E0
1F81E0
1FFFE0
FFFFE0
00E000
00C000
01E000
01F000
00F800
007800
00F000
03E000
ENDCHAR
STARTCHAR uni1E1D
ENCODING 7709
SWIDTH 519 0
DWIDTH 17 0
BBX 16 31 1 -8
BITMAP
1008
1818
0FF0
0FF0
03C0
0000
03C0
0FF8
3E3C
3C1E
781E
781F
F81F
FFFF
FFFF
F800
F800
FC00
7C03
7E06
3FFC
1FF8
03E0
0380
0300
0780
07C0
03E0
01E0
03C0
0F80
ENDCHAR
STARTCHAR uni1E1E
ENCODING 7710
SWIDTH 593 0
DWIDTH 20 0
BBX 18 30 1 0
BITMAP
01C000
03E000
03E000
03E000
01C000
000000
FFFFC0
1FFFC0
1F01C0
1F00C0
1F00C0
1F0040
1F0000
1F0000
1F0000
1F0100
1F0300
1F0300
1FFF00
1FFF00
1F0300
1F0100
1F0100
1F0000
1F0000
1F0000
1F0000
1F0000
1F0000
FFE000
ENDCHAR
STARTCHAR uni1E1F
ENCODING 7711
SWIDTH 342 0
DWIDTH 11 0
BBX 13 31 1 0
BITMAP
0700
0F80
0F80
0F80
0700
0000
03C0
0FF0
1CF0
1C78
3C70
3E00
3E00
3E00
FFC0
FFC0
3E00
3E00
3E00
3E00
3E00
3E00
3E00
3E00
3E00
3E00
3E00
3E00
3E00
3E00
FFC0
ENDCHAR
STARTCHAR uni1E20
ENCODING 7712
SWIDTH 726 0
DWIDTH 24 0
BBX 23 28 1 0
BITMAP
03FF00
03FF00
03FF00
000000
007F80
03FFE0
0FC0F0
1F8070
3F0070
3F0030
7E0030
7E0010
FC0000
FC0000
FC0000
FC0000
FC0000
FC0000
FC07FE
FC00F8
7C00F8
7E00F8
7E00F8
3F00F8
1F80F8
0FC0F8
03FFF0
007F00
ENDCHAR
STARTCHAR uni1E21
ENCODING 7713
SWIDTH 533 0
DWIDTH 18 0
BBX 17 29 1 -8
BITMAP
1FF800
1FF800
1FF800
000000
078180
1FFF80
7C7F00
7C3C00
F83E00
F83E00
F83E00
7C3C00
7C7C00
1FF800
0FC000
380000
380000
7FF800
7FFE00
3FFF00
1FFF80
3C0F80
780780
F80780
F80700
7C0700
7E1E00
3FFC00
07E000
ENDCHAR
STARTCHAR uni1E22
ENCODING 7714
SWIDTH 807 0
DWIDTH 27 0
BBX 25 30 1 0
BITMAP
001C0000
003E0000
003E0000
003E0000
001C0000
00000000
FFE3FF80
1F007C00
1F007C00
1F007C00
1F007C00
1F007C00
1F007C00
1F007C00
1F007C00
1F007C00
1F007C00
1FFFFC00
1FFFFC00
1F007C00
1F007C00
1F007C00
1F007C00
1F007C00
1F007C00
1F007C00
1F007C00
1F007C00
1F007C00
FFE3FF80
ENDCHAR
STARTCHAR uni1E23
ENCODING 7715
SWIDTH 631 0
DWIDTH 21 0
BBX 20 31 1 0
BITMAP
070000
0F8000
0F8000
0F8000
070000
000000
0E0000
FE0000
7E0000
3E0000
3E0000
3E0000
3E0000
3E0000
3E1E00
3E7F80
3FFF80
3F0FC0
3E07C0
3E07C0
3E07C0
3E07C0
3E07C0
3E07C0
3E07C0
3E07C0
3E07C0
3E07C0
3E07C0
3E07C0
FF9FF0
ENDCHAR
STARTCHAR uni1E24
ENCODING 7716
SWIDTH 807 0
DWIDTH 27 0
BBX 25 30 1 -6
BITMAP
FFE3FF80
1F007C00
1F007C00
1F007C00
1F007C00
1F007C00
1F007C00
1F007C00
1F007C00
1F007C00
1F007C00
1FFFFC00
1FFFFC00
1F007C00
1F007C00
1F007C00
1F007C00
1F007C00
1F007C00
1F007C00
1F007C00
1F007C00
1F007C00
FFE3FF80
00000000
001C0000
003E0000
003E0000
003E0000
001C0000
ENDCHAR
STARTCHAR uni1E25
ENCODING 7717
SWIDTH 631 0
DWIDTH 21 0
BBX 20 31 1 -6
BITMAP
0E0000
FE0000
7E0000
3E0000
3E0000
3E0000
3E0000
3E0000
3E1E00
3E7F80
3FFF80
3F0FC0
3E07C0
3E07C0
3E07C0
3E07C0
3E07C0
3E07C0
3E07C0
3E07C0
3E07C0
3E07C0
3E07C0
3E07C0
FF9FF0
000000
007000
00F800
00F800
00F800
007000
ENDCHAR
STARTCHAR uni1E26
ENCODING 7718
SWIDTH 807 0
DWIDTH 27 0
BBX 25 30 1 0
BITMAP
00C18000
03E3E000
03E3E000
03E3E000
00C18000
00000000
FFE3FF80
1F007C00
1F007C00
1F007C00
1F007C00
1F007C00
1F007C00
1F007C00
1F007C00
1F007C00
1F007C00
1FFFFC00
1FFFFC00
1F007C00
1F007C00
1F007C00
1F007C00
1F007C00
1F007C00
1F007C00
1F007C00
1F007C00
1F007C00
FFE3FF80
ENDCHAR
STARTCHAR uni1E27
ENCODING 7719
SWIDTH 631 0
DWIDTH 21 0
BBX 20 31 1 0
BITMAP
306000
F8F800
F8F800
F8F800
306000
000000
0E0000
FE0000
7E0000
3E0000
3E0000
3E0000
3E0000
3E0000
3E1E00
3E7F80
3FFF80
3F0FC0
3E07C0
3E07C0
3E07C0
3E07C0
3E07C0
3E07C0
3E07C0
3E07C0
3E07C0
3E07C0
3E07C0
3E07C0
FF9FF0
ENDCHAR
STARTCHAR uni1E28
ENCODING 7720
SWIDTH 807 0
DWIDTH 27 0
BBX 25 32 1 -8
BITMAP
FFE3FF80
1F007C00
1F007C00
1F007C00
1F007C00
1F007C00
1F007C00
1F007C00
1F007C00
1F007C00
1F007C00
1FFFFC00
1FFFFC00
1F007C00
1F007C00
1F007C00
1F007C00
1F007C00
1F007C00
1F007C00
1F007C00
1F007C00
1F007C00
FFE3FF80
001C0000
00180000
003C0000
003E0000
001F0000
000F0000
001E0000
007C0000
ENDCHAR
STARTCHAR uni1E29
ENCODING 7721
SWIDTH 631 0
DWIDTH 21 0
BBX 20 33 1 -8
BITMAP
0E0000
FE0000
7E0000
3E0000
3E0000
3E0000
3E0000
3E0000
3E1E00
3E7F80
3FFF80
3F0FC0
3E07C0
3E07C0
3E07C0
3E07C0
3E07C0
3E07C0
3E07C0
3E07C0
3E07C0
3E07C0
3E07C0
3E07C0
FF9FF0
007000
006000
00F000
00F800
007C00
003C00
007800
01F000
ENDCHAR
STARTCHAR uni1E2A
ENCODING 7722
SWIDTH 807 0
DWIDTH 27 0
BBX 25 30 1 -6
BITMAP
FFE3FF80
1F007C00
1F007C00
1F007C00
1F007C00
1F007C00
1F007C00
1F007C00
1F007C00
1F007C00
1F007C00
1FFFFC00
1FFFFC00
1F007C00
1F007C00
1F007C00
1F007C00
1F007C00
1F007C00
1F007C00
1F007C00
1F007C00
1F007C00
FFE3FF80
00000000
00804000
00C0C000
007F8000
007F8000
001E0000
ENDCHAR
STARTCHAR uni1E2B
ENCODING 7723
SWIDTH 631 0
DWIDTH 21 0
BBX 20 31 1 -6
BITMAP
0E0000
FE0000
7E0000
3E0000
3E0000
3E0000
3E0000
3E0000
3E1E00
3E7F80
3FFF80
3F0FC0
3E07C0
3E07C0
3E07C0
3E07C0
3E07C0
3E07C0
3E07C0
3E07C0
3E07C0
3E07C0
3E07C0
3E07C0
FF9FF0
000000
040200
060600
03FC00
03FC00
00F000
ENDCHAR
STARTCHAR uni1E2C
ENCODING 7724
SWIDTH 384 0
DWIDTH 13 0
BBX 14 30 0 -6
BITMAP
7FF0
0F80
0F80
0F80
0F80
0F80
0F80
0F80
0F80
0F80
0F80
0F80
0F80
0F80
0F80
0F80
0F80
0F80
0F80
0F80
0F80
0F80
0F80
7FF0
0000
0804
3F88
7FF8
47F0
8040
ENDCHAR
STARTCHAR uni1E2D
ENCODING 7725
SWIDTH 316 0
DWIDTH 11 0
BBX 14 30 -1 -6
BITMAP
0600
0F80
1F80
0F80
0F80
0600
0000
0380
3F80
1F80
0F80
0F80
0F80
0F80
0F80
0F80
0F80
0F80
0F80
0F80
0F80
0F80
0F80
3FE0
0000
0804
3F88
7FF8
47F0
8040
ENDCHAR
STARTCHAR uni1E2E
ENCODING 7726
SWIDTH 384 0
DWIDTH 13 0
BBX 13 38 0 0
BITMAP
0010
0078
00F8
01F0
03E0
0780
0E00
0800
0000
7070
F8F8
F8F8
F8F8
7070
7FF0
0F80
0F80
0F80
0F80
0F80
0F80
0F80
0F80
0F80
0F80
0F80
0F80
0F80
0F80
0F80
0F80
0F80
0F80
0F80
0F80
0F80
0F80
7FF0
ENDCHAR
STARTCHAR uni1E2F
ENCODING 7727
SWIDTH 316 0
DWIDTH 11 0
BBX 13 33 -1 0
BITMAP
0010
0078
00F8
01F0
03E0
0780
0E00
0800
0000
7070
F8F8
F8F8
F8F8
7070
0000
0000
0380
3F80
1F80
0F80
0F80
0F80
0F80
0F80
0F80
0F80
0F80
0F80
0F80
0F80
0F80
0F80
3FE0
ENDCHAR
STARTCHAR uni1E30
ENCODING 7728
SWIDTH 707 0
DWIDTH 24 0
BBX 23 33 1 0
BITMAP
000100
000780
000F80
001F00
003E00
007800
00E000
008000
000000
FFE3FE
1F00F8
1F01E0
1F01C0
1F0380
1F0700
1F0E00
1F1C00
1F3800
1F3800
1F7800
1FFC00
1FFE00
1F7E00
1F7F00
1F3F80
1F3F80
1F1FC0
1F0FE0
1F0FE0
1F07F0
1F03F8
1F01FC
FFE03E
ENDCHAR
STARTCHAR uni1E31
ENCODING 7729
SWIDTH 582 0
DWIDTH 19 0
BBX 19 34 1 0
BITMAP
002000
00F000
01F000
03E000
07C000
0F0000
1C0000
100000
000000
0E0000
FE0000
7E0000
3E0000
3E0000
3E0000
3E0000
3E0000
3E0FC0
3E1F80
3E3E00
3E3C00
3E7800
3E6000
3EE000
3FF000
3FF000
3FF800
3EFC00
3E7C00
3E7E00
3E3F00
3E3F80
3E1FC0
FF87E0
ENDCHAR
STARTCHAR uni1E32
ENCODING 7730
SWIDTH 707 0
DWIDTH 24 0
BBX 23 30 1 -6
BITMAP
FFE3FE
1F00F8
1F01E0
1F01C0
1F0380
1F0700
1F0E00
1F1C00
1F3800
1F3800
1F7800
1FFC00
1FFE00
1F7E00
1F7F00
1F3F80
1F3F80
1F1FC0
1F0FE0
1F0FE0
1F07F0
1F03F8
1F01FC
FFE03E
000000
003800
007C00
007C00
007C00
003800
ENDCHAR
STARTCHAR uni1E33
ENCODING 7731
SWIDTH 582 0
DWIDTH 19 0
BBX 19 31 1 -6
BITMAP
0E0000
FE0000
7E0000
3E0000
3E0000
3E0000
3E0000
3E0000
3E0FC0
3E1F80
3E3E00
3E3C00
3E7800
3E6000
3EE000
3FF000
3FF000
3FF800
3EFC00
3E7C00
3E7E00
3E3F00
3E3F80
3E1FC0
FF87E0
000000
00E000
01F000
01F000
01F000
00E000
ENDCHAR
STARTCHAR uni1E34
ENCODING 7732
SWIDTH 707 0
DWIDTH 24 0
BBX 23 28 1 -4
BITMAP
FFE3FE
1F00F8
1F01E0
1F01C0
1F0380
1F0700
1F0E00
1F1C00
1F3800
1F3800
1F7800
1FFC00
1FFE00
1F7E00
1F7F00
1F3F80
1F3F80
1F1FC0
1F0FE0
1F0FE0
1F07F0
1F03F8
1F01FC
FFE03E
000000
01FF80
01FF80
01FF80
ENDCHAR
STARTCHAR uni1E35
ENCODING 7733
SWIDTH 582 0
DWIDTH 19 0
BBX 19 29 1 -4
BITMAP
0E0000
FE0000
7E0000
3E0000
3E0000
3E0000
3E0000
3E0000
3E0FC0
3E1F80
3E3E00
3E3C00
3E7800
3E6000
3EE000
3FF000
3FF000
3FF800
3EFC00
3E7C00
3E7E00
3E3F00
3E3F80
3E1FC0
FF87E0
000000
0FFC00
0FFC00
0FFC00
ENDCHAR
STARTCHAR uni1E36
ENCODING 7734
SWIDTH 585 0
DWIDTH 20 0
BBX 18 30 1 -6
BITMAP
FFE000
1F0000
1F0000
1F0000
1F0000
1F0000
1F0000
1F0000
1F0000
1F0000
1F0000
1F0000
1F0000
1F0000
1F0000
1F0000
1F0000
1F0040
1F00C0
1F00C0
1F01C0
1F83C0
1FFFC0
FFFFC0
000000
00E000
01F000
01F000
01F000
00E000
ENDCHAR
STARTCHAR uni1E37
ENCODING 7735
SWIDTH 309 0
DWIDTH 10 0
BBX 9 31 1 -6
BITMAP
0E00
FE00
7E00
3E00
3E00
3E00
3E00
3E00
3E00
3E00
3E00
3E00
3E00
3E00
3E00
3E00
3E00
3E00
3E00
3E00
3E00
3E00
3E00
3E00
FF80
0000
1C00
3E00
3E00
3E00
1C00
ENDCHAR
STARTCHAR uni1E38
ENCODING 7736
SWIDTH 585 0
DWIDTH 20 0
BBX 18 34 1 -6
BITMAP
3FF000
3FF000
3FF000
000000
FFE000
1F0000
1F0000
1F0000
1F0000
1F0000
1F0000
1F0000
1F0000
1F0000
1F0000
1F0000
1F0000
1F0000
1F0000
1F0000
1F0000
1F0040
1F00C0
1F00C0
1F01C0
1F83C0
1FFFC0
FFFFC0
000000
00E000
01F000
01F000
01F000
00E000
ENDCHAR
STARTCHAR uni1E39
ENCODING 7737
SWIDTH 309 0
DWIDTH 10 0
BBX 10 35 0 -6
BITMAP
FFC0
FFC0
FFC0
0000
0700
7F00
3F00
1F00
1F00
1F00
1F00
1F00
1F00
1F00
1F00
1F00
1F00
1F00
1F00
1F00
1F00
1F00
1F00
1F00
1F00
1F00
1F00
1F00
7FC0
0000
0E00
1F00
1F00
1F00
0E00
ENDCHAR
STARTCHAR uni1E3A
ENCODING 7738
SWIDTH 585 0
DWIDTH 20 0
BBX 18 28 1 -4
BITMAP
FFE000
1F0000
1F0000
1F0000
1F0000
1F0000
1F0000
1F0000
1F0000
1F0000
1F0000
1F0000
1F0000
1F0000
1F0000
1F0000
1F0000
1F0040
1F00C0
1F00C0
1F01C0
1F83C0
1FFFC0
FFFFC0
000000
0FFC00
0FFC00
0FFC00
ENDCHAR
STARTCHAR uni1E3B
ENCODING 7739
SWIDTH 309 0
DWIDTH 10 0
BBX 10 29 1 -4
BITMAP
0E00
FE00
7E00
3E00
3E00
3E00
3E00
3E00
3E00
3E00
3E00
3E00
3E00
3E00
3E00
3E00
3E00
3E00
3E00
3E00
3E00
3E00
3E00
3E00
FF80
0000
FFC0
FFC0
FFC0
ENDCHAR
STARTCHAR uni1E3C
ENCODING 7740
SWIDTH 585 0
DWIDTH 20 0
BBX 18 33 1 -9
BITMAP
FFE000
1F0000
1F0000
1F0000
1F0000
1F0000
1F0000
1F0000
1F0000
1F0000
1F0000
1F0000
1F0000
1F0000
1F0000
1F0000
1F0000
1F0040
1F00C0
1F00C0
1F01C0
1F83C0
1FFFC0
FFFFC0
000000
008000
01E000
01E000
03F000
073800
0E1C00
180600
100200
ENDCHAR
STARTCHAR uni1E3D
ENCODING 7741
SWIDTH 309 0
DWIDTH 10 0
BBX 12 34 0 -9
BITMAP
0700
7F00
3F00
1F00
1F00
1F00
1F00
1F00
1F00
1F00
1F00
1F00
1F00
1F00
1F00
1F00
1F00
1F00
1F00
1F00
1F00
1F00
1F00
1F00
7FC0
0000
0400
0F00
0F00
1F80
39C0
70E0
C030
8010
ENDCHAR
STARTCHAR uni1E3E
ENCODING 7742
SWIDTH 918 0
DWIDTH 31 0
BBX 30 33 0 0
BITMAP
00001000
00007800
0000F800
0001F000
0003E000
00078000
000E0000
00080000
00000000
FF8007FC
1FC007E0
1FC00FE0
1FE00FE0
1BE01BE0
1BE01BE0
1BF01BE0
19F033E0
19F033E0
19F833E0
18F863E0
18FC63E0
18FC63E0
187CC3E0
187EC3E0
183FC3E0
183F83E0
183F83E0
181F03E0
181F03E0
181F03E0
180E03E0
3C0E03E0
7F061FFC
ENDCHAR
STARTCHAR uni1E3F
ENCODING 7743
SWIDTH 948 0
DWIDTH 32 0
BBX 31 26 1 0
BITMAP
00001000
00007800
0000F800
0001F000
0003E000
00078000
000E0000
00080000
00000000
0E0C01C0
FE7F0FF0
7FFFBFF0
3F0FE1F8
3F07E0F8
3E07C0F8
3E07C0F8
3E07C0F8
3E07C0F8
3E07C0F8
3E07C0F8
3E07C0F8
3E07C0F8
3E07C0F8
3E07C0F8
3E07C0F8
FF9FF3FE
ENDCHAR
STARTCHAR uni1E40
ENCODING 7744
SWIDTH 918 0
DWIDTH 31 0
BBX 30 30 0 0
BITMAP
00070000
000F8000
000F8000
000F8000
00070000
00000000
FF8007FC
1FC007E0
1FC00FE0
1FE00FE0
1BE01BE0
1BE01BE0
1BF01BE0
19F033E0
19F033E0
19F833E0
18F863E0
18FC63E0
18FC63E0
187CC3E0
187EC3E0
183FC3E0
183F83E0
183F83E0
181F03E0
181F03E0
181F03E0
180E03E0
3C0E03E0
7F061FFC
ENDCHAR
STARTCHAR uni1E41
ENCODING 7745
SWIDTH 948 0
DWIDTH 32 0
BBX 31 23 1 0
BITMAP
00070000
000F8000
000F8000
000F8000
00070000
00000000
0E0C01C0
FE7F0FF0
7FFFBFF0
3F0FE1F8
3F07E0F8
3E07C0F8
3E07C0F8
3E07C0F8
3E07C0F8
3E07C0F8
3E07C0F8
3E07C0F8
3E07C0F8
3E07C0F8
3E07C0F8
3E07C0F8
FF9FF3FE
ENDCHAR
STARTCHAR uni1E42
ENCODING 7746
SWIDTH 918 0
DWIDTH 31 0
BBX 30 30 0 -6
BITMAP
FF8007FC
1FC007E0
1FC00FE0
1FE00FE0
1BE01BE0
1BE01BE0
1BF01BE0
19F033E0
19F033E0
19F833E0
18F863E0
18FC63E0
18FC63E0
187CC3E0
187EC3E0
183FC3E0
183F83E0
183F83E0
181F03E0
181F03E0
181F03E0
180E03E0
3C0E03E0
7F061FFC
00000000
00038000
0007C000
0007C000
0007C000
00038000
ENDCHAR
STARTCHAR uni1E43
ENCODING 7747
SWIDTH 948 0
DWIDTH 32 0
BBX 31 23 1 -6
BITMAP
0E0C01C0
FE7F0FF0
7FFFBFF0
3F0FE1F8
3F07E0F8
3E07C0F8
3E07C0F8
3E07C0F8
3E07C0F8
3E07C0F8
3E07C0F8
3E07C0F8
3E07C0F8
3E07C0F8
3E07C0F8
3E07C0F8
FF9FF3FE
00000000
00038000
0007C000
0007C000
0007C000
00038000
ENDCHAR
STARTCHAR uni1E44
ENCODING 7748
SWIDTH 739 0
DWIDTH 25 0
BBX 22 30 1 0
BITMAP
007000
00F800
00F800
00F800
007000
000000
FF01FC
1F8078
1F8030
1FC030
1FE030
1BE030
1BF030
19F030
18F830
18FC30
187C30
187E30
183E30
183F30
181FB0
180FB0
180FF0
1807F0
1807F0
1803F0
1801F0
1801F0
3C00F0
7F00F0
ENDCHAR
STARTCHAR uni1E45
ENCODING 7749
SWIDTH 638 0
DWIDTH 21 0
BBX 20 23 1 0
BITMAP
00E000
01F000
01F000
01F000
00E000
000000
0E0E00
FE7F80
7FFF80
3F0FC0
3E07C0
3E07C0
3E07C0
3E07C0
3E07C0
3E07C0
3E07C0
3E07C0
3E07C0
3E07C0
3E07C0
3E07C0
FF9FF0
ENDCHAR
STARTCHAR uni1E46
ENCODING 7750
SWIDTH 739 0
DWIDTH 25 0
BBX 22 30 1 -6
BITMAP
FF01FC
1F8078
1F8030
1FC030
1FE030
1BE030
1BF030
19F030
18F830
18FC30
187C30
187E30
183E30
183F30
181FB0
180FB0
180FF0
1807F0
1807F0
1803F0
1801F0
1801F0
3C00F0
7F00F0
000000
001C00
003E00
003E00
003E00
001C00
ENDCHAR
STARTCHAR uni1E47
ENCODING 7751
SWIDTH 638 0
DWIDTH 21 0
BBX 20 23 1 -6
BITMAP
0E0E00
FE7F80
7FFF80
3F0FC0
3E07C0
3E07C0
3E07C0
3E07C0
3E07C0
3E07C0
3E07C0
3E07C0
3E07C0
3E07C0
3E07C0
3E07C0
FF9FF0
000000
007000
00F800
00F800
00F800
007000
ENDCHAR
STARTCHAR uni1E48
ENCODING 7752
SWIDTH 739 0
DWIDTH 25 0
BBX 22 28 1 -4
BITMAP
FF01FC
1F8078
1F8030
1FC030
1FE030
1BE030
1BF030
19F030
18F830
18FC30
187C30
187E30
183E30
183F30
181FB0
180FB0
180FF0
1807F0
1807F0
1803F0
1801F0
1801F0
3C00F0
7F00F0
000000
01FF80
01FF80
01FF80
ENDCHAR
STARTCHAR uni1E49
ENCODING 7753
SWIDTH 638 0
DWIDTH 21 0
BBX 20 21 1 -4
BITMAP
0E0E00
FE7F80
7FFF80
3F0FC0
3E07C0
3E07C0
3E07C0
3E07C0
3E07C0
3E07C0
3E07C0
3E07C0
3E07C0
3E07C0
3E07C0
3E07C0
FF9FF0
000000
07FE00
07FE00
07FE00
ENDCHAR
STARTCHAR uni1E4A
ENCODING 7754
SWIDTH 739 0
DWIDTH 25 0
BBX 22 33 1 -9
BITMAP
FF01FC
1F8078
1F8030
1FC030
1FE030
1BE030
1BF030
19F030
18F830
18FC30
187C30
187E30
183E30
183F30
181FB0
180FB0
180FF0
1807F0
1807F0
1803F0
1801F0
1801F0
3C00F0
7F00F0
000000
001000
003C00
003C00
007E00
00E700
01C380
0300C0
020040
ENDCHAR
STARTCHAR uni1E4B
ENCODING 7755
SWIDTH 638 0
DWIDTH 21 0
BBX 20 26 1 -9
BITMAP
0E0E00
FE7F80
7FFF80
3F0FC0
3E07C0
3E07C0
3E07C0
3E07C0
3E07C0
3E07C0
3E07C0
3E07C0
3E07C0
3E07C0
3E07C0
3E07C0
FF9FF0
000000
004000
00F000
00F000
01F800
039C00
070E00
0C0300
080100
ENDCHAR
STARTCHAR uni1E4C
ENCODING 7756
SWIDTH 768 0
DWIDTH 26 0
BBX 23 38 1 0
BITMAP
000080
0003C0
0007C0
000F80
001F00
003C00
007000
004000
000000
01E060
03F840
07FFC0
041F80
0C0700
007C00
03FF80
0FC7E0
1F01F0
3E00F8
3E00F8
7E00FC
7E00FC
7C007C
FC007E
FC007E
FC007E
FC007E
FC007E
FC007E
7C007C
7C007C
7E00FC
3E00F8
3E00F8
1F01F0
0FC7E0
03FF80
007C00
ENDCHAR
STARTCHAR uni1E4D
ENCODING 7757
SWIDTH 585 0
DWIDTH 20 0
BBX 17 33 1 0
BITMAP
000400
001E00
003E00
007C00
00F800
01E000
038000
020000
000000
0F0300
1FC200
1FFE00
30FC00
203800
000000
000000
03E000
1FFC00
3E3E00
7C1F00
7C1F00
F80F80
F80F80
F80F80
F80F80
F80F80
F80F80
F80F80
7C1F00
7C1F00
3E3E00
1FFC00
03E000
ENDCHAR
STARTCHAR uni1E4E
ENCODING 7758
SWIDTH 768 0
DWIDTH 26 0
BBX 23 35 1 0
BITMAP
018300
07C7C0
07C7C0
07C7C0
018300
000000
01E060
03F840
07FFC0
041F80
0C0700
007C00
03FF80
0FC7E0
1F01F0
3E00F8
3E00F8
7E00FC
7E00FC
7C007C
FC007E
FC007E
FC007E
FC007E
FC007E
FC007E
7C007C
7C007C
7E00FC
3E00F8
3E00F8
1F01F0
0FC7E0
03FF80
007C00
ENDCHAR
STARTCHAR uni1E4F
ENCODING 7759
SWIDTH 585 0
DWIDTH 20 0
BBX 17 30 1 0
BITMAP
0C1800
3E3E00
3E3E00
3E3E00
0C1800
000000
0F0300
1FC200
1FFE00
30FC00
203800
000000
000000
03E000
1FFC00
3E3E00
7C1F00
7C1F00
F80F80
F80F80
F80F80
F80F80
F80F80
F80F80
F80F80
7C1F00
7C1F00
3E3E00
1FFC00
03E000
ENDCHAR
STARTCHAR uni1E50
ENCODING 7760
SWIDTH 768 0
DWIDTH 26 0
BBX 23 37 1 0
BITMAP
010000
03C000
03E000
01F000
00F800
003C00
000E00
000200
000000
01FF80
01FF80
01FF80
000000
007C00
03FF80
0FC7E0
1F01F0
3E00F8
3E00F8
7E00FC
7E00FC
7C007C
FC007E
FC007E
FC007E
FC007E
FC007E
FC007E
7C007C
7C007C
7E00FC
3E00F8
3E00F8
1F01F0
0FC7E0
03FF80
007C00
ENDCHAR
STARTCHAR uni1E51
ENCODING 7761
SWIDTH 585 0
DWIDTH 20 0
BBX 17 30 1 0
BITMAP
080000
1E0000
1F0000
0F8000
07C000
01E000
007000
001000
000000
0FFC00
0FFC00
0FFC00
000000
03E000
1FFC00
3E3E00
7C1F00
7C1F00
F80F80
F80F80
F80F80
F80F80
F80F80
F80F80
F80F80
7C1F00
7C1F00
3E3E00
1FFC00
03E000
ENDCHAR
STARTCHAR uni1E52
ENCODING 7762
SWIDTH 768 0
DWIDTH 26 0
BBX 23 37 1 0
BITMAP
000080
0003C0
0007C0
000F80
001F00
003C00
007000
004000
000000
01FF80
01FF80
01FF80
000000
007C00
03FF80
0FC7E0
1F01F0
3E00F8
3E00F8
7E00FC
7E00FC
7C007C
FC007E
FC007E
FC007E
FC007E
FC007E
FC007E
7C007C
7C007C
7E00FC
3E00F8
3E00F8
1F01F0
0FC7E0
03FF80
007C00
ENDCHAR
STARTCHAR uni1E53
ENCODING 7763
SWIDTH 585 0
DWIDTH 20 0
BBX 17 30 1 0
BITMAP
000400
001E00
003E00
007C00
00F800
01E000
038000
020000
000000
0FFC00
0FFC00
0FFC00
000000
03E000
1FFC00
3E3E00
7C1F00
7C1F00
F80F80
F80F80
F80F80
F80F80
F80F80
F80F80
F80F80
7C1F00
7C1F00
3E3E00
1FFC00
03E000
ENDCHAR
STARTCHAR uni1E54
ENCODING 7764
SWIDTH 650 0
DWIDTH 22 0
BBX 20 33 1 0
BITMAP
000200
000F00
001F00
003E00
007C00
00F000
01C000
010000
000000
FFFC00
1FFF80
1F0FC0
1F07E0
1F03E0
1F03E0
1F03F0
1F03F0
1F03F0
1F03E0
1F07E0
1F07C0
1F0FC0
1FFF00
1FF800
1F0000
1F0000
1F0000
1F0000
1F0000
1F0000
1F0000
1F0000
FFE000
ENDCHAR
STARTCHAR uni1E55
ENCODING 7765
SWIDTH 615 0
DWIDTH 21 0
BBX 18 34 1 -8
BITMAP
000400
001E00
003E00
007C00
00F800
01E000
038000
020000
000000
0C1C00
FEFE00
7FFF00
3F0F80
3E0F80
3E07C0
3E07C0
3E07C0
3E07C0
3E07C0
3E07C0
3E0780
3E0F80
3E0F80
3F1F00
3FFE00
3FF000
3E0000
3E0000
3E0000
3E0000
3E0000
3E0000
3E0000
FFC000
ENDCHAR
STARTCHAR uni1E56
ENCODING 7766
SWIDTH 650 0
DWIDTH 22 0
BBX 20 30 1 0
BITMAP
007000
00F800
00F800
00F800
007000
000000
FFFC00
1FFF80
1F0FC0
1F07E0
1F03E0
1F03E0
1F03F0
1F03F0
1F03F0
1F03E0
1F07E0
1F07C0
1F0FC0
1FFF00
1FF800
1F0000
1F0000
1F0000
1F0000
1F0000
1F0000
1F0000
1F0000
FFE000
ENDCHAR
STARTCHAR uni1E57
ENCODING 7767
SWIDTH 615 0
DWIDTH 21 0
BBX 18 31 1 -8
BITMAP
00E000
01F000
01F000
01F000
00E000
000000
0C1C00
FEFE00
7FFF00
3F0F80
3E0F80
3E07C0
3E07C0
3E07C0
3E07C0
3E07C0
3E07C0
3E0780
3E0F80
3E0F80
3F1F00
3FFE00
3FF000
3E0000
3E0000
3E0000
3E0000
3E0000
3E0000
3E0000
FFC000
ENDCHAR
STARTCHAR uni1E58
ENCODING 7768
SWIDTH 684 0
DWIDTH 23 0
BBX 22 30 1 0
BITMAP
007000
00F800
00F800
00F800
007000
000000
FFFC00
1FFF80
1F0FC0
1F07E0
1F03F0
1F03F0
1F03F0
1F03F0
1F03E0
1F07E0
1F07C0
1F0F80
1FFE00
1FFF00
1F0F80
1F0FC0
1F07C0
1F07C0
1F07E0
1F07E0
1F03F0
1F03F0
1F03F8
FFE07C
ENDCHAR
STARTCHAR uni1E59
ENCODING 7769
SWIDTH 440 0
DWIDTH 15 0
BBX 14 23 1 0
BITMAP
0380
07C0
07C0
07C0
0380
0000
1E38
FEF8
7FFC
3FF8
3E30
3E00
3E00
3E00
3E00
3E00
3E00
3E00
3E00
3E00
3E00
3E00
FFC0
ENDCHAR
STARTCHAR uni1E5A
ENCODING 7770
SWIDTH 684 0
DWIDTH 23 0
BBX 22 30 1 -6
BITMAP
FFFC00
1FFF80
1F0FC0
1F07E0
1F03F0
1F03F0
1F03F0
1F03F0
1F03E0
1F07E0
1F07C0
1F0F80
1FFE00
1FFF00
1F0F80
1F0FC0
1F07C0
1F07C0
1F07E0
1F07E0
1F03F0
1F03F0
1F03F8
FFE07C
000000
003800
007C00
007C00
007C00
003800
ENDCHAR
STARTCHAR uni1E5B
ENCODING 7771
SWIDTH 440 0
DWIDTH 15 0
BBX 14 23 1 -6
BITMAP
1E38
FEF8
7FFC
3FF8
3E30
3E00
3E00
3E00
3E00
3E00
3E00
3E00
3E00
3E00
3E00
3E00
FFC0
0000
0E00
1F00
1F00
1F00
0E00
ENDCHAR
STARTCHAR uni1E5C
ENCODING 7772
SWIDTH 684 0
DWIDTH 23 0
BBX 22 34 1 -6
BITMAP
03FF00
03FF00
03FF00
000000
FFFC00
1FFF80
1F0FC0
1F07E0
1F03F0
1F03F0
1F03F0
1F03F0
1F03E0
1F07E0
1F07C0
1F0F80
1FFE00
1FFF00
1F0F80
1F0FC0
1F07C0
1F07C0
1F07E0
1F07E0
1F03F0
1F03F0
1F03F8
FFE07C
000000
003800
007C00
007C00
007C00
003800
ENDCHAR
STARTCHAR uni1E5D
ENCODING 7773
SWIDTH 440 0
DWIDTH 15 0
BBX 14 27 1 -6
BITMAP
3FF0
3FF0
3FF0
0000
1E38
FEF8
7FFC
3FF8
3E30
3E00
3E00
3E00
3E00
3E00
3E00
3E00
3E00
3E00
3E00
3E00
FFC0
0000
0E00
1F00
1F00
1F00
0E00
ENDCHAR
STARTCHAR uni1E5E
ENCODING 7774
SWIDTH 684 0
DWIDTH 23 0
BBX 22 28 1 -4
BITMAP
FFFC00
1FFF80
1F0FC0
1F07E0
1F03F0
1F03F0
1F03F0
1F03F0
1F03E0
1F07E0
1F07C0
1F0F80
1FFE00
1FFF00
1F0F80
1F0FC0
1F07C0
1F07C0
1F07E0
1F07E0
1F03F0
1F03F0
1F03F8
FFE07C
000000
03FF00
03FF00
03FF00
ENDCHAR
STARTCHAR uni1E5F
ENCODING 7775
SWIDTH 440 0
DWIDTH 15 0
BBX 14 21 1 -4
BITMAP
1E38
FEF8
7FFC
3FF8
3E30
3E00
3E00
3E00
3E00
3E00
3E00
3E00
3E00
3E00
3E00
3E00
FFC0
0000
FFC0
FFC0
FFC0
ENDCHAR
STARTCHAR uni1E60
ENCODING 7776
SWIDTH 561 0
DWIDTH 19 0
BBX 16 30 2 0
BITMAP
0380
07C0
07C0
07C0
0380
0000
03E0
1FF8
3E3C
7C1C
780C
F80C
F804
FC00
FF00
7FC0
7FE0
3FF8
0FFC
03FE
00FE
007F
803F
C01F
C01F
E01E
F03E
F87C
3FF8
07C0
ENDCHAR
STARTCHAR uni1E61
ENCODING 7777
SWIDTH 446 0
DWIDTH 15 0
BBX 13 23 1 0
BITMAP
0700
0F80
0F80
0F80
0700
0000
0FC0
3FF0
78F0
7830
F830
FC10
FF00
7FC0
7FF0
1FF0
87F8
C1F8
C0F8
E0F0
F0F0
7FE0
0F80
ENDCHAR
STARTCHAR uni1E62
ENCODING 7778
SWIDTH 561 0
DWIDTH 19 0
BBX 16 30 2 -6
BITMAP
03E0
1FF8
3E3C
7C1C
780C
F80C
F804
FC00
FF00
7FC0
7FE0
3FF8
0FFC
03FE
00FE
007F
803F
C01F
C01F
E01E
F03E
F87C
3FF8
07C0
0000
01C0
03E0
03E0
03E0
01C0
ENDCHAR
STARTCHAR uni1E63
ENCODING 7779
SWIDTH 446 0
DWIDTH 15 0
BBX 13 23 1 -6
BITMAP
0FC0
3FF0
78F0
7830
F830
FC10
FF00
7FC0
7FF0
1FF0
87F8
C1F8
C0F8
E0F0
F0F0
7FE0
0F80
0000
0700
0F80
0F80
0F80
0700
ENDCHAR
STARTCHAR uni1E64
ENCODING 7780
SWIDTH 561 0
DWIDTH 19 0
BBX 16 39 2 0
BITMAP
01C0
03E0
03E0
03E0
01C0
0000
0010
0078
00F8
01F0
03E0
0780
0E00
0800
0000
03E0
1FF8
3E3C
7C1C
780C
F80C
F804
FC00
FF00
7FC0
7FE0
3FF8
0FFC
03FE
00FE
007F
803F
C01F
C01F
E01E
F03E
F87C
3FF8
07C0
ENDCHAR
STARTCHAR uni1E65
ENCODING 7781
SWIDTH 446 0
DWIDTH 15 0
BBX 13 32 1 0
BITMAP
0380
07C0
07C0
07C0
0380
0000
0020
00F0
01F0
03E0
07C0
0F00
1C00
1000
0000
0FC0
3FF0
78F0
7830
F830
FC10
FF00
7FC0
7FF0
1FF0
87F8
C1F8
C0F8
E0F0
F0F0
7FE0
0F80
ENDCHAR
STARTCHAR uni1E66
ENCODING 7782
SWIDTH 561 0
DWIDTH 19 0
BBX 16 36 2 0
BITMAP
0380
07C0
07C0
07C0
0380
0000
7018
3C78
1FF0
0FE0
0780
0100
03E0
1FF8
3E3C
7C1C
780C
F80C
F804
FC00
FF00
7FC0
7FE0
3FF8
0FFC
03FE
00FE
007F
803F
C01F
C01F
E01E
F03E
F87C
3FF8
07C0
ENDCHAR
STARTCHAR uni1E67
ENCODING 7783
SWIDTH 446 0
DWIDTH 15 0
BBX 13 31 1 0
BITMAP
0700
0F80
0F80
0F80
0700
0000
8010
C038
7070
39E0
1FC0
0F80
0F00
0200
0FC0
3FF0
78F0
7830
F830
FC10
FF00
7FC0
7FF0
1FF0
87F8
C1F8
C0F8
E0F0
F0F0
7FE0
0F80
ENDCHAR
STARTCHAR uni1E68
ENCODING 7784
SWIDTH 561 0
DWIDTH 19 0
BBX 16 36 2 -6
BITMAP
0700
0F80
0F80
0F80
0700
0000
03E0
1FF8
3E3C
7C1C
780C
F80C
F804
FC00
FF00
7FC0
7FE0
3FF8
0FFC
03FE
00FE
007F
803F
C01F
C01F
E01E
F03E
F87C
3FF8
07C0
0000
01C0
03E0
03E0
03E0
01C0
ENDCHAR
STARTCHAR uni1E69
ENCODING 7785
SWIDTH 446 0
DWIDTH 15 0
BBX 13 29 1 -6
BITMAP
0700
0F80
0F80
0F80
0700
0000
0FC0
3FF0
78F0
7830
F830
FC10
FF00
7FC0
7FF0
1FF0
87F8
C1F8
C0F8
E0F0
F0F0
7FE0
0F80
0000
0700
0F80
0F80
0F80
0700
ENDCHAR
STARTCHAR uni1E6A
ENCODING 7786
SWIDTH 624 0
DWIDTH 21 0
BBX 19 30 1 0
BITMAP
00E000
01F000
01F000
01F000
00E000
000000
FFFFE0
FFFFE0
E1F0E0
C1F060
C1F060
C1F060
81F020
01F000
01F000
01F000
01F000
01F000
01F000
01F000
01F000
01F000
01F000
01F000
01F000
01F000
01F000
01F000
01F000
0FFE00
ENDCHAR
STARTCHAR uni1E6B
ENCODING 7787
SWIDTH 370 0
DWIDTH 12 0
BBX 11 27 1 0
BITMAP
0E00
1F00
1F00
1F00
0E00
0000
0600
0E00
1E00
1E00
FFC0
FFC0
3E00
3E00
3E00
3E00
3E00
3E00
3E00
3E00
3E00
3E00
3E00
3F00
1FE0
1FC0
0700
ENDCHAR
STARTCHAR uni1E6C
ENCODING 7788
SWIDTH 624 0
DWIDTH 21 0
BBX 19 30 1 -6
BITMAP
FFFFE0
FFFFE0
E1F0E0
C1F060
C1F060
C1F060
81F020
01F000
01F000
01F000
01F000
01F000
01F000
01F000
01F000
01F000
01F000
01F000
01F000
01F000
01F000
01F000
01F000
0FFE00
000000
00E000
01F000
01F000
01F000
00E000
ENDCHAR
STARTCHAR uni1E6D
ENCODING 7789
SWIDTH 370 0
DWIDTH 12 0
BBX 11 27 1 -6
BITMAP
0600
0E00
1E00
1E00
FFC0
FFC0
3E00
3E00
3E00
3E00
3E00
3E00
3E00
3E00
3E00
3E00
3E00
3F00
1FE0
1FC0
0700
0000
0E00
1F00
1F00
1F00
0E00
ENDCHAR
STARTCHAR uni1E6E
ENCODING 7790
SWIDTH 624 0
DWIDTH 21 0
BBX 19 28 1 -4
BITMAP
FFFFE0
FFFFE0
E1F0E0
C1F060
C1F060
C1F060
81F020
01F000
01F000
01F000
01F000
01F000
01F000
01F000
01F000
01F000
01F000
01F000
01F000
01F000
01F000
01F000
01F000
0FFE00
000000
07FE00
07FE00
07FE00
ENDCHAR
STARTCHAR uni1E6F
ENCODING 7791
SWIDTH 370 0
DWIDTH 12 0
BBX 11 25 1 -4
BITMAP
0600
0E00
1E00
1E00
FFC0
FFC0
3E00
3E00
3E00
3E00
3E00
3E00
3E00
3E00
3E00
3E00
3E00
3F00
1FE0
1FC0
0700
0000
7FE0
7FE0
7FE0
ENDCHAR
STARTCHAR uni1E70
ENCODING 7792
SWIDTH 624 0
DWIDTH 21 0
BBX 19 33 1 -9
BITMAP
FFFFE0
FFFFE0
E1F0E0
C1F060
C1F060
C1F060
81F020
01F000
01F000
01F000
01F000
01F000
01F000
01F000
01F000
01F000
01F000
01F000
01F000
01F000
01F000
01F000
01F000
0FFE00
000000
004000
00F000
00F000
01F800
039C00
070E00
0C0300
080100
ENDCHAR
STARTCHAR uni1E71
ENCODING 7793
SWIDTH 370 0
DWIDTH 12 0
BBX 12 30 1 -9
BITMAP
0600
0E00
1E00
1E00
FFC0
FFC0
3E00
3E00
3E00
3E00
3E00
3E00
3E00
3E00
3E00
3E00
3E00
3F00
1FE0
1FC0
0700
0000
0400
0F00
0F00
1F80
39C0
70E0
C030
8010
ENDCHAR
STARTCHAR uni1E72
ENCODING 7794
SWIDTH 786 0
DWIDTH 26 0
BBX 23 30 2 -6
BITMAP
FFC7FE
3E00F8
3E00F8
3E00F8
3E00F8
3E00F8
3E00F8
3E00F8
3E00F8
3E00F8
3E00F8
3E00F8
3E00F8
3E00F8
3E00F8
3E00F8
3E00F8
3E00F8
3E00F0
1F01F0
1F01F0
0F83E0
07FF80
00FC00
000000
018300
07C7C0
07C7C0
07C7C0
018300
ENDCHAR
STARTCHAR uni1E73
ENCODING 7795
SWIDTH 629 0
DWIDTH 21 0
BBX 19 23 1 -6
BITMAP
0E0380
FE3F80
7E0F80
3E0F80
3E0F80
3E0F80
3E0F80
3E0F80
3E0F80
3E0F80
3E0F80
3E0F80
3E0F80
3F1F80
1FFF80
1FE780
070FE0
000000
060C00
1F1F00
1F1F00
1F1F00
060C00
ENDCHAR
STARTCHAR uni1E74
ENCODING 7796
SWIDTH 786 0
DWIDTH 26 0
BBX 23 30 2 -6
BITMAP
FFC7FE
3E00F8
3E00F8
3E00F8
3E00F8
3E00F8
3E00F8
3E00F8
3E00F8
3E00F8
3E00F8
3E00F8
3E00F8
3E00F8
3E00F8
3E00F8
3E00F8
3E00F8
3E00F0
1F01F0
1F01F0
0F83E0
07FF80
00FC00
000000
008040
03F880
07FF80
047F00
080400
ENDCHAR
STARTCHAR uni1E75
ENCODING 7797
SWIDTH 629 0
DWIDTH 21 0
BBX 19 23 1 -6
BITMAP
0E0380
FE3F80
7E0F80
3E0F80
3E0F80
3E0F80
3E0F80
3E0F80
3E0F80
3E0F80
3E0F80
3E0F80
3E0F80
3F1F80
1FFF80
1FE780
070FE0
000000
010080
07F100
0FFF00
08FE00
100800
ENDCHAR
STARTCHAR uni1E76
ENCODING 7798
SWIDTH 786 0
DWIDTH 26 0
BBX 23 33 2 -9
BITMAP
FFC7FE
3E00F8
3E00F8
3E00F8
3E00F8
3E00F8
3E00F8
3E00F8
3E00F8
3E00F8
3E00F8
3E00F8
3E00F8
3E00F8
3E00F8
3E00F8
3E00F8
3E00F8
3E00F0
1F01F0
1F01F0
0F83E0
07FF80
00FC00
000000
002000
007800
007800
00FC00
01CE00
038700
060180
040080
ENDCHAR
STARTCHAR uni1E77
ENCODING 7799
SWIDTH 629 0
DWIDTH 21 0
BBX 19 26 1 -9
BITMAP
0E0380
FE3F80
7E0F80
3E0F80
3E0F80
3E0F80
3E0F80
3E0F80
3E0F80
3E0F80
3E0F80
3E0F80
3E0F80
3F1F80
1FFF80
1FE780
070FE0
000000
004000
00F000
00F000
01F800
039C00
070E00
0C0300
080100
ENDCHAR
STARTCHAR uni1E78
ENCODING 7800
SWIDTH 786 0
DWIDTH 26 0
BBX 23 39 2 0
BITMAP
000100
000780
000F80
001F00
003E00
007800
00E000
008000
000000
008040
03F880
07FF80
047F00
080400
000000
FFC7FE
3E00F8
3E00F8
3E00F8
3E00F8
3E00F8
3E00F8
3E00F8
3E00F8
3E00F8
3E00F8
3E00F8
3E00F8
3E00F8
3E00F8
3E00F8
3E00F8
3E00F8
3E00F0
1F01F0
1F01F0
0F83E0
07FF80
00FC00
ENDCHAR
STARTCHAR uni1E79
ENCODING 7801
SWIDTH 629 0
DWIDTH 21 0
BBX 19 32 1 0
BITMAP
000400
001E00
003E00
007C00
00F800
01E000
038000
020000
000000
020100
0FE200
1FFE00
11FC00
201000
000000
0E0380
FE3F80
7E0F80
3E0F80
3E0F80
3E0F80
3E0F80
3E0F80
3E0F80
3E0F80
3E0F80
3E0F80
3E0F80
3F1F80
1FFF80
1FE780
070FE0
ENDCHAR
STARTCHAR uni1E7A
ENCODING 7802
SWIDTH 786 0
DWIDTH 26 0
BBX 23 34 2 0
BITMAP
018300
07C7C0
07C7C0
07C7C0
018300
000000
01FF80
01FF80
01FF80
000000
FFC7FE
3E00F8
3E00F8
3E00F8
3E00F8
3E00F8
3E00F8
3E00F8
3E00F8
3E00F8
3E00F8
3E00F8
3E00F8
3E00F8
3E00F8
3E00F8
3E00F8
3E00F8
3E00F0
1F01F0
1F01F0
0F83E0
07FF80
00FC00
ENDCHAR
STARTCHAR uni1E7B
ENCODING 7803
SWIDTH 629 0
DWIDTH 21 0
BBX 19 27 1 0
BITMAP
060C00
1F1F00
1F1F00
1F1F00
060C00
000000
0FFC00
0FFC00
0FFC00
000000
0E0380
FE3F80
7E0F80
3E0F80
3E0F80
3E0F80
3E0F80
3E0F80
3E0F80
3E0F80
3E0F80
3E0F80
3E0F80
3F1F80
1FFF80
1FE780
070FE0
ENDCHAR
STARTCHAR uni1E7C
ENCODING 7804
SWIDTH 645 0
DWIDTH 22 0
BBX 23 30 0 0
BITMAP
010080
07F100
0FFF00
08FE00
100800
000000
FFC1FE
3F0038
3F0030
1F0070
1F8070
1F8060
0F8060
0F80E0
0FC0C0
07C0C0
07C0C0
07E180
03E180
03E180
03E300
01F300
01F300
01F600
00FE00
00FE00
00FC00
00FC00
007C00
007C00
ENDCHAR
STARTCHAR uni1E7D
ENCODING 7805
SWIDTH 520 0
DWIDTH 17 0
BBX 18 23 0 0
BITMAP
040200
1FC400
3FFC00
23F800
402000
000000
FF9FC0
3E0700
3E0700
3E0600
1F0600
1F0E00
1F0C00
0F8C00
0F9C00
0F9800
079800
07D800
07F000
03F000
03E000
01E000
01E000
ENDCHAR
STARTCHAR uni1E7E
ENCODING 7806
SWIDTH 645 0
DWIDTH 22 0
BBX 23 30 0 -6
BITMAP
FFC1FE
3F0038
3F0030
1F0070
1F8070
1F8060
0F8060
0F80E0
0FC0C0
07C0C0
07C0C0
07E180
03E180
03E180
03E300
01F300
01F300
01F600
00FE00
00FE00
00FC00
00FC00
007C00
007C00
000000
003800
007C00
007C00
007C00
003800
ENDCHAR
STARTCHAR uni1E7F
ENCODING 7807
SWIDTH 520 0
DWIDTH 17 0
BBX 18 23 0 -6
BITMAP
FF9FC0
3E0700
3E0700
3E0600
1F0600
1F0E00
1F0C00
0F8C00
0F9C00
0F9800
079800
07D800
07F000
03F000
03E000
01E000
01E000
000000
01C000
03E000
03E000
03E000
01C000
ENDCHAR
STARTCHAR Wgrave
ENCODING 7808
SWIDTH 933 0
DWIDTH 31 0
BBX 32 33 0 0
BITMAP
00200000
00780000
007C0000
003E0000
001F0000
00078000
0001C000
00004000
00000000
FF8000FF
3E01E01C
3E01E01C
3E01E018
1E03F018
1F03F038
1F03F038
1F03F030
0F06F830
0F86F830
0F86F870
0F867860
0F8C7C60
07CC7C60
07CC7C60
07CC3CC0
07C83EC0
03F83EC0
03F83EC0
03F81F80
03F01F80
01F01F80
01F01F00
01F00F00
ENDCHAR
STARTCHAR wgrave
ENCODING 7809
SWIDTH 774 0
DWIDTH 26 0
BBX 27 26 0 0
BITMAP
00800000
01E00000
01F00000
00F80000
007C0000
001E0000
00070000
00010000
00000000
FF870FE0
3E0F8380
3E0F8380
3E0F8300
1F0FC300
1F1FC700
1F1FC600
0F1BC600
0F9BE600
0FB3EC00
07B1EC00
07F1FC00
07E1FC00
07E0F800
03E0F800
03E0F800
03C0F000
ENDCHAR
STARTCHAR Wacute
ENCODING 7810
SWIDTH 933 0
DWIDTH 31 0
BBX 32 33 0 0
BITMAP
00001000
00007800
0000F800
0001F000
0003E000
00078000
000E0000
00080000
00000000
FF8000FF
3E01E01C
3E01E01C
3E01E018
1E03F018
1F03F038
1F03F038
1F03F030
0F06F830
0F86F830
0F86F870
0F867860
0F8C7C60
07CC7C60
07CC7C60
07CC3CC0
07C83EC0
03F83EC0
03F83EC0
03F81F80
03F01F80
01F01F80
01F01F00
01F00F00
ENDCHAR
STARTCHAR wacute
ENCODING 7811
SWIDTH 774 0
DWIDTH 26 0
BBX 27 26 0 0
BITMAP
00004000
0001E000
0003E000
0007C000
000F8000
001E0000
00380000
00200000
00000000
FF870FE0
3E0F8380
3E0F8380
3E0F8300
1F0FC300
1F1FC700
1F1FC600
0F1BC600
0F9BE600
0FB3EC00
07B1EC00
07F1FC00
07E1FC00
07E0F800
03E0F800
03E0F800
03C0F000
ENDCHAR
STARTCHAR Wdieresis
ENCODING 7812
SWIDTH 933 0
DWIDTH 31 0
BBX 32 30 0 0
BITMAP
00183000
007C7C00
007C7C00
007C7C00
00183000
00000000
FF8000FF
3E01E01C
3E01E01C
3E01E018
1E03F018
1F03F038
1F03F038
1F03F030
0F06F830
0F86F830
0F86F870
0F867860
0F8C7C60
07CC7C60
07CC7C60
07CC3CC0
07C83EC0
03F83EC0
03F83EC0
03F81F80
03F01F80
01F01F80
01F01F00
01F00F00
ENDCHAR
STARTCHAR wdieresis
ENCODING 7813
SWIDTH 774 0
DWIDTH 26 0
BBX 27 23 0 0
BITMAP
00C18000
03E3E000
03E3E000
03E3E000
00C18000
00000000
FF870FE0
3E0F8380
3E0F8380
3E0F8300
1F0FC300
1F1FC700
1F1FC600
0F1BC600
0F9BE600
0FB3EC00
07B1EC00
07F1FC00
07E1FC00
07E0F800
03E0F800
03E0F800
03C0F000
ENDCHAR
STARTCHAR uni1E86
ENCODING 7814
SWIDTH 933 0
DWIDTH 31 0
BBX 32 30 0 0
BITMAP
00038000
0007C000
0007C000
0007C000
00038000
00000000
FF8000FF
3E01E01C
3E01E01C
3E01E018
1E03F018
1F03F038
1F03F038
1F03F030
0F06F830
0F86F830
0F86F870
0F867860
0F8C7C60
07CC7C60
07CC7C60
07CC3CC0
07C83EC0
03F83EC0
03F83EC0
03F81F80
03F01F80
01F01F80
01F01F00
01F00F00
ENDCHAR
STARTCHAR uni1E87
ENCODING 7815
SWIDTH 774 0
DWIDTH 26 0
BBX 27 23 0 0
BITMAP
001C0000
003E0000
003E0000
003E0000
001C0000
00000000
FF870FE0
3E0F8380
3E0F8380
3E0F8300
1F0FC300
1F1FC700
1F1FC600
0F1BC600
0F9BE600
0FB3EC00
07B1EC00
07F1FC00
07E1FC00
07E0F800
03E0F800
03E0F800
03C0F000
ENDCHAR
STARTCHAR uni1E88
ENCODING 7816
SWIDTH 933 0
DWIDTH 31 0
BBX 32 30 0 -6
BITMAP
FF8000FF
3E01E01C
3E01E01C
3E01E018
1E03F018
1F03F038
1F03F038
1F03F030
0F06F830
0F86F830
0F86F870
0F867860
0F8C7C60
07CC7C60
07CC7C60
07CC3CC0
07C83EC0
03F83EC0
03F83EC0
03F81F80
03F01F80
01F01F80
01F01F00
01F00F00
00000000
00038000
0007C000
0007C000
0007C000
00038000
ENDCHAR
STARTCHAR uni1E89
ENCODING 7817
SWIDTH 774 0
DWIDTH 26 0
BBX 27 23 0 -6
BITMAP
FF870FE0
3E0F8380
3E0F8380
3E0F8300
1F0FC300
1F1FC700
1F1FC600
0F1BC600
0F9BE600
0FB3EC00
07B1EC00
07F1FC00
07E1FC00
07E0F800
03E0F800
03E0F800
03C0F000
00000000
000E0000
001F0000
001F0000
001F0000
000E0000
ENDCHAR
STARTCHAR uni1E8A
ENCODING 7818
SWIDTH 634 0
DWIDTH 21 0
BBX 23 30 -1 0
BITMAP
007000
00F800
00F800
00F800
007000
000000
7FE3FC
1F80E0
0F80C0
0FC1C0
07C380
07E300
03F700
03F600
01FC00
00FC00
00FC00
007C00
007E00
007E00
00FF00
019F00
019F80
030FC0
030FC0
0607E0
0E07E0
0C03F0
3C03F8
FF8FFE
ENDCHAR
STARTCHAR uni1E8B
ENCODING 7819
SWIDTH 522 0
DWIDTH 17 0
BBX 18 23 0 0
BITMAP
01C000
03E000
03E000
03E000
01C000
000000
FFBF80
3F1E00
1F1C00
1FB800
0FB000
07F000
07E000
03E000
01E000
01F000
03F000
07F800
067C00
0C7E00
1C3E00
383F00
FE7FC0
ENDCHAR
STARTCHAR uni1E8C
ENCODING 7820
SWIDTH 634 0
DWIDTH 21 0
BBX 23 30 -1 0
BITMAP
030600
0F8F80
0F8F80
0F8F80
030600
000000
7FE3FC
1F80E0
0F80C0
0FC1C0
07C380
07E300
03F700
03F600
01FC00
00FC00
00FC00
007C00
007E00
007E00
00FF00
019F00
019F80
030FC0
030FC0
0607E0
0E07E0
0C03F0
3C03F8
FF8FFE
ENDCHAR
STARTCHAR uni1E8D
ENCODING 7821
SWIDTH 522 0
DWIDTH 17 0
BBX 18 23 0 0
BITMAP
0C1800
3E3E00
3E3E00
3E3E00
0C1800
000000
FFBF80
3F1E00
1F1C00
1FB800
0FB000
07F000
07E000
03E000
01E000
01F000
03F000
07F800
067C00
0C7E00
1C3E00
383F00
FE7FC0
ENDCHAR
STARTCHAR uni1E8E
ENCODING 7822
SWIDTH 617 0
DWIDTH 21 0
BBX 22 30 0 0
BITMAP
007000
00F800
00F800
00F800
007000
000000
FFC3FC
3F00F0
1F00E0
1F80C0
0F81C0
0F8180
0FC380
07C300
07C700
03E600
03E600
01FC00
01FC00
01F800
00F800
00F800
00F800
00F800
00F800
00F800
00F800
00F800
00F800
07FF00
ENDCHAR
STARTCHAR uni1E8F
ENCODING 7823
SWIDTH 524 0
DWIDTH 17 0
BBX 20 31 -1 -8
BITMAP
00E000
01F000
01F000
01F000
00E000
000000
FFC7F0
3F01C0
1F01C0
1F0180
1F8380
0F8300
0FC300
07C700
07C600
07E600
03EC00
03FC00
01FC00
01F800
01F800
00F800
00F000
00F000
00E000
006000
0CC000
1FC000
1F8000
1F8000
0E0000
ENDCHAR
STARTCHAR uni1E90
ENCODING 7824
SWIDTH 614 0
DWIDTH 20 0
BBX 20 33 0 0
BITMAP
002000
007800
007800
00FC00
01CE00
038700
060180
040080
000000
3FFFF0
3FFFF0
3C07E0
300FC0
300FC0
201F80
203F00
003F00
007E00
007C00
00FC00
01F800
01F000
03F000
07E000
07E000
0FC000
0F8030
1F8030
3F0070
3E0070
7E01F0
FFFFF0
FFFFF0
ENDCHAR
STARTCHAR uni1E91
ENCODING 7825
SWIDTH 483 0
DWIDTH 16 0
BBX 15 26 1 0
BITMAP
0100
03C0
03C0
07E0
0E70
1C38
300C
2004
0000
7FFE
7FFE
70FC
60F8
41F8
43F0
03E0
07E0
0FC0
0F80
1F80
1F02
3E06
7E06
7C0E
FFFE
FFFE
ENDCHAR
STARTCHAR uni1E92
ENCODING 7826
SWIDTH 614 0
DWIDTH 20 0
BBX 20 30 0 -6
BITMAP
3FFFF0
3FFFF0
3C07E0
300FC0
300FC0
201F80
203F00
003F00
007E00
007C00
00FC00
01F800
01F000
03F000
07E000
07E000
0FC000
0F8030
1F8030
3F0070
3E0070
7E01F0
FFFFF0
FFFFF0
000000
00E000
01F000
01F000
01F000
00E000
ENDCHAR
STARTCHAR uni1E93
ENCODING 7827
SWIDTH 483 0
DWIDTH 16 0
BBX 15 23 1 -6
BITMAP
7FFE
7FFE
70FC
60F8
41F8
43F0
03E0
07E0
0FC0
0F80
1F80
1F02
3E06
7E06
7C0E
FFFE
FFFE
0000
0380
07C0
07C0
07C0
0380
ENDCHAR
STARTCHAR uni1E94
ENCODING 7828
SWIDTH 614 0
DWIDTH 20 0
BBX 20 28 0 -4
BITMAP
3FFFF0
3FFFF0
3C07E0
300FC0
300FC0
201F80
203F00
003F00
007E00
007C00
00FC00
01F800
01F000
03F000
07E000
07E000
0FC000
0F8030
1F8030
3F0070
3E0070
7E01F0
FFFFF0
FFFFF0
000000
07FE00
07FE00
07FE00
ENDCHAR
STARTCHAR uni1E95
ENCODING 7829
SWIDTH 483 0
DWIDTH 16 0
BBX 15 21 1 -4
BITMAP
7FFE
7FFE
70FC
60F8
41F8
43F0
03E0
07E0
0FC0
0F80
1F80
1F02
3E06
7E06
7C0E
FFFE
FFFE
0000
3FF0
3FF0
3FF0
ENDCHAR
STARTCHAR uni1E96
ENCODING 7830
SWIDTH 631 0
DWIDTH 21 0
BBX 20 29 1 -4
BITMAP
0E0000
FE0000
7E0000
3E0000
3E0000
3E0000
3E0000
3E0000
3E1E00
3E7F80
3FFF80
3F0FC0
3E07C0
3E07C0
3E07C0
3E07C0
3E07C0
3E07C0
3E07C0
3E07C0
3E07C0
3E07C0
3E07C0
3E07C0
FF9FF0
000000
07FE00
07FE00
07FE00
ENDCHAR
STARTCHAR uni1E97
ENCODING 7831
SWIDTH 370 0
DWIDTH 12 0
BBX 13 27 0 0
BITMAP
3060
F8F8
F8F8
F8F8
3060
0000
0300
0700
0F00
0F00
7FE0
7FE0
1F00
1F00
1F00
1F00
1F00
1F00
1F00
1F00
1F00
1F00
1F00
1F80
0FF0
0FE0
0380
ENDCHAR
STARTCHAR uni1E98
ENCODING 7832
SWIDTH 774 0
DWIDTH 26 0
BBX 27 25 0 0
BITMAP
001E0000
00330000
00618000
00618000
00618000
00330000
001E0000
00000000
FF870FE0
3E0F8380
3E0F8380
3E0F8300
1F0FC300
1F1FC700
1F1FC600
0F1BC600
0F9BE600
0FB3EC00
07B1EC00
07F1FC00
07E1FC00
07E0F800
03E0F800
03E0F800
03C0F000
ENDCHAR
STARTCHAR uni1E99
ENCODING 7833
SWIDTH 524 0
DWIDTH 17 0
BBX 20 33 -1 -8
BITMAP
01E000
033000
061800
061800
061800
033000
01E000
000000
FFC7F0
3F01C0
1F01C0
1F0180
1F8380
0F8300
0FC300
07C700
07C600
07E600
03EC00
03FC00
01FC00
01F800
01F800
00F800
00F000
00F000
00E000
006000
0CC000
1FC000
1F8000
1F8000
0E0000
ENDCHAR
STARTCHAR uni1EA0
ENCODING 7840
SWIDTH 644 0
DWIDTH 21 0
BBX 23 30 -1 -6
BITMAP
003C00
007C00
007E00
007E00
00FE00
00FE00
00DF00
019F00
019F00
019F80
030F80
030F80
030FC0
0707C0
07FFC0
07FFE0
0E07E0
0C03E0
0C03E0
1C03F0
1C01F0
1801F0
3801F8
FF0FFE
000000
001C00
003E00
003E00
003E00
001C00
ENDCHAR
STARTCHAR uni1EA1
ENCODING 7841
SWIDTH 544 0
DWIDTH 18 0
BBX 18 23 1 -6
BITMAP
07E000
3FFC00
7C7C00
7C3E00
F83E00
703E00
00FE00
07FE00
1E3E00
7C3E00
783E00
F83E00
F83E00
7C7E00
7FFF00
7F9FC0
1C0C00
000000
01C000
03E000
03E000
03E000
01C000
ENDCHAR
STARTCHAR uni1EA4
ENCODING 7844
SWIDTH 644 0
DWIDTH 21 0
BBX 23 39 -1 0
BITMAP
000080
0003C0
0007C0
000F80
001F00
003C00
007000
004000
000000
001000
003C00
00FE00
01FF00
0383C0
000000
003C00
007C00
007E00
007E00
00FE00
00FE00
00DF00
019F00
019F00
019F80
030F80
030F80
030FC0
0707C0
07FFC0
07FFE0
0E07E0
0C03E0
0C03E0
1C03F0
1C01F0
1801F0
3801F8
FF0FFE
ENDCHAR
STARTCHAR uni1EA5
ENCODING 7845
SWIDTH 544 0
DWIDTH 18 0
BBX 18 34 1 0
BITMAP
000400
001E00
003E00
007C00
00F800
01E000
038000
020000
000000
018000
03C000
07E000
0FF000
0E7800
181800
300E00
200400
07E000
3FFC00
7C7C00
7C3E00
F83E00
703E00
00FE00
07FE00
1E3E00
7C3E00
783E00
F83E00
F83E00
7C7E00
7FFF00
7F9FC0
1C0C00
ENDCHAR
STARTCHAR uni1EA6
ENCODING 7846
SWIDTH 644 0
DWIDTH 21 0
BBX 23 39 -1 0
BITMAP
010000
03C000
03E000
01F000
00F800
003C00
000E00
000200
000000
001000
003C00
00FE00
01FF00
0383C0
000000
003C00
007C00
007E00
007E00
00FE00
00FE00
00DF00
019F00
019F00
019F80
030F80
030F80
030FC0
0707C0
07FFC0
07FFE0
0E07E0
0C03E0
0C03E0
1C03F0
1C01F0
1801F0
3801F8
FF0FFE
ENDCHAR
STARTCHAR uni1EA7
ENCODING 7847
SWIDTH 544 0
DWIDTH 18 0
BBX 18 34 1 0
BITMAP
100000
3C0000
3E0000
1F0000
0F8000
03C000
00E000
002000
000000
018000
03C000
07E000
0FF000
0E7800
181800
300E00
200400
07E000
3FFC00
7C7C00
7C3E00
F83E00
703E00
00FE00
07FE00
1E3E00
7C3E00
783E00
F83E00
F83E00
7C7E00
7FFF00
7F9FC0
1C0C00
ENDCHAR
STARTCHAR uni1EAA
ENCODING 7850
SWIDTH 644 0
DWIDTH 21 0
BBX 23 36 -1 0
BITMAP
004020
01FC40
03FFC0
023F80
040200
000000
001000
003C00
00FE00
01FF00
0383C0
000000
003C00
007C00
007E00
007E00
00FE00
00FE00
00DF00
019F00
019F00
019F80
030F80
030F80
030FC0
0707C0
07FFC0
07FFE0
0E07E0
0C03E0
0C03E0
1C03F0
1C01F0
1801F0
3801F8
FF0FFE
ENDCHAR
STARTCHAR uni1EAB
ENCODING 7851
SWIDTH 544 0
DWIDTH 18 0
BBX 18 31 1 0
BITMAP
040200
1FC400
3FFC00
23F800
402000
000000
018000
03C000
07E000
0FF000
0E7800
181800
300E00
200400
07E000
3FFC00
7C7C00
7C3E00
F83E00
703E00
00FE00
07FE00
1E3E00
7C3E00
783E00
F83E00
F83E00
7C7E00
7FFF00
7F9FC0
1C0C00
ENDCHAR
STARTCHAR uni1EAC
ENCODING 7852
SWIDTH 644 0
DWIDTH 21 0
BBX 23 39 -1 -6
BITMAP
001000
003C00
003C00
007E00
00E700
01C380
0300C0
020040
000000
003C00
007C00
007E00
007E00
00FE00
00FE00
00DF00
019F00
019F00
019F80
030F80
030F80
030FC0
0707C0
07FFC0
07FFE0
0E07E0
0C03E0
0C03E0
1C03F0
1C01F0
1801F0
3801F8
FF0FFE
000000
001C00
003E00
003E00
003E00
001C00
ENDCHAR
STARTCHAR uni1EAD
ENCODING 7853
SWIDTH 544 0
DWIDTH 18 0
BBX 18 32 1 -6
BITMAP
010000
03C000
03C000
07E000
0E7000
1C3800
300C00
200400
000000
07E000
3FFC00
7C7C00
7C3E00
F83E00
703E00
00FE00
07FE00
1E3E00
7C3E00
783E00
F83E00
F83E00
7C7E00
7FFF00
7F9FC0
1C0C00
000000
01C000
03E000
03E000
03E000
01C000
ENDCHAR
STARTCHAR uni1EAE
ENCODING 7854
SWIDTH 644 0
DWIDTH 21 0
BBX 23 39 -1 0
BITMAP
000080
0003C0
0007C0
000F80
001F00
003C00
007000
004000
000000
010080
018180
00FF00
00FF00
003C00
000000
003C00
007C00
007E00
007E00
00FE00
00FE00
00DF00
019F00
019F00
019F80
030F80
030F80
030FC0
0707C0
07FFC0
07FFE0
0E07E0
0C03E0
0C03E0
1C03F0
1C01F0
1801F0
3801F8
FF0FFE
ENDCHAR
STARTCHAR uni1EAF
ENCODING 7855
SWIDTH 544 0
DWIDTH 18 0
BBX 18 32 1 0
BITMAP
000800
003C00
007C00
00F800
01F000
03C000
070000
040000
000000
100800
181800
0FF000
0FF000
03C000
000000
07E000
3FFC00
7C7C00
7C3E00
F83E00
703E00
00FE00
07FE00
1E3E00
7C3E00
783E00
F83E00
F83E00
7C7E00
7FFF00
7F9FC0
1C0C00
ENDCHAR
STARTCHAR uni1EB0
ENCODING 7856
SWIDTH 644 0
DWIDTH 21 0
BBX 23 39 -1 0
BITMAP
010000
03C000
03E000
01F000
00F800
003C00
000E00
000200
000000
010080
018180
00FF00
00FF00
003C00
000000
003C00
007C00
007E00
007E00
00FE00
00FE00
00DF00
019F00
019F00
019F80
030F80
030F80
030FC0
0707C0
07FFC0
07FFE0
0E07E0
0C03E0
0C03E0
1C03F0
1C01F0
1801F0
3801F8
FF0FFE
ENDCHAR
STARTCHAR uni1EB1
ENCODING 7857
SWIDTH 544 0
DWIDTH 18 0
BBX 18 32 1 0
BITMAP
100000
3C0000
3E0000
1F0000
0F8000
03C000
00E000
002000
000000
100800
181800
0FF000
0FF000
03C000
000000
07E000
3FFC00
7C7C00
7C3E00
F83E00
703E00
00FE00
07FE00
1E3E00
7C3E00
783E00
F83E00
F83E00
7C7E00
7FFF00
7F9FC0
1C0C00
ENDCHAR
STARTCHAR uni1EB4
ENCODING 7860
SWIDTH 644 0
DWIDTH 21 0
BBX 23 36 -1 0
BITMAP
004020
01FC40
03FFC0
023F80
040200
000000
010080
018180
00FF00
00FF00
003C00
000000
003C00
007C00
007E00
007E00
00FE00
00FE00
00DF00
019F00
019F00
019F80
030F80
030F80
030FC0
0707C0
07FFC0
07FFE0
0E07E0
0C03E0
0C03E0
1C03F0
1C01F0
1801F0
3801F8
FF0FFE
ENDCHAR
STARTCHAR uni1EB5
ENCODING 7861
SWIDTH 544 0
DWIDTH 18 0
BBX 18 29 1 0
BITMAP
040200
1FC400
3FFC00
23F800
402000
000000
100800
181800
0FF000
0FF000
03C000
000000
07E000
3FFC00
7C7C00
7C3E00
F83E00
703E00
00FE00
07FE00
1E3E00
7C3E00
783E00
F83E00
F83E00
7C7E00
7FFF00
7F9FC0
1C0C00
ENDCHAR
STARTCHAR uni1EB6
ENCODING 7862
SWIDTH 644 0
DWIDTH 21 0
BBX 23 36 -1 -6
BITMAP
010080
018180
00FF00
00FF00
003C00
000000
003C00
007C00
007E00
007E00
00FE00
00FE00
00DF00
019F00
019F00
019F80
030F80
030F80
030FC0
0707C0
07FFC0
07FFE0
0E07E0
0C03E0
0C03E0
1C03F0
1C01F0
1801F0
3801F8
FF0FFE
000000
001C00
003E00
003E00
003E00
001C00
ENDCHAR
STARTCHAR uni1EB7
ENCODING 7863
SWIDTH 544 0
DWIDTH 18 0
BBX 18 29 1 -6
BITMAP
100800
181800
0FF000
0FF000
03C000
000000
07E000
3FFC00
7C7C00
7C3E00
F83E00
703E00
00FE00
07FE00
1E3E00
7C3E00
783E00
F83E00
F83E00
7C7E00
7FFF00
7F9FC0
1C0C00
000000
01C000
03E000
03E000
03E000
01C000
ENDCHAR
STARTCHAR uni1EB8
ENCODING 7864
SWIDTH 629 0
DWIDTH 21 0
BBX 19 30 1 -6
BITMAP
FFFFC0
1FFFC0
1F03C0
1F01C0
1F00C0
1F00C0
1F0040
1F0000
1F0200
1F0600
1F0600
1FFE00
1FFE00
1F0600
1F0200
1F0200
1F0000
1F0020
1F0060
1F0060
1F00E0
1F81E0
1FFFE0
FFFFE0
000000
00E000
01F000
01F000
01F000
00E000
ENDCHAR
STARTCHAR uni1EB9
ENCODING 7865
SWIDTH 519 0
DWIDTH 17 0
BBX 16 23 1 -6
BITMAP
03C0
0FF8
3E3C
3C1E
781E
781F
F81F
FFFF
FFFF
F800
F800
FC00
7C03
7E06
3FFC
1FF8
03E0
0000
0380
07C0
07C0
07C0
0380
ENDCHAR
STARTCHAR uni1EBC
ENCODING 7868
SWIDTH 629 0
DWIDTH 21 0
BBX 19 30 1 0
BITMAP
020100
0FE200
1FFE00
11FC00
201000
000000
FFFFC0
1FFFC0
1F03C0
1F01C0
1F00C0
1F00C0
1F0040
1F0000
1F0200
1F0600
1F0600
1FFE00
1FFE00
1F0600
1F0200
1F0200
1F0000
1F0020
1F0060
1F0060
1F00E0
1F81E0
1FFFE0
FFFFE0
ENDCHAR
STARTCHAR uni1EBD
ENCODING 7869
SWIDTH 519 0
DWIDTH 17 0
BBX 16 23 1 0
BITMAP
0402
1FC4
3FFC
23F8
4020
0000
03C0
0FF8
3E3C
3C1E
781E
781F
F81F
FFFF
FFFF
F800
F800
FC00
7C03
7E06
3FFC
1FF8
03E0
ENDCHAR
STARTCHAR uni1EBE
ENCODING 7870
SWIDTH 629 0
DWIDTH 21 0
BBX 19 39 1 0
BITMAP
000200
000F00
001F00
003E00
007C00
00F000
01C000
010000
000000
002000
00F000
01FC00
03FE00
0F0700
000000
FFFFC0
1FFFC0
1F03C0
1F01C0
1F00C0
1F00C0
1F0040
1F0000
1F0200
1F0600
1F0600
1FFE00
1FFE00
1F0600
1F0200
1F0200
1F0000
1F0020
1F0060
1F0060
1F00E0
1F81E0
1FFFE0
FFFFE0
ENDCHAR
STARTCHAR uni1EBF
ENCODING 7871
SWIDTH 519 0
DWIDTH 17 0
BBX 16 34 1 0
BITMAP
0008
003C
007C
00F8
01F0
03C0
0700
0400
0000
0080
03C0
07E0
0FF0
0E38
181C
300E
2004
03C0
0FF8
3E3C
3C1E
781E
781F
F81F
FFFF
FFFF
F800
F800
FC00
7C03
7E06
3FFC
1FF8
03E0
ENDCHAR
STARTCHAR uni1EC0
ENCODING 7872
SWIDTH 629 0
DWIDTH 21 0
BBX 19 39 1 0
BITMAP
040000
0F0000
0F8000
07C000
03E000
00F000
003800
000800
000000
002000
00F000
01FC00
03FE00
0F0700
000000
FFFFC0
1FFFC0
1F03C0
1F01C0
1F00C0
1F00C0
1F0040
1F0000
1F0200
1F0600
1F0600
1FFE00
1FFE00
1F0600
1F0200
1F0200
1F0000
1F0020
1F0060
1F0060
1F00E0
1F81E0
1FFFE0
FFFFE0
ENDCHAR
STARTCHAR uni1EC1
ENCODING 7873
SWIDTH 519 0
DWIDTH 17 0
BBX 16 34 1 0
BITMAP
1000
3C00
3E00
1F00
0F80
03C0
00E0
0020
0000
0080
03C0
07E0
0FF0
0E38
181C
300E
2004
03C0
0FF8
3E3C
3C1E
781E
781F
F81F
FFFF
FFFF
F800
F800
FC00
7C03
7E06
3FFC
1FF8
03E0
ENDCHAR
STARTCHAR uni1EC4
ENCODING 7876
SWIDTH 629 0
DWIDTH 21 0
BBX 19 36 1 0
BITMAP
010080
07F100
0FFF00
08FE00
100800
000000
002000
00F000
01FC00
03FE00
0F0700
000000
FFFFC0
1FFFC0
1F03C0
1F01C0
1F00C0
1F00C0
1F0040
1F0000
1F0200
1F0600
1F0600
1FFE00
1FFE00
1F0600
1F0200
1F0200
1F0000
1F0020
1F0060
1F0060
1F00E0
1F81E0
1FFFE0
FFFFE0
ENDCHAR
STARTCHAR uni1EC5
ENCODING 7877
SWIDTH 519 0
DWIDTH 17 0
BBX 16 31 1 0
BITMAP
0402
1FC4
3FFC
23F8
4020
0000
0080
03C0
07E0
0FF0
0E38
181C
300E
2004
03C0
0FF8
3E3C
3C1E
781E
781F
F81F
FFFF
FFFF
F800
F800
FC00
7C03
7E06
3FFC
1FF8
03E0
ENDCHAR
STARTCHAR uni1EC6
ENCODING 7878
SWIDTH 629 0
DWIDTH 21 0
BBX 19 39 1 -6
BITMAP
008000
01E000
01E000
03F000
073800
0E1C00
180600
100200
000000
FFFFC0
1FFFC0
1F03C0
1F01C0
1F00C0
1F00C0
1F0040
1F0000
1F0200
1F0600
1F0600
1FFE00
1FFE00
1F0600
1F0200
1F0200
1F0000
1F0020
1F0060
1F0060
1F00E0
1F81E0
1FFFE0
FFFFE0
000000
00E000
01F000
01F000
01F000
00E000
ENDCHAR
STARTCHAR uni1EC7
ENCODING 7879
SWIDTH 519 0
DWIDTH 17 0
BBX 16 32 1 -6
BITMAP
0100
03C0
03C0
07E0
0E70
1C38
300C
2004
0000
03C0
0FF8
3E3C
3C1E
781E
781F
F81F
FFFF
FFFF
F800
F800
FC00
7C03
7E06
3FFC
1FF8
03E0
0000
0380
07C0
07C0
07C0
0380
ENDCHAR
STARTCHAR uni1ECA
ENCODING 7882
SWIDTH 384 0
DWIDTH 13 0
BBX 11 30 1 -6
BITMAP
FFE0
1F00
1F00
1F00
1F00
1F00
1F00
1F00
1F00
1F00
1F00
1F00
1F00
1F00
1F00
1F00
1F00
1F00
1F00
1F00
1F00
1F00
1F00
FFE0
0000
0E00
1F00
1F00
1F00
0E00
ENDCHAR
STARTCHAR uni1ECB
ENCODING 7883
SWIDTH 316 0
DWIDTH 11 0
BBX 9 30 1 -6
BITMAP
1800
3E00
7E00
3E00
3E00
1800
0000
0E00
FE00
7E00
3E00
3E00
3E00
3E00
3E00
3E00
3E00
3E00
3E00
3E00
3E00
3E00
3E00
FF80
0000
1C00
3E00
3E00
3E00
1C00
ENDCHAR
STARTCHAR uni1ECC
ENCODING 7884
SWIDTH 768 0
DWIDTH 26 0
BBX 23 30 1 -6
BITMAP
007C00
03FF80
0FC7E0
1F01F0
3E00F8
3E00F8
7E00FC
7E00FC
7C007C
FC007E
FC007E
FC007E
FC007E
FC007E
FC007E
7C007C
7C007C
7E00FC
3E00F8
3E00F8
1F01F0
0FC7E0
03FF80
007C00
000000
003800
007C00
007C00
007C00
003800
ENDCHAR
STARTCHAR uni1ECD
ENCODING 7885
SWIDTH 585 0
DWIDTH 20 0
BBX 17 23 1 -6
BITMAP
03E000
1FFC00
3E3E00
7C1F00
7C1F00
F80F80
F80F80
F80F80
F80F80
F80F80
F80F80
F80F80
7C1F00
7C1F00
3E3E00
1FFC00
03E000
000000
01C000
03E000
03E000
03E000
01C000
ENDCHAR
STARTCHAR uni1ED0
ENCODING 7888
SWIDTH 768 0
DWIDTH 26 0
BBX 23 39 1 0
BITMAP
000080
0003C0
0007C0
000F80
001F00
003C00
007000
004000
000000
001000
007C00
00FE00
01FF00
038380
060040
007C00
03FF80
0FC7E0
1F01F0
3E00F8
3E00F8
7E00FC
7E00FC
7C007C
FC007E
FC007E
FC007E
FC007E
FC007E
FC007E
7C007C
7C007C
7E00FC
3E00F8
3E00F8
1F01F0
0FC7E0
03FF80
007C00
ENDCHAR
STARTCHAR uni1ED1
ENCODING 7889
SWIDTH 585 0
DWIDTH 20 0
BBX 17 34 1 0
BITMAP
000400
001E00
003E00
007C00
00F800
01E000
038000
020000
000000
008000
01C000
03E000
07F000
0E3800
1C1C00
300600
100200
03E000
1FFC00
3E3E00
7C1F00
7C1F00
F80F80
F80F80
F80F80
F80F80
F80F80
F80F80
F80F80
7C1F00
7C1F00
3E3E00
1FFC00
03E000
ENDCHAR
STARTCHAR uni1ED2
ENCODING 7890
SWIDTH 768 0
DWIDTH 26 0
BBX 23 39 1 0
BITMAP
020000
078000
07C000
03E000
01F000
007800
001C00
000400
000000
001000
007C00
00FE00
01FF00
038380
060040
007C00
03FF80
0FC7E0
1F01F0
3E00F8
3E00F8
7E00FC
7E00FC
7C007C
FC007E
FC007E
FC007E
FC007E
FC007E
FC007E
7C007C
7C007C
7E00FC
3E00F8
3E00F8
1F01F0
0FC7E0
03FF80
007C00
ENDCHAR
STARTCHAR uni1ED3
ENCODING 7891
SWIDTH 585 0
DWIDTH 20 0
BBX 17 34 1 0
BITMAP
100000
3C0000
3E0000
1F0000
0F8000
03C000
00E000
002000
000000
008000
01C000
03E000
07F000
0E3800
1C1C00
300600
100200
03E000
1FFC00
3E3E00
7C1F00
7C1F00
F80F80
F80F80
F80F80
F80F80
F80F80
F80F80
F80F80
7C1F00
7C1F00
3E3E00
1FFC00
03E000
ENDCHAR
STARTCHAR uni1ED6
ENCODING 7894
SWIDTH 768 0
DWIDTH 26 0
BBX 23 36 1 0
BITMAP
008040
03F880
07FF80
047F00
080400
000000
001000
007C00
00FE00
01FF00
038380
060040
007C00
03FF80
0FC7E0
1F01F0
3E00F8
3E00F8
7E00FC
7E00FC
7C007C
FC007E
FC007E
FC007E
FC007E
FC007E
FC007E
7C007C
7C007C
7E00FC
3E00F8
3E00F8
1F01F0
0FC7E0
03FF80
007C00
ENDCHAR
STARTCHAR uni1ED7
ENCODING 7895
SWIDTH 585 0
DWIDTH 20 0
BBX 17 31 1 0
BITMAP
040200
1FC400
3FFC00
23F800
402000
000000
008000
01C000
03E000
07F000
0E3800
1C1C00
300600
100200
03E000
1FFC00
3E3E00
7C1F00
7C1F00
F80F80
F80F80
F80F80
F80F80
F80F80
F80F80
F80F80
7C1F00
7C1F00
3E3E00
1FFC00
03E000
ENDCHAR
STARTCHAR uni1ED8
ENCODING 7896
SWIDTH 768 0
DWIDTH 26 0
BBX 23 39 1 -6
BITMAP
001000
003C00
003C00
007E00
00E700
01C380
0300C0
020040
000000
007C00
03FF80
0FC7E0
1F01F0
3E00F8
3E00F8
7E00FC
7E00FC
7C007C
FC007E
FC007E
FC007E
FC007E
FC007E
FC007E
7C007C
7C007C
7E00FC
3E00F8
3E00F8
1F01F0
0FC7E0
03FF80
007C00
000000
003800
007C00
007C00
007C00
003800
ENDCHAR
STARTCHAR uni1ED9
ENCODING 7897
SWIDTH 585 0
DWIDTH 20 0
BBX 17 32 1 -6
BITMAP
008000
01E000
01E000
03F000
073800
0E1C00
180600
100200
000000
03E000
1FFC00
3E3E00
7C1F00
7C1F00
F80F80
F80F80
F80F80
F80F80
F80F80
F80F80
F80F80
7C1F00
7C1F00
3E3E00
1FFC00
03E000
000000
01C000
03E000
03E000
03E000
01C000
ENDCHAR
STARTCHAR uni1EDA
ENCODING 7898
SWIDTH 768 0
DWIDTH 26 0
BBX 27 33 1 0
BITMAP
00001000
00007800
0000F800
0001F000
0003E000
00078000
000E0000
00080000
00000000
007C0180
03FF83C0
0FC7E3C0
1F01F3E0
3E00F9E0
3E00F9C0
7E00FDC0
7E00FD80
7C007F00
FC007E00
FC007E00
FC007E00
FC007E00
FC007E00
FC007E00
7C007C00
7C007C00
7E00FC00
3E00F800
3E00F800
1F01F000
0FC7E000
03FF8000
007C0000
ENDCHAR
STARTCHAR uni1EDB
ENCODING 7899
SWIDTH 585 0
DWIDTH 20 0
BBX 21 26 1 0
BITMAP
000100
000780
000F80
001F00
003E00
007800
00E000
008000
000000
03E060
1FFCF0
3E3EF0
7C1FF8
7C1F78
F80FF0
F80FF0
F80FE0
F80FC0
F80F80
F80F80
F80F80
7C1F00
7C1F00
3E3E00
1FFC00
03E000
ENDCHAR
STARTCHAR uni1EDC
ENCODING 7900
SWIDTH 768 0
DWIDTH 26 0
BBX 27 33 1 0
BITMAP
00400000
00F00000
00F80000
007C0000
003E0000
000F0000
00038000
00008000
00000000
007C0180
03FF83C0
0FC7E3C0
1F01F3E0
3E00F9E0
3E00F9C0
7E00FDC0
7E00FD80
7C007F00
FC007E00
FC007E00
FC007E00
FC007E00
FC007E00
FC007E00
7C007C00
7C007C00
7E00FC00
3E00F800
3E00F800
1F01F000
0FC7E000
03FF8000
007C0000
ENDCHAR
STARTCHAR uni1EDD
ENCODING 7901
SWIDTH 585 0
DWIDTH 20 0
BBX 21 26 1 0
BITMAP
020000
078000
07C000
03E000
01F000
007800
001C00
000400
000000
03E060
1FFCF0
3E3EF0
7C1FF8
7C1F78
F80FF0
F80FF0
F80FE0
F80FC0
F80F80
F80F80
F80F80
7C1F00
7C1F00
3E3E00
1FFC00
03E000
ENDCHAR
STARTCHAR uni1EE0
ENCODING 7904
SWIDTH 768 0
DWIDTH 26 0
BBX 27 30 1 0
BITMAP
00100800
007F1000
00FFF000
008FE000
01008000
00000000
007C0180
03FF83C0
0FC7E3C0
1F01F3E0
3E00F9E0
3E00F9C0
7E00FDC0
7E00FD80
7C007F00
FC007E00
FC007E00
FC007E00
FC007E00
FC007E00
FC007E00
7C007C00
7C007C00
7E00FC00
3E00F800
3E00F800
1F01F000
0FC7E000
03FF8000
007C0000
ENDCHAR
STARTCHAR uni1EE1
ENCODING 7905
SWIDTH 585 0
DWIDTH 20 0
BBX 21 23 1 0
BITMAP
008040
03F880
07FF80
047F00
080400
000000
03E060
1FFCF0
3E3EF0
7C1FF8
7C1F78
F80FF0
F80FF0
F80FE0
F80FC0
F80F80
F80F80
F80F80
7C1F00
7C1F00
3E3E00
1FFC00
03E000
ENDCHAR
STARTCHAR uni1EE2
ENCODING 7906
SWIDTH 768 0
DWIDTH 26 0
BBX 27 30 1 -6
BITMAP
007C0180
03FF83C0
0FC7E3C0
1F01F3E0
3E00F9E0
3E00F9C0
7E00FDC0
7E00FD80
7C007F00
FC007E00
FC007E00
FC007E00
FC007E00
FC007E00
FC007E00
7C007C00
7C007C00
7E00FC00
3E00F800
3E00F800
1F01F000
0FC7E000
03FF8000
007C0000
00000000
001C0000
003E0000
003E0000
003E0000
001C0000
ENDCHAR
STARTCHAR uni1EE3
ENCODING 7907
SWIDTH 585 0
DWIDTH 20 0
BBX 21 23 1 -6
BITMAP
03E060
1FFCF0
3E3EF0
7C1FF8
7C1F78
F80FF0
F80FF0
F80FE0
F80FC0
F80F80
F80F80
F80F80
7C1F00
7C1F00
3E3E00
1FFC00
03E000
000000
00E000
01F000
01F000
01F000
00E000
ENDCHAR
STARTCHAR uni1EE4
ENCODING 7908
SWIDTH 786 0
DWIDTH 26 0
BBX 23 30 2 -6
BITMAP
FFC7FE
3E00F8
3E00F8
3E00F8
3E00F8
3E00F8
3E00F8
3E00F8
3E00F8
3E00F8
3E00F8
3E00F8
3E00F8
3E00F8
3E00F8
3E00F8
3E00F8
3E00F8
3E00F0
1F01F0
1F01F0
0F83E0
07FF80
00FC00
000000
003800
007C00
007C00
007C00
003800
ENDCHAR
STARTCHAR uni1EE5
ENCODING 7909
SWIDTH 629 0
DWIDTH 21 0
BBX 19 23 1 -6
BITMAP
0E0380
FE3F80
7E0F80
3E0F80
3E0F80
3E0F80
3E0F80
3E0F80
3E0F80
3E0F80
3E0F80
3E0F80
3E0F80
3F1F80
1FFF80
1FE780
070FE0
000000
00E000
01F000
01F000
01F000
00E000
ENDCHAR
STARTCHAR uni1EE8
ENCODING 7912
SWIDTH 786 0
DWIDTH 26 0
BBX 27 33 2 0
BITMAP
00002000
0000F000
0001F000
0003E000
0007C000
000F0000
001C0000
00100000
00000000
FFC7FF80
3E00FBC0
3E00FBC0
3E00FBE0
3E00F9E0
3E00F9C0
3E00F9C0
3E00F980
3E00FB00
3E00FE00
3E00FA00
3E00F800
3E00F800
3E00F800
3E00F800
3E00F800
3E00F800
3E00F800
3E00F000
1F01F000
1F01F000
0F83E000
07FF8000
00FC0000
ENDCHAR
STARTCHAR uni1EE9
ENCODING 7913
SWIDTH 629 0
DWIDTH 21 0
BBX 23 26 1 0
BITMAP
000080
0003C0
0007C0
000F80
001F00
003C00
007000
004000
000000
0E0398
FE3FBC
7E0FBC
3E0FBE
3E0F9E
3E0F9C
3E0F9C
3E0F98
3E0FB0
3E0FE0
3E0FA0
3E0F80
3E0F80
3F1F80
1FFF80
1FE780
070FE0
ENDCHAR
STARTCHAR uni1EEA
ENCODING 7914
SWIDTH 786 0
DWIDTH 26 0
BBX 27 33 2 0
BITMAP
00400000
00F00000
00F80000
007C0000
003E0000
000F0000
00038000
00008000
00000000
FFC7FF80
3E00FBC0
3E00FBC0
3E00FBE0
3E00F9E0
3E00F9C0
3E00F9C0
3E00F980
3E00FB00
3E00FE00
3E00FA00
3E00F800
3E00F800
3E00F800
3E00F800
3E00F800
3E00F800
3E00F800
3E00F000
1F01F000
1F01F000
0F83E000
07FF8000
00FC0000
ENDCHAR
STARTCHAR uni1EEB
ENCODING 7915
SWIDTH 629 0
DWIDTH 21 0
BBX 23 26 1 0
BITMAP
010000
03C000
03E000
01F000
00F800
003C00
000E00
000200
000000
0E0398
FE3FBC
7E0FBC
3E0FBE
3E0F9E
3E0F9C
3E0F9C
3E0F98
3E0FB0
3E0FE0
3E0FA0
3E0F80
3E0F80
3F1F80
1FFF80
1FE780
070FE0
ENDCHAR
STARTCHAR uni1EEE
ENCODING 7918
SWIDTH 786 0
DWIDTH 26 0
BBX 27 30 2 0
BITMAP
00100800
007F1000
00FFF000
008FE000
01008000
00000000
FFC7FF80
3E00FBC0
3E00FBC0
3E00FBE0
3E00F9E0
3E00F9C0
3E00F9C0
3E00F980
3E00FB00
3E00FE00
3E00FA00
3E00F800
3E00F800
3E00F800
3E00F800
3E00F800
3E00F800
3E00F800
3E00F000
1F01F000
1F01F000
0F83E000
07FF8000
00FC0000
ENDCHAR
STARTCHAR uni1EEF
ENCODING 7919
SWIDTH 629 0
DWIDTH 21 0
BBX 23 23 1 0
BITMAP
004020
01FC40
03FFC0
023F80
040200
000000
0E0398
FE3FBC
7E0FBC
3E0FBE
3E0F9E
3E0F9C
3E0F9C
3E0F98
3E0FB0
3E0FE0
3E0FA0
3E0F80
3E0F80
3F1F80
1FFF80
1FE780
070FE0
ENDCHAR
STARTCHAR uni1EF0
ENCODING 7920
SWIDTH 786 0
DWIDTH 26 0
BBX 27 30 2 -6
BITMAP
FFC7FF80
3E00FBC0
3E00FBC0
3E00FBE0
3E00F9E0
3E00F9C0
3E00F9C0
3E00F980
3E00FB00
3E00FE00
3E00FA00
3E00F800
3E00F800
3E00F800
3E00F800
3E00F800
3E00F800
3E00F800
3E00F000
1F01F000
1F01F000
0F83E000
07FF8000
00FC0000
00000000
00380000
007C0000
007C0000
007C0000
00380000
ENDCHAR
STARTCHAR uni1EF1
ENCODING 7921
SWIDTH 629 0
DWIDTH 21 0
BBX 23 23 1 -6
BITMAP
0E0398
FE3FBC
7E0FBC
3E0FBE
3E0F9E
3E0F9C
3E0F9C
3E0F98
3E0FB0
3E0FE0
3E0FA0
3E0F80
3E0F80
3F1F80
1FFF80
1FE780
070FE0
000000
007000
00F800
00F800
00F800
007000
ENDCHAR
STARTCHAR Ygrave
ENCODING 7922
SWIDTH 617 0
DWIDTH 21 0
BBX 22 33 0 0
BITMAP
040000
0F0000
0F8000
07C000
03E000
00F000
003800
000800
000000
FFC3FC
3F00F0
1F00E0
1F80C0
0F81C0
0F8180
0FC380
07C300
07C700
03E600
03E600
01FC00
01FC00
01F800
00F800
00F800
00F800
00F800
00F800
00F800
00F800
00F800
00F800
07FF00
ENDCHAR
STARTCHAR ygrave
ENCODING 7923
SWIDTH 524 0
DWIDTH 17 0
BBX 20 34 -1 -8
BITMAP
080000
1E0000
1F0000
0F8000
07C000
01E000
007000
001000
000000
FFC7F0
3F01C0
1F01C0
1F0180
1F8380
0F8300
0FC300
07C700
07C600
07E600
03EC00
03FC00
01FC00
01F800
01F800
00F800
00F000
00F000
00E000
006000
0CC000
1FC000
1F8000
1F8000
0E0000
ENDCHAR
STARTCHAR uni1EF4
ENCODING 7924
SWIDTH 617 0
DWIDTH 21 0
BBX 22 30 0 -6
BITMAP
FFC3FC
3F00F0
1F00E0
1F80C0
0F81C0
0F8180
0FC380
07C300
07C700
03E600
03E600
01FC00
01FC00
01F800
00F800
00F800
00F800
00F800
00F800
00F800
00F800
00F800
00F800
07FF00
000000
007000
00F800
00F800
00F800
007000
ENDCHAR
STARTCHAR uni1EF5
ENCODING 7925
SWIDTH 524 0
DWIDTH 17 0
BBX 20 31 -1 -14
BITMAP
FFC7F0
3F01C0
1F01C0
1F0180
1F8380
0F8300
0FC300
07C700
07C600
07E600
03EC00
03FC00
01FC00
01F800
01F800
00F800
00F000
00F000
00E000
006000
0CC000
1FC000
1F8000
1F8000
0E0000
000000
038000
07C000
07C000
07C000
038000
ENDCHAR
STARTCHAR uni1EF8
ENCODING 7928
SWIDTH 617 0
DWIDTH 21 0
BBX 22 30 0 0
BITMAP
010080
07F100
0FFF00
08FE00
100800
000000
FFC3FC
3F00F0
1F00E0
1F80C0
0F81C0
0F8180
0FC380
07C300
07C700
03E600
03E600
01FC00
01FC00
01F800
00F800
00F800
00F800
00F800
00F800
00F800
00F800
00F800
00F800
07FF00
ENDCHAR
STARTCHAR uni1EF9
ENCODING 7929
SWIDTH 524 0
DWIDTH 17 0
BBX 20 31 -1 -8
BITMAP
020100
0FE200
1FFE00
11FC00
201000
000000
FFC7F0
3F01C0
1F01C0
1F0180
1F8380
0F8300
0FC300
07C700
07C600
07E600
03EC00
03FC00
01FC00
01F800
01F800
00F800
00F000
00F000
00E000
006000
0CC000
1FC000
1F8000
1F8000
0E0000
ENDCHAR
STARTCHAR uni2000
ENCODING 8192
SWIDTH 500 0
DWIDTH 17 0
BBX 1 1 0 0
BITMAP
00
ENDCHAR
STARTCHAR uni2001
ENCODING 8193
SWIDTH 1000 0
DWIDTH 33 0
BBX 1 1 0 0
BITMAP
00
ENDCHAR
STARTCHAR uni2002
ENCODING 8194
SWIDTH 500 0
DWIDTH 17 0
BBX 1 1 0 0
BITMAP
00
ENDCHAR
STARTCHAR uni2003
ENCODING 8195
SWIDTH 1000 0
DWIDTH 33 0
BBX 1 1 0 0
BITMAP
00
ENDCHAR
STARTCHAR uni2004
ENCODING 8196
SWIDTH 333 0
DWIDTH 11 0
BBX 1 1 0 0
BITMAP
00
ENDCHAR
STARTCHAR uni2005
ENCODING 8197
SWIDTH 250 0
DWIDTH 8 0
BBX 1 1 0 0
BITMAP
00
ENDCHAR
STARTCHAR uni2006
ENCODING 8198
SWIDTH 167 0
DWIDTH 6 0
BBX 1 1 0 0
BITMAP
00
ENDCHAR
STARTCHAR uni2007
ENCODING 8199
SWIDTH 560 0
DWIDTH 19 0
BBX 1 1 0 0
BITMAP
00
ENDCHAR
STARTCHAR uni2008
ENCODING 8200
SWIDTH 280 0
DWIDTH 9 0
BBX 1 1 0 0
BITMAP
00
ENDCHAR
STARTCHAR uni2009
ENCODING 8201
SWIDTH 200 0
DWIDTH 7 0
BBX 1 1 0 0
BITMAP
00
ENDCHAR
STARTCHAR uni200A
ENCODING 8202
SWIDTH 100 0
DWIDTH 3 0
BBX 1 1 0 0
BITMAP
00
ENDCHAR
STARTCHAR uni200B
ENCODING 8203
SWIDTH 0 0
DWIDTH 0 0
BBX 1 1 0 0
BITMAP
00
ENDCHAR
STARTCHAR uni2010
ENCODING 8208
SWIDTH 392 0
DWIDTH 13 0
BBX 9 3 2 7
BITMAP
FF80
FF80
FF80
ENDCHAR
STARTCHAR uni2011
ENCODING 8209
SWIDTH 392 0
DWIDTH 13 0
BBX 9 3 2 7
BITMAP
FF80
FF80
FF80
ENDCHAR
STARTCHAR figuredash
ENCODING 8210
SWIDTH 500 0
DWIDTH 17 0
BBX 17 3 0 7
BITMAP
FFFF80
FFFF80
FFFF80
ENDCHAR
STARTCHAR endash
ENCODING 8211
SWIDTH 500 0
DWIDTH 17 0
BBX 17 3 0 7
BITMAP
FFFF80
FFFF80
FFFF80
ENDCHAR
STARTCHAR emdash
ENCODING 8212
SWIDTH 1000 0
DWIDTH 33 0
BBX 33 3 0 7
BITMAP
FFFFFFFF80
FFFFFFFF80
FFFFFFFF80
ENDCHAR
STARTCHAR afii00208
ENCODING 8213
SWIDTH 1000 0
DWIDTH 33 0
BBX 33 3 0 7
BITMAP
FFFFFFFF80
FFFFFFFF80
FFFFFFFF80
ENDCHAR
STARTCHAR quoteleft
ENCODING 8216
SWIDTH 252 0
DWIDTH 8 0
BBX 6 11 1 13
BITMAP
08
0C
18
30
70
70
F0
F8
78
78
30
ENDCHAR
STARTCHAR quoteright
ENCODING 8217
SWIDTH 252 0
DWIDTH 8 0
BBX 6 11 1 13
BITMAP
30
78
78
7C
3C
38
38
30
60
C0
40
ENDCHAR
STARTCHAR quotesinglbase
ENCODING 8218
SWIDTH 252 0
DWIDTH 8 0
BBX 6 11 1 -5
BITMAP
30
78
78
7C
3C
38
38
30
60
C0
40
ENDCHAR
STARTCHAR quotereversed
ENCODING 8219
SWIDTH 252 0
DWIDTH 8 0
BBX 6 11 1 13
BITMAP
30
78
78
F8
F0
70
70
30
18
0C
08
ENDCHAR
STARTCHAR quotedblleft
ENCODING 8220
SWIDTH 473 0
DWIDTH 16 0
BBX 13 11 1 13
BITMAP
0808
1C18
3830
3060
70E0
F0E0
F1F0
F9F0
F8F0
78F0
3060
ENDCHAR
STARTCHAR quotedblright
ENCODING 8221
SWIDTH 473 0
DWIDTH 16 0
BBX 13 11 1 13
BITMAP
3060
78F0
78F8
7CF8
7C78
3878
3870
3060
60E0
C1C0
8080
ENDCHAR
STARTCHAR quotedblbase
ENCODING 8222
SWIDTH 473 0
DWIDTH 16 0
BBX 13 11 1 -5
BITMAP
3060
78F0
78F8
7CF8
7C78
3878
3870
3060
60E0
C1C0
8080
ENDCHAR
STARTCHAR uni201F
ENCODING 8223
SWIDTH 473 0
DWIDTH 16 0
BBX 13 11 1 13
BITMAP
3060
78F0
F8F0
F9F0
F1F0
F0E0
70E0
3060
3830
1C18
0808
ENDCHAR
STARTCHAR dagger
ENCODING 8224
SWIDTH 510 0
DWIDTH 17 0
BBX 14 28 2 -4
BITMAP
0700
0F80
0F80
0F80
0700
0700
0700
E73C
FFFC
F33C
0300
0780
0780
0780
0780
0780
0780
0780
0300
0300
0300
0300
0300
0300
0300
0300
0300
0300
ENDCHAR
STARTCHAR daggerdbl
ENCODING 8225
SWIDTH 486 0
DWIDTH 16 0
BBX 14 27 1 -3
BITMAP
0780
0780
0780
0780
0300
0300
7B3C
FFFC
733C
0300
0780
0780
0780
0780
0780
0300
0300
F338
FFFC
F378
0300
0300
0300
0780
0780
0780
0780
ENDCHAR
STARTCHAR bullet
ENCODING 8226
SWIDTH 455 0
DWIDTH 15 0
BBX 12 12 2 6
BITMAP
0F00
3FC0
7FE0
7FE0
FFF0
FFF0
FFF0
FFF0
7FE0
7FE0
3FC0
0F00
ENDCHAR
STARTCHAR ellipsis
ENCODING 8230
SWIDTH 1000 0
DWIDTH 33 0
BBX 28 6 3 0
BITMAP
300600C0
780F01E0
FC1F83F0
FC1F83F0
780F01E0
300600C0
ENDCHAR
STARTCHAR perthousand
ENCODING 8240
SWIDTH 1289 0
DWIDTH 43 0
BBX 41 24 1 -1
BITMAP
1F001C000000
39C018000000
70FFF8000000
F0F070000000
F0F060000000
F0F0E0000000
F0F1C0000000
F0F180000000
F0F380000000
F0E300000000
70E700000000
39CE3F00FC00
1F8C7381CE00
001CE1C38700
0019E1E78780
0031E1E78780
0071E1E78780
0061E1E78780
00C1E1E78780
01C1E1E78780
0180E1C38700
03807381CE00
03003F00FC00
010000000000
ENDCHAR
STARTCHAR guilsinglleft
ENCODING 8249
SWIDTH 287 0
DWIDTH 10 0
BBX 7 14 1 1
BITMAP
02
06
0C
1C
38
78
F0
F0
78
38
1C
0C
06
02
ENDCHAR
STARTCHAR guilsinglright
ENCODING 8250
SWIDTH 287 0
DWIDTH 10 0
BBX 7 14 1 1
BITMAP
80
C0
60
70
38
3C
1E
1E
3C
38
70
60
C0
80
ENDCHAR
STARTCHAR fraction
ENCODING 8260
SWIDTH 100 0
DWIDTH 3 0
BBX 14 24 -5 0
BITMAP
0008
001C
0018
0038
0030
0070
0060
00E0
00C0
01C0
0180
0380
0300
0600
0600
0C00
0C00
1800
1800
3000
3000
6000
6000
C000
ENDCHAR
STARTCHAR oneinferior
ENCODING 8321
SWIDTH 402 0
DWIDTH 13 0
BBX 8 14 3 -8
BITMAP
3C
FC
3C
3C
3C
3C
3C
3C
3C
3C
3C
3C
3C
FF
ENDCHAR
STARTCHAR twoinferior
ENCODING 8322
SWIDTH 402 0
DWIDTH 13 0
BBX 12 14 1 -8
BITMAP
0F00
79C0
79E0
71E0
71E0
03C0
03C0
0780
0E00
1800
3030
7FE0
7FE0
FFE0
ENDCHAR
STARTCHAR threeinferior
ENCODING 8323
SWIDTH 402 0
DWIDTH 13 0
BBX 11 14 1 -8
BITMAP
0F80
79C0
79E0
71E0
01C0
0180
3F80
03C0
01E0
61E0
F1E0
F1E0
7BC0
1F00
ENDCHAR
STARTCHAR uni20A5
ENCODING 8357
SWIDTH 948 0
DWIDTH 32 0
BBX 31 24 1 -3
BITMAP
00003800
00007800
00007000
00007000
0E0C71C0
FE7FEFF0
7FFFFFF0
3F0FE1F8
3F07E0F8
3E07C0F8
3E07C0F8
3E07C0F8
3E07C0F8
3E07C0F8
3E07C0F8
3E07C0F8
3E07C0F8
3E07C0F8
3E07C0F8
3E0FC0F8
FF9FF3FE
000E0000
001E0000
001C0000
ENDCHAR
STARTCHAR uni20A6
ENCODING 8358
SWIDTH 739 0
DWIDTH 25 0
BBX 22 24 1 0
BITMAP
FF01FC
1F8078
1F8030
1FC030
1FE030
1BE030
1BF030
1FFFF0
1FFFF0
1FFFF0
187C30
187E30
183E30
183F30
1FFFF0
1FFFF0
1FFFF0
1807F0
1807F0
1803F0
1801F0
1801F0
3C00F0
7F00F0
ENDCHAR
STARTCHAR uni20A9
ENCODING 8361
SWIDTH 933 0
DWIDTH 31 0
BBX 32 24 0 0
BITMAP
FF8000FF
3E01E01C
3E01E01C
3E01E018
1E03F018
1F03F038
1F03F038
1FFFFF30
0FFFFF30
0FFFFF30
0F86F870
0F867860
0F8C7C60
07CC7C60
07FFFF60
07FFFFC0
07FFFFC0
03F83EC0
03F83EC0
03F81F80
03F01F80
01F01F80
01F01F00
01F00F00
ENDCHAR
STARTCHAR Euro
ENCODING 8364
SWIDTH 689 0
DWIDTH 23 0
BBX 24 24 -3 0
BITMAP
0001F8
003FFE
007C0F
01F807
03F003
03E003
07E001
FFFF01
FFFF00
FFFF00
0FC000
0FC000
0FC000
0FC000
FFFF00
FFFF00
FFFF01
07E001
03E003
03F003
01F807
00FE0F
003FFE
0003F0
ENDCHAR
STARTCHAR uni20AD
ENCODING 8365
SWIDTH 707 0
DWIDTH 24 0
BBX 23 24 1 0
BITMAP
FFE3FE
1F00F8
1F01E0
1F01C0
1F0380
1F0700
1F0E00
1F1C00
1F3800
1F3800
1F7800
FFFFFE
FFFFFE
1F7E00
1F7F00
1F3F80
1F3F80
1F1FC0
1F0FE0
1F0FE0
1F07F0
1F03F8
1F01FC
FFE03E
ENDCHAR
STARTCHAR uni2103
ENCODING 8451
SWIDTH 1065 0
DWIDTH 35 0
BBX 32 24 1 0
BITMAP
000001F8
1F003FFE
3F807C0F
71C1F807
60C3F003
E0E3E003
E0E7E001
E0E7E001
60C7C000
71CFC000
3F8FC000
1F0FC000
000FC000
000FC000
000FC000
0007C000
0007E001
0007E001
0003E003
0003F003
0001F807
0000FE0F
00003FFE
000003F0
ENDCHAR
STARTCHAR uni2109
ENCODING 8457
SWIDTH 969 0
DWIDTH 32 0
BBX 30 24 1 0
BITMAP
000FFFFC
1F01FFFC
3F81F01C
71C1F00C
60C1F00C
E0E1F004
E0E1F000
E0E1F000
60C1F000
71C1F010
3F81F030
1F01F030
0001FFF0
0001FFF0
0001F030
0001F010
0001F010
0001F000
0001F000
0001F000
0001F000
0001F000
0001F000
000FFE00
ENDCHAR
STARTCHAR trademark
ENCODING 8482
SWIDTH 1090 0
DWIDTH 36 0
BBX 34 15 1 9
BITMAP
FFFBF01FC0
C798F83F00
C788F83F00
8788B82F00
0780BC6F00
0780BC6F00
07809C4F00
07809ECF00
07809ECF00
07808F8F00
07808F8F00
0780878F00
0780870F00
0780870F00
1FE3E33FC0
ENDCHAR
STARTCHAR uni212A
ENCODING 8490
SWIDTH 707 0
DWIDTH 24 0
BBX 23 24 1 0
BITMAP
FFE3FE
1F00F8
1F01E0
1F01C0
1F0380
1F0700
1F0E00
1F1C00
1F3800
1F3800
1F7800
1FFC00
1FFE00
1F7E00
1F7F00
1F3F80
1F3F80
1F1FC0
1F0FE0
1F0FE0
1F07F0
1F03F8
1F01FC
FFE03E
ENDCHAR
STARTCHAR uni212B
ENCODING 8491
SWIDTH 644 0
DWIDTH 21 0
BBX 23 29 -1 0
BITMAP
003C00
00E700
00C300
00C300
00C300
007E00
007E00
007E00
007E00
00FF00
00FF00
00DF00
019F00
019F80
018F80
018F80
030FC0
0307C0
0307C0
07FFC0
07FFE0
0E07E0
0C03E0
0C03F0
1C03F0
1C01F0
1801F0
3801F8
FF0FFE
ENDCHAR
STARTCHAR uni2132
ENCODING 8498
SWIDTH 593 0
DWIDTH 20 0
BBX 18 24 1 0
BITMAP
01FFC0
003E00
003E00
003E00
003E00
003E00
003E00
203E00
203E00
303E00
3FFE00
3FFE00
303E00
303E00
203E00
003E00
003E00
003E00
803E00
C03E00
C03E00
E03E00
FFFE00
FFFFC0
ENDCHAR
STARTCHAR universal
ENCODING 8704
SWIDTH 644 0
DWIDTH 21 0
BBX 23 24 -1 0
BITMAP
FF0FFE
3801F8
1801F0
1C01F0
1C03F0
0C03E0
0C03E0
0E07E0
07FFE0
07FFC0
0707C0
030FC0
030F80
030F80
019F80
019F00
019F00
00DF00
00FE00
00FE00
007E00
007E00
007C00
003C00
ENDCHAR
STARTCHAR existential
ENCODING 8707
SWIDTH 629 0
DWIDTH 21 0
BBX 19 24 1 0
BITMAP
7FFFE0
7FFF00
781F00
701F00
601F00
601F00
401F00
001F00
081F00
0C1F00
0C1F00
0FFF00
0FFF00
0C1F00
081F00
081F00
001F00
801F00
C01F00
C01F00
E01F00
F03F00
FFFF00
FFFFE0
ENDCHAR
STARTCHAR uni2204
ENCODING 8708
SWIDTH 629 0
DWIDTH 21 0
BBX 19 24 1 0
BITMAP
7FFFE0
7FFF00
781F00
701F00
601F00
603F00
403F00
003F00
087F00
0C7F00
0C7F00
0FFF00
0FFF00
0CFF00
08FF00
09FF00
01DF00
81DF00
C1DF00
C39F00
E39F00
F3BF00
FFFF00
FFFFE0
ENDCHAR
STARTCHAR minus
ENCODING 8722
SWIDTH 600 0
DWIDTH 20 0
BBX 16 3 2 7
BITMAP
FFFF
FFFF
FFFF
ENDCHAR
STARTCHAR fraction
ENCODING 8725
SWIDTH 100 0
DWIDTH 3 0
BBX 14 24 -5 0
BITMAP
0008
001C
0018
0038
0030
0070
0060
00E0
00C0
01C0
0180
0380
0300
0600
0600
0C00
0C00
1800
1800
3000
3000
6000
6000
C000
ENDCHAR
STARTCHAR periodcentered
ENCODING 8729
SWIDTH 280 0
DWIDTH 9 0
BBX 6 6 2 5
BITMAP
30
78
FC
FC
78
30
ENDCHAR
STARTCHAR uni2236
ENCODING 8758
SWIDTH 280 0
DWIDTH 9 0
BBX 6 17 2 0
BITMAP
30
78
FC
FC
78
78
00
00
00
00
00
78
78
FC
FC
78
30
ENDCHAR
STARTCHAR uni2259
ENCODING 8793
SWIDTH 600 0
DWIDTH 20 0
BBX 16 19 2 3
BITMAP
0100
03C0
03C0
07E0
0E70
1C38
300C
2004
0000
FFFF
FFFF
FFFF
0000
0000
0000
0000
FFFF
FFFF
FFFF
ENDCHAR
STARTCHAR uni225A
ENCODING 8794
SWIDTH 600 0
DWIDTH 20 0
BBX 16 19 2 3
BITMAP
2004
300C
1C38
0E70
07E0
03C0
03C0
0100
0000
FFFF
FFFF
FFFF
0000
0000
0000
0000
FFFF
FFFF
FFFF
ENDCHAR
STARTCHAR notequal
ENCODING 8800
SWIDTH 600 0
DWIDTH 20 0
BBX 16 24 2 -4
BITMAP
0038
0078
0070
0070
0070
00E0
00E0
FFFF
FFFF
FFFF
01C0
01C0
0380
0380
FFFF
FFFF
FFFF
0700
0700
0E00
0E00
0E00
1E00
1C00
ENDCHAR
STARTCHAR equivalence
ENCODING 8801
SWIDTH 600 0
DWIDTH 20 0
BBX 16 8 0 4
BITMAP
FFFF
FFFF
0000
FFFF
FFFF
0000
FFFF
FFFF
ENDCHAR
STARTCHAR uni2262
ENCODING 8802
SWIDTH 600 0
DWIDTH 20 0
BBX 16 24 0 -4
BITMAP
0038
0078
0070
0070
0070
00E0
00E0
00E0
FFFF
FFFF
01C0
FFFF
FFFF
0380
FFFF
FFFF
0700
0700
0700
0E00
0E00
0E00
1E00
1C00
ENDCHAR
STARTCHAR lessequal
ENCODING 8804
SWIDTH 600 0
DWIDTH 20 0
BBX 16 20 2 -3
BITMAP
0001
0007
003F
00FE
03F8
0FE0
7F00
FC00
E000
FC00
3F00
0FE0
03F8
007F
001F
0007
0001
0000
FFFF
FFFF
ENDCHAR
STARTCHAR greaterequal
ENCODING 8805
SWIDTH 600 0
DWIDTH 20 0
BBX 16 20 2 -3
BITMAP
8000
E000
FC00
7F00
1FC0
07F0
00FE
003F
0007
003F
00FC
07F0
1FC0
FE00
F800
E000
8000
0000
FFFF
FFFF
ENDCHAR
STARTCHAR uni226E
ENCODING 8814
SWIDTH 600 0
DWIDTH 20 0
BBX 16 24 2 -3
BITMAP
0038
0078
0070
0070
0071
00E7
00FF
00FE
03F8
0FE0
7FC0
FDC0
E380
FF80
3F80
0FE0
07F8
077F
071F
0E07
0E01
0E00
1E00
1C00
ENDCHAR
STARTCHAR uni226F
ENCODING 8815
SWIDTH 600 0
DWIDTH 20 0
BBX 16 24 2 -3
BITMAP
0038
0078
0070
0070
8070
E0E0
FCE0
7FE0
1FE0
07F0
01FE
01FF
0387
03BF
03FC
07F0
1FC0
FF00
FF00
EE00
8E00
0E00
1E00
1C00
ENDCHAR
STARTCHAR uni2270
ENCODING 8816
SWIDTH 600 0
DWIDTH 20 0
BBX 16 24 2 -5
BITMAP
0038
0078
0071
0077
007F
00FE
03F8
0FE0
7FE0
FDC0
E1C0
FDC0
3F80
0FE0
03F8
07FF
071F
0707
0701
0E00
FFFF
FFFF
1E00
1C00
ENDCHAR
STARTCHAR uni2271
ENCODING 8817
SWIDTH 600 0
DWIDTH 20 0
BBX 16 24 2 -5
BITMAP
0038
0078
8070
E070
FC70
7FE0
1FE0
07F0
01FE
01FF
01C7
01FF
03FC
07F0
1FC0
FF80
FF00
E700
8700
0E00
FFFF
FFFF
1E00
1C00
ENDCHAR
STARTCHAR fi
ENCODING -1
SWIDTH 639 0
DWIDTH 21 0
BBX 20 25 1 0
BITMAP
00F800
07FF00
0F8F80
1F0FC0
1E0780
3E0380
3E0000
3E0000
FFFFC0
FFFFC0
3E07C0
3E07C0
3E07C0
3E07C0
3E07C0
3E07C0
3E07C0
3E07C0
3E07C0
3E07C0
3E07C0
3E07C0
3E07C0
3E07C0
FF9FF0
ENDCHAR
STARTCHAR fl
ENCODING -1
SWIDTH 639 0
DWIDTH 21 0
BBX 20 25 1 0
BITMAP
00F840
07FFC0
0F8FC0
1F07C0
1E07C0
3E07C0
3E07C0
3E07C0
FFE7C0
FFE7C0
3E07C0
3E07C0
3E07C0
3E07C0
3E07C0
3E07C0
3E07C0
3E07C0
3E07C0
3E07C0
3E07C0
3E07C0
3E07C0
3E07C0
FF9FF0
ENDCHAR
ENDFONT
